<?xml version="1.0" encoding="UTF-8"?>
<svg id="Layer_1" data-name="Layer 1" xmlns="http://www.w3.org/2000/svg" viewBox="0 0 97.1 97.1">
  <g>
    <polygon points="18.55 94.68 .02 37.67 48.55 2.42 97.08 37.67 78.55 94.68 18.55 94.68" fill="#010101"/>
    <polygon points="18.84 94.28 .49 37.82 48.55 2.91 96.61 37.82 78.26 94.28 18.84 94.28" fill="#f5d712"/>
    <polygon points="20.74 91.66 3.57 38.82 48.55 6.15 93.53 38.82 76.36 91.66 20.74 91.66" fill="#010101"/>
    <polygon points="21.04 91.26 4.04 38.97 48.55 6.65 93.06 38.97 76.06 91.26 21.04 91.26" fill="#066534"/>
  </g>
  <path d="M66.78,70.61c.12-.09.25-.17.35-.28.22-.22.16-.46-.13-.54-.42-.12-.67-.41-.84-.79-.28-.6-.31-1.23-.24-1.87.06-.65.21-1.28.41-1.89.05-.14.02-.3.14-.43.2.09.3.25.37.43.13.31.18.65.22.98.04.34.14.66.3.96.13.25.29.47.55.59.12.06.15.13.14.25,0,.2-.06.38-.1.57-.03.14-.07.28-.06.42.02.19.14.25.29.13.32-.25.58-.55.75-.92.08-.17.04-.26-.13-.34-.17-.08-.36-.11-.54-.13-.23-.03-.41-.14-.56-.32-.35-.42-.53-.9-.52-1.44,0-.53.02-1.06.04-1.59.01-.34.06-.67.12-1,.02-.12.05-.25.19-.3.12.08.14.2.18.32.16.42.31.85.47,1.27.13.34.29.66.54.94.15.16.27.35.37.55.13.28.21.56.12.87-.01.04-.01.09-.02.13,0,.09,0,.18.1.22.09.04.15-.03.2-.09.12-.13.23-.27.34-.41.14-.17.12-.34.01-.52-.1-.17-.25-.27-.41-.37-.63-.38-1.02-.93-1.12-1.66-.05-.38-.05-.76-.05-1.14,0-.41.02-.81.03-1.22,0-.15.03-.3.07-.44.03-.1.05-.21.17-.26.17.1.21.28.26.44.09.3.17.6.23.9.08.38.24.72.51,1,.22.23.41.49.58.76.19.29.26.6.14.94-.02.06-.03.12-.04.18-.01.08-.03.17.06.21.08.04.16,0,.22-.06.06-.06.13-.13.17-.2.11-.19.22-.38.31-.58.13-.28,0-.47-.26-.55-.72-.23-1.2-.73-1.46-1.41-.26-.69-.44-1.4-.41-2.15.02-.41.02-.81.08-1.22.02-.12.03-.25.11-.34.11-.01.14.07.19.13.19.27.33.57.4.89.12.58.41,1.07.84,1.48.2.19.39.39.56.6.16.21.27.43.26.71,0,.15.02.3.03.45,0,.08.01.16.09.21.02,0,.04,0,.05,0,.42-.34.45-1.02.06-1.37-.19-.17-.4-.32-.62-.46-.49-.32-.84-.74-1.03-1.3-.26-.75-.41-1.5-.39-2.29,0-.22.02-.44.11-.66.15.07.22.19.29.3.19.31.37.63.55.94.25.43.5.85.88,1.19.35.31.52.71.46,1.19-.02.14-.01.28.04.42.05.12.12.2.25.2.13,0,.22-.05.26-.18.13-.36.27-.71.37-1.08,0-.03.02-.07.02-.1.05-.34.01-.38-.33-.36-.22.01-.42-.04-.62-.14-.53-.28-.94-.67-1.24-1.2-.54-.94-.56-1.94-.42-2.97.01-.08.02-.16.09-.22.11.02.18.11.24.19.16.19.3.39.41.62.23.47.55.86.94,1.21.16.15.32.3.46.48.21.28.33.58.3.94,0,.11,0,.21,0,.32.01.09.07.16.18.17.1,0,.17-.04.21-.13.01-.03.02-.07.03-.1.13-.43.2-.88.25-1.33.03-.27-.05-.36-.33-.34-.23.02-.46.05-.69,0-.27-.06-.5-.2-.66-.42-.4-.54-.78-1.1-.98-1.75-.17-.52-.37-1.03-.45-1.58-.03-.23-.07-.47.03-.71.15,0,.21.11.28.2.2.25.38.51.55.78.31.51.73.91,1.26,1.19.08.04.15.09.23.14.34.23.53.54.57.95.02.18.03.35.04.53,0,.09.01.19.12.21.1.02.16-.06.2-.15.02-.05.04-.1.05-.15.07-.28.09-.56.08-.84-.02-.5-.31-.81-.8-.87-.48-.06-.88-.27-1.21-.61-.26-.27-.46-.58-.64-.91-.36-.65-.63-1.35-.85-2.06-.06-.2-.05-.27.05-.45.08,0,.11.08.16.13.17.18.33.37.5.55.36.39.77.7,1.25.94.24.12.47.25.67.43.27.23.45.52.5.88.02.17.06.33.09.5.02.09.05.17.11.24.07.08.16.08.22-.01.04-.07.07-.15.08-.22.07-.43.07-.86-.04-1.29-.1-.38-.32-.6-.71-.6-1-.01-1.69-.56-2.3-1.27-.5-.58-.79-1.28-1.05-1.99-.05-.14-.06-.28-.03-.42.03-.14.12-.17.23-.08.05.04.08.09.13.14.4.43.82.84,1.29,1.18.29.21.58.4.92.53.48.19.83.5.99,1,.03.1.09.19.14.29.04.08.1.16.21.13.1-.03.11-.13.13-.21,0-.03,0-.07,0-.11.02-.37-.04-.73-.11-1.08-.05-.23-.18-.33-.41-.25-.74.25-1.33,0-1.88-.49-.45-.39-.89-.78-1.28-1.24-.27-.32-.51-.66-.72-1.02-.09-.16-.17-.33-.21-.51-.02-.07-.03-.14-.01-.21.03-.14.14-.2.25-.1.14.12.29.23.44.35.28.23.57.45.85.68.37.3.79.47,1.25.55.14.02.27.07.41.11.31.1.54.29.66.61.06.17.15.32.28.45.05.04.1.08.17.06.07-.02.08-.09.09-.15,0-.05,0-.11,0-.16-.04-.33-.13-.64-.28-.94-.12-.24-.24-.28-.5-.18-.44.19-.87.1-1.29-.06-.36-.14-.67-.36-.96-.61-.7-.6-1.25-1.33-1.75-2.1-.1-.15-.17-.31-.21-.49-.02-.09-.04-.19.04-.25.08-.07.17-.02.25.03.18.12.36.23.52.37.42.4.93.64,1.46.85.21.08.43.16.65.22.33.09.59.28.8.54.13.17.26.34.39.5.09.12.1.11.26.17.06-.09.04-.18.03-.28-.04-.28-.11-.56-.22-.82-.09-.22-.25-.34-.49-.32-.8.08-1.52-.17-2.2-.57-.64-.38-1.23-.81-1.77-1.31-.28-.26-.5-.55-.62-.92-.05-.14-.09-.29-.04-.43.12-.05.18.03.25.08.68.43,1.39.77,2.15,1.03.19.07.39.1.6.14.54.08.99.3,1.29.8.08.14.18.29.37.28.06-.08.03-.14,0-.21-.14-.31-.28-.63-.44-.94-.09-.18-.24-.25-.42-.16-.34.16-.66.11-1.01.05-.75-.14-1.41-.47-2.05-.84-.53-.31-1.06-.64-1.44-1.15-.08-.11-.17-.2-.19-.35.07-.13.2-.12.32-.1.27.05.54.1.8.18.54.16,1.09.31,1.64.44.52.12.96.35,1.29.78.11.14.24.26.42.31.19.06.29-.02.23-.2-.12-.36-.32-.67-.54-.97-.08-.1-.19-.08-.3-.07-.67.05-1.33-.02-1.97-.23-.66-.22-1.29-.5-1.88-.86-.18-.11-.36-.23-.53-.35-.16-.1-.3-.22-.4-.39-.07-.11-.14-.23-.08-.38.17-.08.34-.04.51,0,.46.12.93.24,1.41.26.3.01.6.03.9.03.61-.01,1.05.25,1.37.76.07.1.14.2.21.3.04,0,.08.02.11.01.21,0,.25-.06.18-.26-.14-.37-.36-.69-.62-.98-.11-.13-.25-.16-.43-.12-1.34.33-2.58.13-3.72-.65-.31-.22-.61-.45-.9-.71-.08-.07-.19-.14-.17-.29.09-.06.18-.02.27,0,.4.1.79.19,1.19.3.46.12.93.12,1.39.02.09-.02.19-.03.29-.04.55-.06,1,.12,1.35.56.16-.03.17-.15.13-.26-.11-.3-.29-.57-.51-.79-.08-.08-.18-.09-.29,0-.56.41-1.21.47-1.87.44-.59-.03-1.15-.16-1.68-.45-.31-.17-.65-.29-.97-.44-.2-.09-.39-.22-.55-.37-.08-.07-.16-.14-.16-.25.06-.09.14-.07.2-.05.34.06.69.05,1.03.07.54.03,1.07-.04,1.57-.2.66-.21,1.19.03,1.7.42.09.07.17.16.27.21.06.03.11.05.18,0,.04-.11-.04-.18-.08-.26-.17-.28-.38-.54-.61-.77-.31-.31-.67-.34-1.03-.1-.34.23-.7.43-1.1.51-.8.15-1.59.08-2.35-.2-.34-.13-.66-.29-.95-.52-.11-.09-.22-.17-.24-.32.08-.09.17-.06.26-.05.79.09,1.57.11,2.36.04.17-.02.33-.05.5-.09.13-.03.26-.07.39-.1.26-.07.52-.08.78.05.12.06.25.09.38.1.12.01.25.01.37-.07-.05-.24-.24-.36-.41-.49-.19-.15-.34-.37-.62-.36-.3.45-.76.63-1.25.74-.51.12-1.03.15-1.56.07-.58-.09-1.16-.18-1.71-.39-.33-.13-.42-.2-.56-.42.06-.09.16-.07.24-.06.76.05,1.47-.15,2.16-.46.65-.3,1.31-.34,1.98-.05.11.05.24.13.4,0-.22-.21-.41-.45-.66-.6-.2-.12-.42-.07-.61.05-.67.43-1.43.55-2.2.64-.62.07-1.24.08-1.84-.11-.23-.07-.46-.15-.66-.28-.07-.05-.16-.1-.14-.2.02-.11.12-.14.23-.15.43-.02.8-.17,1.18-.37.62-.34,1.28-.51,1.99-.44.29.03.58.08.83.25.04.02.08.04.12.06.08.02.16.05.21-.04.04-.07,0-.14-.06-.19-.15-.15-.3-.3-.48-.41-.18-.12-.36-.22-.54-.34-.22-.14-.43-.12-.65,0-.08.05-.16.11-.23.18-.42.42-.94.62-1.51.71-.58.08-1.15.03-1.71-.1-.24-.06-.48-.11-.72-.17-.14-.03-.27-.09-.39-.16-.08-.05-.16-.12-.13-.23.07-.08.16-.09.25-.08.27.01.5-.08.74-.18.4-.17.79-.35,1.2-.49.43-.15.86-.2,1.3-.12.28.06.56.1.84.15.04,0,.09.02.13.02.07,0,.12-.02.15-.09.02-.06-.03-.1-.07-.13-.29-.17-.57-.36-.87-.51-.19-.1-.4-.06-.58.07-.87.63-1.87.82-2.91.82-.6,0-1.2-.06-1.79-.23-.12-.04-.24-.06-.34-.15-.13-.11-.1-.22.05-.28,0,0,.02,0,.03,0,1.02-.23,2.02-.59,3.07-.71.34-.04.65,0,.96.16.14.07.27.13.42.16.07.01.14.02.21,0,.15-.04.19-.16.11-.29-.27-.39-.86-.59-1.33-.45-.1.03-.2.07-.29.12-.57.33-1.19.43-1.84.45-.56.02-1.11-.05-1.67-.14-.26-.04-.49-.14-.7-.31-.15-.13-.13-.24.06-.3.07-.02.16-.03.24-.04.33-.03.64-.1.95-.22.64-.24,1.28-.26,1.92-.03.21.07.42.13.64.19.07.02.13.05.2,0,.02-.05,0-.09-.04-.11-.34-.25-.71-.43-1.15-.44-.32,0-.64,0-.96.03-.53.06-1-.08-1.39-.45-.09-.08-.18-.17-.28-.25-.19-.16-.41-.24-.66-.23-.13,0-.27,0-.39-.06-.13-.07-.15-.16-.06-.28.05-.07.13-.13.21-.16.94-.37,1.89-.53,2.88-.17.42.15.78.38,1.11.67.29.25.56.52.84.78.14.13.28.25.43.35.08.05.16.09.25.08.08,0,.16-.04.19-.12.04-.08.01-.16-.05-.21-.06-.05-.13-.1-.2-.13-.59-.27-.93-.75-1.04-1.36-.11-.58-.39-1.06-.71-1.53-.1-.15-.22-.28-.29-.44-.03-.07-.07-.16,0-.22.06-.06.14-.06.22-.02.07.03.14.07.21.11.47.26.95.52,1.37.86.55.43.97.97,1.08,1.71.05.32.12.64.08.97-.01.08.01.16.07.22.17.2.38.37.63.48.09.04.19.06.26-.05.05-.09.02-.18-.11-.25-.46-.25-.63-.67-.73-1.16-.14-.7-.14-1.43-.35-2.12-.03-.08-.05-.17.03-.26.15-.06.27.02.37.13.18.21.36.41.53.63.2.26.39.53.59.79.27.36.42.77.52,1.21.09.42-.02.79-.34,1.09-.08.08-.19.14-.21.3.27.27.61.47.96.66.08.04.16.08.25.01.05-.09-.02-.15-.06-.22-.22-.35-.32-.73-.35-1.13-.04-.37-.04-.74-.04-1.12,0-.33-.04-.65-.14-.97-.06-.2-.13-.41-.06-.62.13-.08.21,0,.29.07.16.12.29.29.41.45.26.34.51.69.7,1.06.25.48.4.98.33,1.53-.03.21-.05.42-.04.64,0,.19-.08.36-.15.53-.13.29-.11.45.12.67.2.19.41.37.62.54.08.06.16.14.29.09.01-.14-.09-.21-.17-.29-.33-.38-.52-.82-.57-1.32,0-.11,0-.21.02-.32.04-.23.05-.46.05-.69-.01-.3.08-.58.12-.87.04-.31.06-.62,0-.92-.01-.07-.03-.14.01-.22.15,0,.26.07.37.16.17.14.3.33.4.53.37.73.63,1.5.78,2.31.08.41.06.83-.08,1.23-.06.16-.13.31-.23.45-.21.29-.2.41.02.68.14.17.32.31.45.49.06.08.16.07.24.05.09-.02.12-.1.13-.18.01-.08,0-.16-.04-.23-.32-.68-.29-1.39-.19-2.11.04-.32.08-.63.12-.95.03-.27-.01-.53-.08-.79-.03-.12-.1-.23-.04-.37.16,0,.29.09.4.17.16.12.3.28.41.45.37.55.59,1.15.69,1.79.07.43,0,.85-.19,1.24-.12.24-.24.47-.36.71-.21.42-.19.82.13,1.18.11.13.2.27.33.38.07.06.15.12.24.1.07-.09,0-.15-.02-.21-.31-.65-.33-1.31-.03-1.97.13-.28.13-.59.13-.89,0-.41,0-.81-.06-1.22-.02-.13-.05-.26.06-.37.11-.01.17.07.22.13.92,1.03,1.36,2.22,1.15,3.62-.07.44-.27.79-.65,1.02-.31.19-.37.32-.24.74.15.45.43.81.76,1.14.07.07.08.07.24.1.08-.16.03-.3-.05-.45-.13-.23-.23-.48-.25-.75-.03-.35.01-.7.21-1,.32-.46.36-.97.38-1.49.01-.26,0-.53,0-.8,0-.09-.01-.2.06-.27.08-.03.12.03.16.07.1.09.17.2.23.32.44.83.75,1.7.85,2.64.08.79-.16,1.47-.79,1.98-.08.07-.16.14-.22.23-.14.21-.13.38,0,.59.12.18.24.37.37.55.04.06.08.12.17.1.08-.02.1-.1.11-.17.02-.09-.01-.18-.04-.26-.14-.46-.06-.89.15-1.31.14-.29.3-.56.48-.83.26-.4.35-.82.28-1.29-.02-.16-.06-.31-.04-.48,0-.06,0-.12.06-.19.14,0,.21.1.28.2.38.48.62,1.03.75,1.62.19.9-.05,1.68-.64,2.37-.18.21-.37.41-.56.61-.25.26-.28.55-.16.88.11.3.25.58.44.83.06.08.13.15.24.1.1-.05.12-.15.11-.25-.02-.1-.04-.19-.07-.28-.15-.56-.07-1.09.2-1.59.13-.24.28-.47.47-.67.29-.3.49-.65.64-1.03.03-.09.05-.21.16-.22.13-.01.19.1.24.21.18.36.28.75.32,1.14.05.48.04.95-.07,1.43-.1.44-.33.8-.68,1.08-.15.12-.3.22-.45.33-.09.06-.17.12-.25.19-.33.29-.37.46-.21.87.12.29.28.55.38.85.02.05.06.09.09.13.05.05.11.05.17.03.07-.03.09-.09.07-.16-.02-.11-.04-.23-.07-.34-.13-.37-.04-.7.15-1.01.14-.23.31-.43.5-.62.19-.2.38-.4.56-.6.24-.27.39-.59.37-.97,0-.16.02-.31.13-.45.11.06.13.16.17.25.11.26.17.54.2.82.07.62.06,1.24-.09,1.85-.11.46-.38.82-.77,1.08-.18.12-.37.24-.55.37-.43.31-.53.58-.37,1.08.07.21.18.41.27.61.03.06.07.1.14.11.13-.04.12-.16.12-.26,0-.29.04-.56.14-.83.13-.37.34-.67.66-.91.55-.41.89-.95,1-1.63,0-.02.01-.03.03-.06.13-.05.19.03.24.13.17.33.31.68.35,1.05.04.38.05.76-.03,1.14-.09.41-.29.76-.6,1.04-.25.22-.53.39-.81.56-.22.13-.44.27-.62.45-.21.21-.29.46-.23.75.05.25.12.5.22.74.04.09.06.19.17.24.13-.06.12-.18.12-.29,0-.12-.02-.25-.03-.37-.03-.62.19-1.11.77-1.39.02,0,.03-.02.05-.02.57-.21.91-.65,1.16-1.18.04-.09.09-.17.14-.26,0-.01.03-.02.05-.03.1.03.12.11.14.2.12.66.19,1.32.02,1.98-.14.54-.43.99-.87,1.33-.37.29-.79.51-1.23.68-.23.09-.26.14-.24.37.03.31.12.61.2.91.02.08.05.16.15.16.11,0,.15-.08.17-.17.03-.11.05-.23.08-.33.21-.61.62-1.03,1.2-1.28.42-.18.71-.48.96-.84.06-.09.1-.21.21-.27.02.02.06.03.06.05.12.45.21.9.16,1.36-.07.65-.43,1.14-.92,1.53-.44.36-.97.54-1.51.7-.34.1-.39.15-.42.51-.04.42,0,.83.06,1.24,0,.04.02.09.04.13.03.06.08.1.15.09.06,0,.09-.06.11-.1.01-.02.01-.05.02-.08.05-.46.32-.78.65-1.06.26-.22.54-.41.84-.56.52-.26.91-.64,1.17-1.15.02-.04.04-.08.09-.1.32.48.35,1.01.2,1.55-.12.45-.34.86-.58,1.25-.16.26-.41.44-.68.58-.47.26-.97.38-1.49.46-.3.05-.39.14-.43.44-.06.49-.04.97,0,1.46,0,.04.01.09.03.13.05.1.14.11.21.03.05-.05.07-.12.08-.19.1-.63.47-1.06,1.02-1.34.13-.07.27-.14.41-.2.43-.19.81-.44,1.11-.8.1-.12.21-.25.41-.2.07.13.06.29.07.43,0,.38-.04.76-.17,1.12-.13.38-.35.69-.67.94-.36.28-.72.54-1.16.68-.19.06-.38.07-.58.08-.19.01-.37.02-.55.08-.13.04-.21.13-.25.25-.12.43-.14.87-.16,1.31,0,.06.02.13.09.15.07.02.12-.03.16-.08.04-.06.07-.12.1-.19.29-.54.71-.92,1.29-1.12.24-.08.49-.16.74-.22.31-.07.55-.23.75-.47.06-.07.1-.15.21-.19.18.36.2.72.09,1.1-.08.28-.21.52-.38.75-.24.32-.53.59-.86.83-.44.32-.93.35-1.45.25-.17-.04-.35-.07-.52-.08-.18-.01-.29.06-.35.22-.02.06-.05.11-.07.17-.12.38-.19.77-.24,1.17-.01.11-.02.23.1.27.12.04.2-.06.25-.15.05-.08.09-.17.13-.26.1-.19.21-.37.35-.53.23-.26.51-.4.86-.42.21-.01.42-.02.64-.04.47-.04.87-.21,1.19-.57.07-.08.13-.16.24-.22.12.17.09.35.06.52-.05.24-.15.47-.27.69-.27.48-.62.89-1.05,1.22-.59.46-1.26.59-1.98.47-.14-.02-.28-.05-.42-.07-.24-.03-.33.01-.43.22-.2.42-.34.87-.47,1.32-.03.1-.04.21.07.29.14-.02.2-.14.25-.25.19-.41.52-.63.92-.8.39-.16.8-.24,1.2-.33.23-.05.45-.1.67-.17.27-.08.5-.23.66-.47.07-.11.15-.22.28-.27.07.07.08.14.09.22.01.12.01.23-.02.34-.43,1.23-1.15,2.19-2.48,2.55-.38.1-.77.12-1.16.05-.13-.03-.27-.03-.4-.01-.32.04-.57.18-.71.48-.08.17-.15.34-.2.52-.02.07-.02.14.06.18.08.04.14,0,.17-.07.3-.72.92-.78,1.57-.77.09,0,.18.01.26.02.59.05,1.14-.05,1.64-.4.3-.21.39-.23.61-.22.07.11.02.22-.03.32-.09.19-.22.36-.36.53-.35.42-.74.81-1.16,1.17-.3.25-.64.45-1.03.53-.39.08-.76.04-1.11-.14-.23-.12-.47-.2-.74-.16-.19.03-.35.12-.48.27-.19.22-.31.47-.43.73-.03.06-.05.14.03.19.07.03.12-.01.16-.06.57-.66,1.32-.74,2.09-.59.6.12,1.16.05,1.72-.14.13-.05.27-.11.39.02,0,.1-.05.17-.09.25-.27.47-.64.86-1.11,1.12-.54.3-1.11.55-1.76.54-.33,0-.63-.1-.92-.23-.14-.07-.29-.13-.44-.18-.21-.07-.4-.03-.55.16-.18.23-.36.46-.52.71-.03.04-.05.09-.07.14-.02.05,0,.09.03.12.04.04.1.04.15,0,.04-.03.08-.07.12-.11.62-.53,1.34-.64,2.09-.4.46.15.88.13,1.31-.05.15-.06.28-.14.43-.21.14-.07.29-.14.44-.1.06.09.02.15,0,.21-.19.48-.5.88-.9,1.2-.5.41-1.08.68-1.72.8-.71.13-1.31-.1-1.8-.62-.21-.22-.34-.25-.6-.11-.1.05-.17.12-.25.2-.21.21-.39.43-.57.67-.03.04-.06.09-.08.14-.02.05-.02.11.03.14.04.03.09.03.13,0,.06-.04.11-.08.16-.13.38-.38.82-.48,1.32-.29.16.06.32.11.46.21.42.28.87.28,1.33.21.3-.04.59-.1.88-.18.11-.03.24-.08.35.02.04.09-.02.14-.06.19-.16.19-.34.36-.54.51-.52.42-1.04.82-1.68,1.06-.11.08-.25.07-.37.13-.07-.02-.14,0-.21.02-.71.16-1.35.05-1.91-.45-.05-.04-.1-.08-.15-.11-.26-.15-.48-.14-.71.07-.1.1-.21.19-.28.32-.03,0-.06.02-.07,0-.23-.23-.5-.43-.67-.71Z" fill="#e6ae22"/>
  <path d="M43.26,29.37c-.19.11-.25.22-.25.43,0,.58-.55,1.11-1.13,1.15-.6.04-1.11-.26-1.3-.8-.18-.52-.5-.74-1.22-.68-.5.04-.96.24-1.41.44-.81.37-1.56.83-2.31,1.31-.35.23-.71.46-1.1.7.14.05.25.07.35.07.5,0,.99.02,1.49.01.28,0,.54-.09.79-.21.23-.12.42-.29.55-.52.13-.23.26-.46.45-.65.5-.54,1.5-.44,1.93.14.12.15.17.33.17.52v.33c.11.03.21.05.31.07.41.11.68.44.7.86.02.51-.14.94-.58,1.24-.14.09-.28.14-.46.15.04.24.02.45-.12.64-.14.19-.35.3-.57.37-.61.22-1.18.05-1.57-.49-.1-.14-.19-.28-.27-.43-.17-.31-.38-.58-.62-.83-.4-.39-.88-.57-1.44-.6-.19-.01-.39-.04-.58-.04-.62-.02-1.23.03-1.81.33-.51.27-1.02.52-1.45.92-.37.35-.69.74-1,1.14-.08.11-.16.21-.23.33-.14.23-.08.35.2.34.32,0,.62-.09.93-.21.74-.29,1.22-.83,1.57-1.52.09-.18.19-.35.31-.52.27-.4.65-.51,1.11-.46.42.05.67.29.82.66.01.03.02.05.03.08,0,0,.02.01.03.03.1.06.22.02.33.03.53.02.9.27,1.07.76.19.55.07,1.07-.34,1.4-.14.12-.31.18-.49.2-.09,0-.18-.02-.26.03-.07.08-.04.18-.04.26-.01.31-.15.55-.38.73-.49.38-1.21.33-1.66-.11-.18-.17-.33-.37-.54-.51-.63-.4-1.32-.55-2.05-.42-.95.17-1.79.55-2.46,1.27-.2.21-.37.45-.53.69-.29.43-.57.86-.85,1.29-.18.29-.31.59-.37.93-.05.24.01.3.24.22.68-.25,1.19-.68,1.42-1.4.11-.36.2-.72.33-1.07.18-.47.47-.84.94-1.07.4-.2.79-.14,1.17.04.13.06.22.19.29.31.06.11.11.22.18.35.42-.04.81.07,1.13.34.19.16.27.37.31.6.1.53-.22,1.13-.75,1.39-.06.08,0,.17-.01.26-.03.83-.96,1.28-1.53,1.16-.36-.08-.69-.22-1.01-.4-.86-.49-.78-.45-1.65-.21-.76.21-1.42.63-1.94,1.23-.25.29-.4.64-.55,1-.27.68-.54,1.36-.7,2.08-.03.13-.04.26-.06.39-.02.16.05.21.21.14.18-.08.34-.19.49-.31.37-.3.68-.64.79-1.13.05-.23.03-.46.02-.69-.04-.44.03-.87.19-1.27.29-.7,1.23-1.13,1.93-.38.03.03.04.06.07.1.35-.22.7-.31,1.08-.16.3.12.55.29.71.57.26.47.38,1.12-.33,1.62.03.13.07.26.1.4.13.57-.08,1.04-.57,1.34-.61.37-1.11.37-1.67-.07-.33-.26-.66-.32-1.04-.2-.37.11-.75.21-1.11.37-.89.4-1.4,1.09-1.58,2.03-.17.93-.32,1.86-.48,2.79-.02.12-.09.24-.04.36.12.05.19-.04.26-.1.23-.19.45-.4.67-.6.31-.28.4-.62.29-1.04-.1-.36-.21-.72-.27-1.08-.06-.39,0-.74.28-1.03.3-.33.68-.41,1.09-.22.1.05.2.11.31.18.1-.08.2-.15.29-.23.8-.58,1.55-.08,1.85.46.12.2.12.42.06.64-.05.17-.1.34-.17.5-.06.13-.06.22.03.34.66.94-.24,1.76-1.02,1.77-.44.01-.87-.06-1.29-.13-.33-.06-.63-.02-.9.2-.35.3-.71.58-1.05.9-.28.26-.41.6-.45.97-.06.62-.07,1.24-.03,1.86.02.25.02.49.03.74,0,.28.05.55.1.82.01.05.02.11.05.15.09.15.18.16.3.05.03-.02.05-.05.07-.08.34-.45.54-.96.53-1.53-.02-.38-.1-.76-.25-1.11-.12-.29-.15-.59-.12-.91.07-.65.61-1.21,1.48-.98.1.03.2.07.31.11.26-.33.54-.61.99-.63.39-.02.72.1,1.01.35.57.49.58,1.14.02,1.83.03.02.06.04.09.06.35.21.43.45.34.85-.16.65-.8,1.01-1.4.88-.36-.08-.72-.12-1.08-.02-.25.07-.46.18-.64.35-.46.45-.87.94-1.16,1.52-.13.27-.21.54-.21.84,0,1.25.17,2.47.5,3.67.07.23.15.45.28.65.04.06.07.13.15.14.1-.01.13-.1.15-.17.13-.47.34-.91.44-1.39.06-.3-.02-.56-.24-.78-.27-.27-.53-.54-.75-.87-.2-.3-.34-.62-.31-.99.04-.45.23-.82.62-1.06.12-.08.25-.14.4-.13.17.02.25-.08.32-.22.21-.4.52-.69.98-.8.35-.09.69-.06,1.01.08.43.18.62.53.71.96.03.16.05.31.07.48.03.02.06.04.09.05.64.3.83.89.73,1.5-.14.86-.68,1.12-1.44,1.18-.09,0-.18,0-.26,0-.5,0-.87.22-1.1.66-.21.39-.38.8-.56,1.2-.3.7-.25,1.39.02,2.09.19.5.4.98.66,1.45.3.52.57,1.06.84,1.6.1.2.21.39.32.58.07.12.14.23.27.28.13-.03.15-.13.16-.23.05-.28.09-.56.07-.85-.03-.31-.18-.57-.37-.81-.23-.29-.52-.53-.74-.84-.26-.37-.49-.76-.56-1.21-.11-.69.32-1.11.93-1.16.14-.01.28,0,.41,0,.09-.07.09-.17.12-.25.15-.39.34-.76.69-1.01.6-.43,1.55-.29,1.82.6.06.18.09.36.09.54v.38c.07.1.15.09.23.12.72.25.95.72.68,1.44-.23.6-.66,1.02-1.22,1.3-.34.18-.67.36-.97.6-.24.19-.4.41-.47.72-.08.35-.13.69-.11,1.05.02.22.09.41.24.58.55.65,1.1,1.31,1.65,1.97-.23.22-.46.43-.68.64-.05.05-.1.1-.18.09-.08-.22-.23-.39-.36-.58-.51-.74-1.05-1.45-1.72-2.05-.97-.88-2.1-1.02-3.32-.66-.22.06-.39.2-.59.31-.49.28-1.01.51-1.58.61-.46.08-.81-.12-1.11-.44-.34-.36-.39-.8-.3-1.26.02-.08.04-.16.06-.24-.17-.17-.34-.35-.48-.56-.34-.51-.27-1.6.26-2.04.3-.25.63-.38,1.02-.41.08,0,.16-.01.24,0,.17.03.28-.04.38-.18.11-.16.28-.27.44-.38.62-.4,1.47-.1,1.87.48.22.32.33.69.38,1.07.02.17.05.34.05.5,0,.37.16.66.39.93.29.33.64.58,1,.83.07.05.15.11.24.04.09-.07.06-.15.03-.24-.02-.05-.03-.1-.06-.15-.55-1.1-1.13-2.19-1.79-3.23-.37-.57-.86-1.01-1.5-1.27-.18-.08-.37-.12-.57-.12-.32,0-.63-.02-.95.06-.25.06-.48.16-.69.31-.32.24-.67.37-1.08.38-.79.03-1.59-.87-1.52-1.55.03-.22.08-.42.21-.59.04-.06.08-.12.12-.17-.03-.12-.11-.19-.16-.28-.31-.5-.43-1.03-.24-1.6.13-.4.44-.6.85-.65.29-.03.56,0,.83.1.07-.06.08-.14.1-.2.27-.7.8-.98,1.52-.77.51.15.86.47,1.05.97.12.32.17.65.15.99-.02.43-.04.87.06,1.3.11.55.41.99.81,1.37.07.07.16.15.26.09.1-.07.05-.18.02-.27-.25-.81-.35-1.65-.5-2.47-.12-.64-.24-1.29-.47-1.9-.29-.77-.73-1.42-1.42-1.87-.15-.1-.32-.17-.47-.26-.34-.21-.68-.19-1.04-.04-.38.16-.77.29-1.15.4-.61.19-1.33-.26-1.46-.97-.03-.15-.05-.29-.04-.45.03-.32.15-.58.39-.77-.02-.11-.08-.17-.13-.25-.21-.37-.32-.76-.21-1.17.19-.7.87-1.14,1.7-.82.16.07.32.16.48.24.08-.02.11-.1.17-.15.41-.37.89-.45,1.38-.25.47.2.65.62.7,1.11.04.38-.03.76-.11,1.13-.07.28-.11.55-.13.84-.03.31.03.59.25.84.24.26.46.54.72.78.07.07.13.16.25.13.06-.07.04-.15.04-.23-.02-.97-.03-1.95-.07-2.92-.01-.3-.03-.6-.04-.9,0-.42-.09-.81-.28-1.18-.2-.39-.41-.78-.67-1.14-.22-.3-.49-.54-.87-.62-.25-.05-.51-.02-.77,0-.5.06-.97,0-1.39-.3-.74-.53-.87-1.62-.27-2.3.07-.07.13-.14.19-.21.01-.11-.04-.18-.08-.26-.14-.31-.16-.63-.12-.96.06-.51.5-.9,1.04-.94.42-.03.79.1,1.12.34.09.07.18.14.26.2.09.02.14-.03.19-.06.62-.33,1.25-.17,1.67.4.52.7.51,1.54,0,2.25-.2.29-.4.59-.51.93-.09.27-.09.53.02.8.14.34.27.67.42,1.01.04.09.07.18.18.24.13-.3.17-.61.23-.92.18-.95.29-1.91.48-2.85.03-.15.08-.29.1-.44.05-.32.01-.62-.12-.91-.19-.42-.37-.85-.58-1.25-.23-.46-.55-.84-1.01-1.1-.18-.1-.37-.17-.56-.22-.18-.05-.36-.1-.53-.18-.21-.1-.38-.24-.48-.44-.21-.39-.34-.81-.24-1.25.09-.4.35-.64.75-.74.04,0,.07-.02.1-.03.06-.09.03-.18.03-.27,0-.18-.02-.35.03-.53.14-.55.52-.85,1.05-.98.57-.14,1,.05,1.35.55.07.1.12.19.19.3.19-.08.37-.14.57-.13.2.02.37.08.49.23.28.34.49.72.47,1.18-.01.28-.11.52-.26.74-.11.17-.24.33-.37.49-.33.42-.62.87-.67,1.42-.04.54,0,1.09.12,1.63.01.05.02.11.1.14.16-.04.18-.2.22-.32.07-.23.12-.46.18-.69.19-.84.49-1.63.91-2.37.25-.44.31-.95.25-1.45-.08-.66-.18-1.31-.31-1.96-.07-.32-.18-.61-.37-.88-.16-.23-.36-.41-.62-.53-.63-.29-.92-.79-.93-1.48-.01-.54.37-.84.74-.96.13-.04.27-.06.41-.09.03-.14.05-.27.08-.39.17-.63.84-1.24,1.76-1.06.47.1.74.43.89.86.04.12.07.24.07.37.15.03.29.04.42.07.54.11.62.28.73.76.12.51-.07.94-.48,1.27-.41.33-.82.67-1.19,1.05-.44.45-.62.99-.57,1.62.02.19.04.38.09.57.07.02.1-.04.13-.08.88-1.05,1.76-2.08,2.59-3.17.14-.18.25-.37.31-.58.2-.75.22-1.5.05-2.26-.06-.27-.21-.48-.41-.66-.31-.27-.63-.52-.91-.82-.55-.59-.58-1.52-.07-2.14.25-.31.57-.47.97-.45.09,0,.18.02.28.02.12-.18.2-.38.34-.55.4-.51,1.09-.59,1.56-.38.41.18.56.54.62.96.02.13,0,.26,0,.4.13.05.25.09.37.14.3.12.49.35.56.66.1.47.02.91-.34,1.27-.25.26-.54.45-.85.63-.46.27-.87.6-1.18,1.05-.22.32-.33.66-.33,1.05,0,.13,0,.26,0,.4.12-.01.16-.09.21-.14.65-.65,1.3-1.3,1.98-1.92.34-.31.67-.63,1.05-.9.24-.17.34-.39.37-.67.05-.48.07-.97.06-1.46,0-.12-.03-.24-.06-.36-.05-.26-.18-.46-.39-.61-.29-.2-.52-.45-.68-.77-.19-.38-.19-.76,0-1.14.37-.73,1.08-1.05,1.86-.85.06.02.12.05.2.03.11-.2.21-.43.38-.61.32-.36.72-.51,1.19-.4.48.1.82.37.96.85.07.24.06.49,0,.74-.02.11-.09.2-.07.31.02.06.07.08.12.1.8.44.8.91.72,1.53-.11.77-.57,1.18-1.34,1.28-.18.02-.35.03-.53.01-.47-.05-.87.1-1.16.49-.17.22-.34.42-.51.64-.04.06-.09.11-.09.22.2-.09.39-.17.57-.26,1.02-.49,2.03-.97,3.05-1.46.18-.09.36-.18.55-.26.5-.21.8-.6.98-1.09.1-.24.15-.49.19-.75.21-1.09,1.27-1.33,2.05-.92.26.14.41.35.5.63.12.04.24.02.35.01.27,0,.5.09.71.25.77.6.71,1.78-.12,2.28Z" fill="#8c9f3c"/>
  <path d="M41.35,60.27c-.5-.29-1-.58-1.5-.87-.95-.55-1.9-1.1-2.85-1.65-.41-.24-.83-.48-1.24-.72-.08-.04-.15-.1-.23-.14-.09-.05-.12-.12-.11-.22.07-.6.3-1.13.78-1.51.17-.13.24-.26.19-.49-.13-.61-.21-1.23-.32-1.85-.02-.13.01-.25.05-.36.62-1.87,1.25-3.74,1.87-5.62.52-1.57,1.05-3.14,1.57-4.71.02-.06.04-.12.06-.18.03-.12.11-.16.23-.17.58-.02,1.15.03,1.72.13,1.32.23,2.58.68,3.79,1.25.99.47,1.93,1.01,2.83,1.62.09.06.18.15.3.18,2.64-1.84,5.47-3.16,8.74-3.19.13.09.14.21.17.3,1.09,3.26,2.17,6.52,3.26,9.77.05.15.09.31.15.45.11.25.1.49.05.75-.11.62-.22,1.23-.34,1.85-.03.14.02.19.13.25.55.3.83.78.87,1.4,0,.1.03.19.03.29-.01.22-.1.36-.31.47-.46.23-.9.49-1.35.74-1.07.59-2.14,1.18-3.21,1.76-.36.2-.72.38-1.07.58-.22.13-.22.14-.16.37.27.94.54,1.89.8,2.83.25.88.5,1.77.76,2.65.05.19.1.37.26.51.09.08.07.18,0,.26-.33.32-.58.71-.89,1.05-.15.16-.22.38-.4.52-.15.12-.18.14-.34.04-.42-.29-.88-.53-1.32-.79-.71-.42-1.42-.83-2.13-1.25-.87-.51-1.74-1.02-2.6-1.54-.31-.18-.62-.37-.94-.55-.13-.08-.24-.1-.4-.01-.82.45-1.64.88-2.46,1.34-.46.26-.94.49-1.4.76-.49.28-.99.52-1.47.82-.2.12-.42.23-.63.34-.41.21-.8.44-1.21.65-.04.02-.08.04-.12.06-.17.07-.24.05-.34-.1-.3-.49-.64-.95-1-1.4-.11-.14-.11-.24.03-.37.08-.07.14-.15.17-.26.5-1.99,1-3.98,1.5-5.97,0-.02,0-.03,0-.08Z" fill="#010101"/>
  <path d="M29.63,71.52c.08.01.13-.04.18-.09.23-.21.46-.43.68-.64.27-.12.46-.36.68-.54.34-.27.65-.57.99-.84.62-.49,1.32-.51,2.03-.25.34.12.62.33.89.57.93.85,1.94,1.6,3,2.27.59.37,1.2.72,1.83,1.02,1.22.59,2.48,1.02,3.81,1.26.81.15,1.61.3,2.43.41.41.06.82.09,1.24.13.79.07,1.57.12,2.36.09.62-.02,1.23-.07,1.85-.14,1.22-.14,2.4-.41,3.57-.78.72-.23,1.43-.51,2.14-.79,1.6-.65,3-1.62,4.34-2.68.6-.47,1.19-.95,1.77-1.44.49-.42,1.11-.45,1.65-.09.12.08.24.18.35.28.41.41.81.82,1.22,1.23.04.04.1.08.15.11.18.28.44.48.67.71.01.01.05,0,.07,0,0,.11.08.17.15.24.24.24.49.48.73.73.11.11.2.14.34.06.4-.22.82-.38,1.23-.55.27-.11.55-.19.8-.33.12-.06.26-.04.37-.13.27-.01.52-.11.77-.18.74-.21,1.5-.35,2.25-.48.27-.05.55-.04.82-.07.72-.07,1.45-.07,2.18-.04.7.02,1.39.09,2.07.26.43.11.79.27,1.04.47-.11.13-.28.19-.42.28-1.08.68-2.12,1.42-3,2.35-.33.35-.8.95-.89,1.28.05.1.16.09.25.12.68.23,1.32.55,1.9.98.73.54,1.26,1.23,1.57,2.09.02.05.03.1.05.15,0,.02,0,.03,0,.08-.23-.02-.47-.04-.7-.06-.44-.05-.88-.05-1.32,0-.27.03-.55.03-.82.07-1.32.17-2.55.57-3.67,1.29-.72.46-1.48.83-2.32,1.02-.38.09-.76.1-1.16.04-.56-.08-1.01-.34-1.4-.74-.61-.63-1.24-1.24-1.86-1.86-.06-.06-.11-.14-.23-.16-.29.19-.59.39-.89.59-1.53,1.02-3.12,1.93-4.79,2.69-1.64.75-3.34,1.36-5.09,1.83-.97.26-1.94.46-2.93.62-.5.08-1.02.13-1.52.18-1.35.15-2.71.11-4.06.08-.54,0-1.07-.07-1.61-.13-.88-.09-1.75-.25-2.61-.43-.67-.14-1.32-.32-1.98-.51-1.2-.35-2.37-.78-3.52-1.26-1.05-.44-2.06-.94-3.05-1.5-.91-.52-1.79-1.07-2.66-1.66-.25-.17-.49-.34-.73-.5-.12.04-.16.14-.23.2-.62.61-1.22,1.23-1.85,1.84-.19.18-.37.38-.61.5-.61.31-1.26.4-1.93.25-.9-.2-1.71-.61-2.49-1.1-.86-.55-1.8-.9-2.8-1.1-.91-.18-1.82-.25-2.74-.21-.27.01-.54.05-.81.08-.07-.06-.04-.13-.01-.19.3-.82.81-1.49,1.48-2.04.61-.49,1.3-.82,2.03-1.08.06-.02.12-.04.17-.07.02,0,.04-.03.07-.06-.08-.26-.25-.46-.4-.67-.4-.56-.89-1.02-1.42-1.46-.77-.63-1.57-1.2-2.43-1.7-.01,0-.02-.03-.04-.04,0-.09.09-.1.14-.13.54-.3,1.14-.42,1.75-.51.86-.13,1.73-.11,2.6-.1.95.01,1.88.13,2.81.33,1.02.22,2.02.52,3,.9.42.16.84.33,1.23.55.15.08.26.07.38-.04.28-.25.56-.48.84-.73.03-.03.04-.08.06-.11Z" fill="#010101"/>
  <path d="M21.59,75.49c-.03.05-.07.05-.1.06-.69.15-1.33.43-1.93.8-.67.42-1.23.96-1.61,1.66-.04.08-.12.15-.08.27.86-.04,1.71-.03,2.55.09,1.28.19,2.47.58,3.56,1.29.66.42,1.36.76,2.12.97.33.09.66.15,1,.1.59-.09,1.05-.74.92-1.32-.06-.25-.15-.49-.29-.7-.3-.45-.65-.85-1.07-1.2-.32-.26-.61-.56-.83-.92-.41-.67-.34-1.34.24-1.87.66-.61,1.34-1.21,2-1.82.05-.05.12-.08.13-.16-.06-.08-.15-.1-.22-.13-2.06-.94-4.19-1.54-6.47-1.63-1.01-.04-2.02-.03-3.02.13-.34.05-.68.12-1,.27.07.09.15.12.22.17.77.5,1.52,1.05,2.2,1.67.52.48,1.01.99,1.37,1.61.13.22.24.45.3.68Z" fill="#010101"/>
  <path d="M44.28,30.81c.52-1.61,1.05-3.22,1.57-4.86-1.38-1-2.75-2-4.17-3.03.38-.04.71-.02,1.04-.02.35,0,.69,0,1.04,0,.34,0,.67,0,1.01,0,.35,0,.69,0,1.04,0,.34,0,.67,0,1.04,0,.53-1.63,1.06-3.26,1.61-4.95.1.29.17.51.24.74.43,1.32.86,2.64,1.29,3.96q.08.25.35.25c1.52,0,3.03,0,4.55,0,.09,0,.19,0,.28,0,0,.02.01.04.02.06-1.36.99-2.73,1.98-4.12,3,.53,1.62,1.05,3.24,1.58,4.87-.05-.02,0,0-.03.02,0,0-.02,0-.02,0-1.37-.99-2.74-1.98-4.14-2.99-1.38,1-2.75,2-4.13,3-.02-.01-.03-.02-.05-.04Z" fill="#e6ae22"/>
  <path d="M70.78,71.46c-.25.15-.54.22-.8.33-.42.17-.84.33-1.23.55-.15.08-.24.05-.34-.06-.24-.25-.49-.49-.73-.73-.07-.07-.14-.14-.15-.24.07-.12.18-.22.28-.32.22-.2.45-.22.71-.07.05.03.1.07.15.11.56.49,1.2.61,1.91.45.07-.02.14-.04.21-.02Z" fill="#066534"/>
  <path d="M21.45,46.79c0,.14.08.21.15.29.36.45.21.88-.35,1.01-.19.05-.35-.01-.49-.13-.12-.1-.2-.22-.29-.34-.04-.06-.09-.12-.18-.07-.07.04-.08.11-.06.19.02.07.06.13.07.2.04.15.03.31-.1.42-.27.22-.58.35-.94.26-.4-.1-.6-.4-.69-.77-.05-.21-.05-.44,0-.66.07-.3.25-.5.56-.58.1-.02.23-.02.26-.15.02-.12-.09-.19-.17-.25-.3-.23-.41-.53-.29-.89.13-.38.39-.63.8-.68.37-.04.62.15.83.42.03.04.05.09.08.14.13.19.27.21.44.07.18-.15.37-.26.61-.31.32-.06.58.03.77.29.22.29.28.63.22.98-.06.36-.44.58-.86.52q-.23-.03-.39.03Z" fill="#eeedee"/>
  <path d="M20.84,61.11c-.1.09-.1.2-.04.31.03.06.08.12.11.18.09.2.08.39-.06.57-.45.59-1.36.54-1.76-.09-.16-.26-.19-.53-.07-.81.04-.1.1-.19.16-.27.26-.33.25-.41-.09-.66-.14-.11-.27-.23-.36-.38-.15-.25-.16-.51,0-.75.19-.29.44-.52.83-.46.21.03.38.14.53.28.07.06.13.12.2.18.08.06.16.11.26.06.05-.06.02-.12.01-.18-.07-.39.09-.76.4-.93.39-.21.79-.18,1.08.12.29.3.46.65.34,1.08-.11.4-.43.61-.84.56-.08,0-.16-.03-.24-.03-.07,0-.14.04-.16.12-.02.09.05.13.12.15.1.02.21.03.31.05.3.05.45.23.43.53-.01.31-.17.53-.45.66-.19.08-.3.06-.45-.09-.08-.08-.14-.18-.27-.2Z" fill="#eeedee"/>
  <path d="M35.01,26.23c.37-.76.84-1.03,1.36-.79.5.23.64.84.35,1.5.08.08.19.09.28.14.35.17.58.55.55.92-.01.18-.08.33-.18.46-.18.25-.42.43-.71.54-.2.07-.4.08-.57-.07-.16-.15-.19-.33-.12-.54.02-.07.03-.14.03-.21,0-.06-.04-.1-.09-.12-.06-.02-.11,0-.14.06-.04.07-.08.14-.12.2-.11.17-.25.29-.45.35-.25.07-.47-.05-.53-.3-.03-.13-.02-.26.02-.39.03-.1.04-.19.02-.29-.03-.14-.16-.17-.26-.07-.05.06-.09.13-.14.2-.1.16-.24.25-.42.3-.29.08-.52-.02-.68-.28-.25-.42-.22-.99.07-1.38.3-.4.72-.45,1.17-.38.18.03.36.08.55.16Z" fill="#eeedee"/>
  <path d="M23.4,39.4c.1-.06.19-.12.28-.17.32-.16.6-.11.84.15.52.55.49,1.31-.09,1.74-.27.2-.47.18-.68-.1-.05-.06-.09-.13-.16-.17-.07-.04-.14-.03-.2.03-.05.05-.06.11-.02.17.04.08.09.15.13.23.17.33.09.6-.23.78-.15.09-.31.13-.48.14-.38.03-.59-.15-.61-.53,0-.09,0-.18-.01-.26-.01-.09-.06-.15-.16-.13-.09.02-.12.1-.1.19,0,.03.02.05.03.08.09.36.03.47-.33.54-.27.05-.49-.02-.68-.21-.31-.31-.41-.7-.33-1.12.06-.3.27-.44.56-.49.1-.02.19-.02.29-.05.17-.05.22-.16.18-.33-.02-.08-.06-.15-.09-.22-.11-.25-.07-.49.09-.7.23-.3.52-.45.9-.4.29.04.51.18.6.49.06.22.07.22.27.37Z" fill="#eeedee"/>
  <path d="M21.58,64.7c.17,0,.33.05.49.1.2.07.26.03.32-.18.13-.46.6-.74,1.05-.63.52.12.69.64.64,1.03-.04.3-.3.51-.67.55-.1.01-.19,0-.28.07-.13.1-.13.21-.01.31.08.07.19.1.29.12.16.03.31.08.44.17.28.18.34.44.19.74-.17.33-.56.48-.9.34-.07-.03-.14-.08-.21-.11-.05-.03-.1-.04-.14,0-.04.04-.04.1-.02.15.02.04.05.07.07.11.17.31.07.67-.24.84-.43.24-.83.16-1.14-.21-.2-.24-.18-.49-.08-.75.04-.1.11-.18.15-.28.08-.16.05-.27-.11-.35-.06-.03-.12-.04-.17-.06-.73-.35-.91-1.16-.22-1.8.15-.14.35-.16.55-.15Z" fill="#eeedee"/>
  <path d="M25.81,58.21c-.16.06-.17.18-.2.29-.1.3-.25.38-.55.28-.34-.11-.54-.37-.56-.73-.02-.5.2-.85.61-.97.18-.06.35-.04.49.09.06.06.12.13.22.13.09-.06.11-.14.12-.23,0-.05,0-.11.01-.16.04-.51.3-.78.82-.83.35-.03.64.07.83.37.19.29.3.61.1.95-.04.06-.08.12-.04.2.07.08.16.04.24.03.44-.04.71.13.87.53.24.65-.2,1.31-.89,1.35-.27.02-.41-.07-.5-.33-.04-.12-.08-.24-.13-.35-.03-.07-.09-.14-.18-.12-.1.02-.11.11-.11.19,0,.11.02.21.03.32.04.34-.1.53-.44.58-.27.04-.51-.02-.73-.18-.21-.16-.27-.41-.17-.7.04-.13.11-.24.16-.37.04-.11.07-.22-.01-.33Z" fill="#eeedee"/>
  <path d="M19.5,54.15c-.1.07-.09.16-.09.25,0,.1.01.2,0,.29-.03.46-.44.77-.88.7-.04,0-.09-.02-.13-.03-.3-.07-.56-.2-.64-.53-.09-.34-.03-.65.22-.91.09-.09.19-.16.27-.25.18-.18.17-.32-.05-.44-.29-.15-.42-.4-.4-.72.02-.35.18-.63.47-.82.28-.19.64-.16.94.08.11.09.21.19.31.29.15.14.24.13.36-.04.03-.05.06-.11.08-.17.08-.2.25-.3.45-.32.18-.02.36,0,.52.07.35.13.53.48.43.84-.13.43-.24.54-.66.56-.04,0-.07,0-.11,0-.1.02-.19.08-.2.18-.01.09.07.14.14.17.07.04.14.07.21.11.31.17.3.46.17.68-.11.18-.27.31-.47.37-.24.07-.45,0-.63-.18-.09-.09-.15-.2-.31-.21Z" fill="#eeedee"/>
  <path d="M30.93,30.9c-.12.01-.14.1-.15.19-.03.16-.08.33-.18.47-.19.26-.59.33-.85.15-.11-.07-.15-.18-.15-.3,0-.15.02-.3.02-.45,0-.11.02-.23-.09-.32-.12,0-.16.09-.18.19-.02.11-.05.23-.1.33-.09.17-.23.24-.42.21-.41-.07-.66-.35-.66-.77,0-.35.11-.66.32-.94.23-.31.55-.43.93-.4.06,0,.12.02.18.03.09-.09.11-.2.16-.3.29-.54.86-.63,1.35-.44.2.07.3.24.36.43.05.19.05.38.04.58.1,0,.17-.02.24-.01.21.02.37.11.49.28.39.6.09,1.46-.58,1.69-.05.02-.1.02-.16.03-.27.02-.34-.04-.41-.3-.03-.12-.02-.27-.16-.34Z" fill="#eeedee"/>
  <path d="M25.44,35.69c-.09.02-.13.08-.18.13-.26.28-.65.28-.92.02-.36-.35-.49-1.15.24-1.49.16-.07.33-.12.5-.14.06-.12.06-.22.07-.33.02-.16.06-.31.13-.46.22-.5.62-.66,1.13-.54.31.07.48.28.55.58.04.17.06.35.04.52.09.07.18.03.27.04.61.01.97.49.82,1.08-.04.15-.09.29-.18.41-.2.28-.53.32-.78.09-.05-.05-.1-.11-.15-.15-.12-.09-.2-.05-.23.09-.02.12-.02.25-.05.37-.09.35-.57.57-.9.42-.13-.06-.16-.18-.19-.3-.03-.12-.02-.25-.16-.33Z" fill="#eeedee"/>
  <path d="M25.51,53.03c-.14.02-.17.12-.24.19-.17.17-.3.18-.5.06-.25-.16-.36-.42-.3-.74.13-.7.87-1.06,1.52-.74.09.04.17.1.25.14.11-.03.1-.13.13-.2.12-.28.34-.42.63-.41.79.03,1.13.54,1.09,1.16-.02.26-.13.46-.4.53-.07.02-.17.03-.18.13-.02.1.05.17.12.22.04.03.09.05.14.08.27.18.35.45.21.74-.2.43-.68.6-1.09.39-.25-.13-.32-.26-.27-.54.01-.09.04-.17.02-.26-.03-.09-.06-.18-.17-.17-.1,0-.16.07-.17.17,0,.03,0,.07,0,.11-.02.19-.1.34-.29.41-.22.07-.42.06-.6-.1-.21-.18-.31-.67,0-.86.09-.06.19-.14.13-.29Z" fill="#eeedee"/>
  <path d="M40.74,27.86c-.05-.1-.13-.11-.21-.13-.59-.17-.51-.83-.19-1.09.19-.15.41-.22.64-.21.52.04.89.28,1.03.8.01.04.02.08.03.13.16.02.3-.05.45-.07.61-.07,1.1.53.89,1.11-.06.16-.17.26-.32.34-.1.05-.21.1-.31.16-.13.08-.21.17-.17.35.03.12.02.25.01.37-.04.56-.43.86-.98.77-.1-.02-.21-.05-.3-.1-.33-.16-.41-.47-.18-.77.05-.07.12-.13.17-.2.07-.12.02-.22-.12-.22-.1,0-.21.02-.31.05-.26.08-.45,0-.61-.2-.15-.19-.16-.39-.02-.59.08-.11.18-.19.29-.27.08-.06.18-.11.21-.24Z" fill="#eeedee"/>
  <path d="M27.89,43.26c-.08-.03-.14.02-.2.05-.73.28-.93-.07-.98-.63-.04-.48.42-.98.91-1,.29-.01.48.14.64.37q.25.37.63.13c.29-.18.6-.16.86.07.18.17.29.38.33.62.03.2-.04.37-.17.51-.08.09-.17.15-.27.22-.24.16-.25.23-.08.47.05.07.09.13.13.2.12.24.1.46-.05.67-.15.21-.34.39-.59.48-.33.12-.71-.07-.8-.41-.06-.21-.01-.4.18-.54.08-.06.19-.1.17-.25-.14-.08-.25-.02-.34.09-.08.1-.15.19-.26.26-.26.15-.57.06-.71-.2-.16-.31-.06-.64.23-.76.09-.04.19-.05.28-.09.12-.06.12-.08.08-.25Z" fill="#eeedee"/>
  <path d="M29.54,64.49c-.14.02-.15.12-.18.2-.06.13-.12.26-.21.36-.17.19-.38.23-.61.16-.22-.06-.28-.25-.31-.45-.02-.16-.02-.32-.09-.44-.12-.03-.17.04-.23.09-.15.14-.32.25-.52.17-.23-.1-.38-.28-.43-.54-.05-.3.06-.54.31-.71.26-.19.57-.24.88-.25.04,0,.09,0,.12,0,.1-.1.05-.21.05-.31,0-.24.08-.45.25-.62.26-.28.62-.34.97-.18.3.14.44.4.42.82,0,.14-.04.28-.1.41-.03.06-.06.13-.03.2.06.05.14.03.2.03.61.06,1.16.7.68,1.4-.08.11-.16.21-.27.29-.24.18-.54.16-.76-.02-.09-.08-.11-.18-.11-.29,0-.18,0-.18-.06-.31Z" fill="#eeedee"/>
  <path d="M26.95,48.98c-.13-.03-.17.03-.2.11-.04.09-.07.18-.11.27-.08.18-.23.26-.43.25-.25-.02-.41-.16-.5-.37-.08-.2-.03-.38.12-.54.05-.05.11-.1.15-.15.05-.06.06-.14-.02-.19-.07-.05-.12,0-.16.05-.03.04-.05.09-.07.14-.08.22-.21.22-.38.18-.52-.12-.68-.53-.54-1.03.1-.37.41-.58.77-.57.17,0,.31.07.4.22,0,.01.02.03.03.05.19.28.27.28.48,0,.07-.09.14-.19.22-.27.25-.27.55-.29.88-.16.32.13.53.34.56.7.02.23-.03.44-.2.61-.04.04-.08.09-.12.14-.16.2-.14.26.08.38.26.14.35.29.32.57-.05.52-.46.88-.94.84-.41-.03-.77-.57-.44-.95.07-.08.15-.18.09-.32Z" fill="#eeedee"/>
  <path d="M30.48,38.68c-.08-.11-.2-.13-.33-.13-.11,0-.23.01-.35.01-.23,0-.33-.1-.36-.34-.07-.69.61-1.05,1.06-.93.33.09.6.24.72.6.06.18.11.2.3.16.1-.02.21-.04.32-.04.39,0,.6.17.71.58.09.33-.04.59-.37.77-.11.06-.23.09-.35.13-.18.07-.21.16-.11.33.25.42.22.73-.12,1.03-.34.31-.8.34-1.15.09-.34-.25-.33-.67,0-.91.01-.01.03-.02.04-.03.05-.05.12-.09.09-.17-.04-.1-.13-.08-.2-.06-.08.02-.15.06-.22.08-.18.06-.35.06-.49-.09-.14-.15-.2-.33-.12-.54.07-.19.21-.3.42-.32.09,0,.18-.01.26-.03.1-.03.21-.06.23-.19Z" fill="#eeedee"/>
  <path d="M40.01,31.93c.08.02.16.04.24.07.29.1.45.3.48.6.01.11,0,.23,0,.34,0,.35-.18.6-.63.64-.09,0-.17,0-.26.01-.02.02-.03.03-.03.05.01.52-.4.86-.93.77-.36-.06-.6-.28-.78-.58-.04-.06-.05-.13-.05-.2-.02-.21.04-.29.24-.35.11-.03.23-.03.29-.14,0-.09-.06-.12-.14-.13-.11-.02-.23-.04-.33-.09-.31-.13-.43-.45-.29-.75.05-.11.14-.18.27-.19.12,0,.25,0,.37,0,.11,0,.23.01.32-.09-.02-.13-.12-.14-.21-.16-.08-.01-.16-.03-.23-.06-.18-.09-.25-.21-.21-.41.07-.36.3-.55.66-.57.22,0,.42.04.62.13.39.18.61.47.58.92,0,.04,0,.09,0,.13,0,0,0,.02.02.04Z" fill="#eeedee"/>
  <path d="M34.67,35.7c-.08-.11-.17-.06-.25-.01-.1.05-.21.1-.32.12-.21.03-.42-.06-.5-.22-.08-.16-.04-.36.1-.51.12-.13.27-.19.45-.2.24-.01.35-.08.32-.19-.05-.18-.21-.11-.34-.12-.07,0-.14,0-.21,0-.28-.03-.43-.22-.39-.5.03-.22.14-.4.34-.51.52-.27,1.26-.24,1.49.52.05.16.13.19.27.18.11-.01.23-.02.34-.03.39-.04.63.12.74.48.11.38-.02.71-.35.88-.14.07-.28.09-.43.11-.25.03-.27.06-.29.29-.04.46-.2.67-.63.8-.13.04-.28.07-.42.08-.18.02-.35-.04-.49-.17-.13-.12-.2-.27-.15-.45.05-.18.14-.32.35-.36.09-.01.17-.03.26-.06.06-.02.11-.05.11-.13Z" fill="#eeedee"/>
  <path d="M36.37,55.48c.07-.09.16-.16.25-.21.12.03.21.1.31.16,1.37.79,2.74,1.58,4.11,2.36,1.51.87,3.01,1.74,4.52,2.6.93.54,1.87,1.06,2.8,1.6.12.07.2.06.3,0,1-.56,2.01-1.11,3.01-1.66,1.03-.57,2.06-1.14,3.09-1.71,1.1-.61,2.2-1.21,3.3-1.81.73-.4,1.47-.8,2.2-1.19.09-.05.17-.09.26-.14.11.04.19.1.28.22-3.35,1.89-6.69,3.77-10.08,5.68.17.07.24-.01.31-.06,1.01-.57,2.02-1.14,3.03-1.71,2.19-1.23,4.38-2.47,6.57-3.7.08-.04.15-.09.26-.15.28.34.34.73.31,1.17-3.6,1.97-7.2,3.94-10.83,5.92,2.19,1.35,4.36,2.69,6.55,4.04-.39.48-.76.93-1.13,1.39-.05.01-.1-.01-.16-.04-.32-.2-.64-.39-.97-.58-.73-.43-1.45-.85-2.18-1.28-.17-.1-.32-.25-.51-.33-.38-.16-.72-.4-1.07-.6-.15-.08-.3-.17-.43-.28-.11-.1-.28-.13-.42-.21-.49-.3-.99-.58-1.48-.87-.12-.07-.22-.08-.34,0-.47.3-.98.55-1.47.82-.46.25-.92.51-1.39.73-.29.14-.57.32-.86.48-.42.23-.84.45-1.25.68-.43.25-.87.49-1.31.72-.35.19-.68.4-1.07.55-.32-.41-.6-.85-.91-1.29.04-.06.08-.1.13-.13,1-.56,2-1.11,3-1.68,1.1-.62,2.2-1.24,3.3-1.86.07-.04.15-.08.25-.14-1.79-1.08-3.6-2.07-5.37-3.14-1.82-1.1-3.67-2.14-5.52-3.21.02-.41.19-.76.47-1.08,3.37,1.96,6.73,3.92,10.09,5.87.02-.04.03-.04.03-.05,0,0,0-.02,0-.02,0,0,0-.02-.01-.02,0,0,0-.02-.02-.02-.02-.02-.04-.03-.07-.04-3.3-1.93-6.6-3.85-9.9-5.78,0,0,0-.01-.02-.03Z" fill="#eeedee"/>
  <path d="M36.43,52.74c0-.21,3.17-9.8,3.5-10.58.15-.04.31-.02.46-.02,1.39.06,2.7.45,3.98.96,1.31.53,2.52,1.24,3.71,2,.07.04.13.1.2.14.09.05.12.12.11.22,0,.04,0,.07,0,.11,0,4.06,0,8.12,0,12.17v.17c-.11,0-.16-.08-.22-.14-1.27-1.13-2.62-2.14-4.09-2.99-1.53-.88-3.14-1.56-4.87-1.91-.84-.17-1.69-.16-2.54-.13-.07,0-.14,0-.21,0,0,0-.02,0-.02-.01Z" fill="#e6ae22"/>
  <path d="M60.58,52.68c-.05.05-.08.05-.12.05-1.58-.11-3.1.18-4.59.68-1.7.57-3.25,1.43-4.72,2.45-.78.55-1.51,1.15-2.22,1.79-.09.08-.18.16-.27.25-.08-.07-.05-.14-.05-.21,0-4.05,0-8.09,0-12.14,0-.16.04-.26.17-.35,1.9-1.36,3.96-2.38,6.26-2.85.27-.06.55-.08.83-.11.32-.03.64-.08.96-.09.08,0,.16-.01.26.03,1.16,3.49,2.33,7,3.5,10.5Z" fill="#e6ae22"/>
  <path d="M48.51,58.35c.34-.32.68-.65,1.05-.96,1.66-1.42,3.47-2.6,5.5-3.44,1.23-.51,2.5-.85,3.82-.98.47-.05.94-.07,1.41-.04.08,0,.16,0,.25.05-.12.79-.26,1.58-.45,2.34-.09.06-.18.03-.25.03-.71-.03-1.42.03-2.12.17-.89.18-1.76.44-2.6.81-.7.31-1.36.69-1.99,1.11-.95.63-1.78,1.41-2.55,2.25-.19.2-.35.42-.53.63-.08.1-.17.13-.3.13-.84,0-1.68,0-2.53,0-.14,0-.25-.04-.34-.16-.4-.53-.87-1-1.36-1.45-.42-.39-.87-.75-1.33-1.09-.42-.3-.85-.58-1.29-.85-.33-.2-.68-.34-1.03-.51-.6-.29-1.22-.51-1.86-.7-.28-.08-.57-.15-.86-.23-.3-.08-.61-.11-.92-.15-.24-.03-.48-.07-.71-.06-.27,0-.47-.15-.68-.27-.06-.03-.08-.09-.09-.16-.1-.63-.2-1.14-.3-1.75,0-.09.15-.11.23-.11.91-.05,1.8-.03,2.69.16,2,.44,3.81,1.3,5.52,2.41,1.2.78,2.32,1.66,3.37,2.63.06.05.12.11.18.16.01.01.03.01.06.02Z" fill="#e6ae22"/>
  <path d="M70.3,74.69c-.6.49-1.18.97-1.78,1.44-1.04.81-2.11,1.58-3.2,2.31-2.45,1.64-5.05,2.99-7.85,3.94-1.75.59-3.53,1.04-5.36,1.3-1.68.23-3.37.29-5.07.2-5.24-.29-9.98-2.04-14.37-4.84-.6-.38-1.18-.79-1.76-1.19-.34-.24-.71-.44-1.03-.71-.49-.4-1-.77-1.48-1.18-.34-.29-.69-.56-1.03-.85-.18-.15-.35-.32-.51-.47,0-.1.08-.09.11-.13.37-.58.93-.97,1.43-1.41,1.28-1.11,2.56-2.21,3.85-3.31.53-.46,1.13-.56,1.78-.32.28.1.52.25.74.45,1.83,1.64,3.84,2.98,6.12,3.91,1.03.42,2.1.68,3.19.88,1.07.2,2.15.37,3.23.46,1.14.1,2.28.11,3.43.03,2.62-.18,5.09-.94,7.46-2.03,1.21-.56,2.29-1.33,3.35-2.14.69-.53,1.36-1.08,2.02-1.64.49-.42.96-.42,1.45,0,.11.1.22.21.32.32,1.58,1.58,3.16,3.16,4.73,4.74.07.07.15.13.21.24Z" fill="#eeedee"/>
  <path d="M75.5,75.47c1.95.56,3.45,1.67,3.73,2.74-.41,0-.83-.01-1.24,0-1.78.06-3.47.46-4.98,1.46-.34.23-.71.4-1.08.57-.47.21-.95.37-1.47.44-.26.04-.52.01-.76-.05-.34-.09-.53-.39-.59-.72-.03-.18-.06-.36-.04-.55.04-.32.18-.59.35-.85.3-.43.65-.82,1.07-1.15.41-.33.73-.75.92-1.24.18-.46.12-.76-.18-1.18-.11-.15-.23-.29-.37-.41-.6-.55-1.21-1.1-1.81-1.65-.06-.06-.12-.12-.19-.19.09-.08.2-.12.3-.17,1.38-.65,2.84-1.09,4.34-1.38,1.4-.27,2.82-.28,4.24-.2.57.03,1.14.12,1.69.3.05.02.1.03.15.08-.05.07-.13.1-.2.15-.93.61-1.82,1.26-2.6,2.05-.44.45-.85.93-1.12,1.51-.07.14-.15.28-.16.44Z" fill="#eeedee"/>
  <path d="M21.59,75.49c-.06-.24-.18-.46-.3-.68-.36-.62-.85-1.13-1.37-1.61-.68-.62-1.42-1.17-2.2-1.67-.07-.05-.16-.08-.22-.17.32-.15.66-.21,1-.27,1-.16,2.01-.16,3.02-.13,2.27.09,4.41.69,6.47,1.63.08.04.17.06.22.13-.01.08-.08.11-.13.16-.67.61-1.34,1.21-2,1.82-.57.53-.65,1.21-.24,1.87.22.36.51.66.83.92.42.35.77.75,1.07,1.2.14.21.23.45.29.7.13.58-.33,1.24-.92,1.32-.34.05-.67,0-1-.1-.76-.2-1.46-.54-2.12-.97-1.09-.71-2.29-1.1-3.56-1.29-.84-.13-1.69-.13-2.55-.09-.04-.12.04-.19.08-.27.38-.7.94-1.24,1.61-1.66.6-.37,1.24-.65,1.93-.8.03,0,.07,0,.1-.06Z" fill="#eeedee"/>
  <path d="M47.81,62.3c-.38-.16-1.12-.62-1.22-.75.18,0,1.13.56,1.22.75Z" fill="#010101"/>
  <path d="M50.51,61.54s.02.06,0,.07c-.38.22-.75.44-1.13.66-.02.01-.05,0-.06-.03.14-.17,1.02-.68,1.2-.7Z" fill="#010101"/>
  <path d="M50.64,54.29c0-.21-.48-7.49-.49-7.9,0-.18.08-.29.21-.39.7-.55,1.49-.95,2.3-1.31.77-.34,1.57-.59,2.39-.79.21-.05.42-.12.65-.04.22.08.35.21.42.44.19.64.38,1.29.57,1.93.24.8.47,1.61.7,2.42.16.55.35,1.1.49,1.65.11.41.05.81-.27,1.13-.08.08-.18.14-.3.15-1.04.1-2.06.33-3.04.66-1.05.36-2.05.84-2.94,1.51-.2.16-.41.31-.58.5-.02.02-.05.06-.11.04ZM50.86,53.77c.1,0,.14-.06.2-.11.49-.38,1.01-.71,1.57-.99.87-.43,1.79-.76,2.73-.99.52-.13,1.05-.25,1.59-.28.13,0,.27-.02.39-.07.23-.11.41-.55.34-.81-.09-.35-.19-.7-.3-1.04-.14-.44-.23-.89-.36-1.33-.25-.8-.47-1.61-.71-2.42-.13-.46-.27-.92-.41-1.37-.07-.24-.15-.3-.4-.3-.17,0-.33,0-.5.05-.64.16-1.26.36-1.87.6-.92.37-1.81.8-2.6,1.41-.15.12-.2.24-.16.41.03.12.43,6.71.43,6.99,0,.08,0,.17.05.24Z" fill="#ad8b2f"/>
  <path d="M46.72,54.29c0-.21.48-7.49.49-7.9,0-.18-.08-.29-.21-.39-.7-.55-1.49-.95-2.3-1.31-.77-.34-1.57-.59-2.39-.79-.21-.05-.42-.12-.65-.04-.22.08-.35.21-.42.44-.19.64-.38,1.29-.57,1.93-.24.8-.47,1.61-.7,2.42-.16.55-.35,1.1-.49,1.65-.11.41-.05.81.27,1.13.08.08.18.14.3.15,1.04.1,2.06.33,3.04.66,1.05.36,2.05.84,2.94,1.51.2.16.41.31.58.5.02.02.05.06.11.04ZM46.5,53.77c-.1,0-.14-.06-.2-.11-.49-.38-1.01-.71-1.57-.99-.87-.43-1.79-.76-2.73-.99-.52-.13-1.05-.25-1.59-.28-.13,0-.27-.02-.39-.07-.23-.11-.41-.55-.34-.81.09-.35.19-.7.3-1.04.14-.44.23-.89.36-1.33.25-.8.47-1.61.71-2.42.13-.46.27-.92.41-1.37.07-.24.15-.3.4-.3.17,0,.33,0,.5.05.64.16,1.26.36,1.87.6.92.37,1.81.8,2.6,1.41.15.12.2.24.16.41-.03.12-.43,6.71-.43,6.99,0,.08,0,.17-.05.24Z" fill="#ad8b2f"/>
  <path d="M61.93,78.45c-.23.12-.43.23-.66.35-.54-.75-1.08-1.5-1.63-2.24l-.03.02c.42.8.84,1.61,1.27,2.43-.31.16-.61.32-.94.49-.72-1.37-1.43-2.73-2.15-4.11.46-.24.91-.48,1.39-.73.4.54.79,1.09,1.19,1.64,0,0,.02,0,.03-.01-.23-.62-.46-1.24-.7-1.89.46-.24.92-.48,1.4-.73.72,1.38,1.43,2.74,2.15,4.11-.32.17-.62.32-.94.49-.45-.85-.89-1.69-1.35-2.54.29.94.66,1.81.97,2.74Z" fill="#010101"/>
  <path d="M36.28,76.61c-.11-.06-.19-.11-.3-.17-.32.57-.63,1.12-.96,1.69-.35-.2-.69-.39-1.06-.59.76-1.35,1.51-2.7,2.28-4.05.36.2.69.39,1.06.59-.27.48-.53.96-.8,1.43.09.08.18.12.3.18.27-.48.53-.94.81-1.44.35.2.7.39,1.06.59-.76,1.35-1.51,2.69-2.28,4.05-.36-.2-.7-.39-1.06-.59.32-.57.63-1.12.95-1.7Z" fill="#010101"/>
  <path d="M47.2,81.91v-4.64c.63.01,1.24-.02,1.83.06.55.07.8.36.87.91.02.2.03.4,0,.61-.03.27-.16.44-.41.53-.03.01-.07,0-.09.04.02.09.11.08.17.11.2.1.33.24.37.46.08.48.08.95-.02,1.42-.06.28-.25.44-.54.48-.21.03-.42.04-.64.04-.47,0-.94,0-1.41-.01-.05,0-.11,0-.14-.01ZM48.39,81.11c.31,0,.36-.05.37-.32,0-.2,0-.41,0-.61,0-.3-.06-.34-.38-.31v1.24ZM48.41,79.1c.31,0,.35-.02.37-.29,0-.14.02-.28,0-.42-.02-.26-.07-.29-.37-.28v.99Z" fill="#010101"/>
  <path d="M52.37,77.03c.63-.15,1.23-.32,1.84-.4.39-.05.7.11.88.45.15.27.21.56.26.86.05.31,0,.59-.34.71.01.09.08.07.12.08.29.05.46.23.53.5.12.45.22.91.34,1.36.02.09.04.19.07.31-.35.12-.7.17-1.05.26-.08-.04-.08-.12-.09-.19-.1-.44-.21-.88-.32-1.31-.02-.08-.04-.15-.06-.23-.08-.23-.11-.24-.4-.2.16.67.31,1.33.48,2.02-.39.09-.76.18-1.18.28-.36-1.5-.72-2.99-1.08-4.51ZM53.74,77.53c.09.33.14.66.24.97.3-.06.29-.17.26-.36-.02-.13-.05-.26-.09-.39-.07-.24-.11-.26-.42-.22Z" fill="#010101"/>
  <path d="M32.53,76.55c.23-.58.46-1.15.68-1.71,0,0-.02-.01-.03-.02-.35.48-.69.96-1.05,1.45-.33-.24-.65-.46-.99-.7.9-1.26,1.79-2.5,2.7-3.78.33.24.65.46.99.71-.32.45-.64.89-.96,1.34,0,0,.02.02.02.03.45-.35.9-.7,1.36-1.05.3.22.6.43.92.66-.16.12-.29.21-.43.31-.39.29-.78.58-1.18.86-.13.09-.2.21-.25.35-.24.7-.48,1.4-.73,2.1-.02.05-.04.1-.07.18-.34-.24-.67-.47-1.02-.72Z" fill="#010101"/>
  <path d="M63.02,72.32c1.06,1.16,2.1,2.31,3.16,3.48-.34.23-.67.45-1.01.68-.21-.18-.33-.43-.53-.62-.14.04-.23.14-.36.21.14.25.26.49.4.74-.35.23-.68.46-1.04.69-.7-1.41-1.38-2.8-2.07-4.2.49-.33.96-.65,1.46-.97ZM63.06,73.84c.21.53.46,1.03.75,1.53.13-.07.23-.13.32-.22-.36-.44-.72-.87-1.07-1.31Z" fill="#010101"/>
  <path d="M55.52,76.19c.55-.2,1.08-.4,1.64-.61.76,1.37,1.5,2.73,2.27,4.11-.39.15-.76.28-1.14.43-.16-.23-.22-.5-.37-.74-.13.02-.25.08-.38.13.03.28.15.52.19.81-.37.15-.75.3-1.16.43-.35-1.52-.69-3.03-1.04-4.55ZM57.59,78.6c-.26-.53-.5-1.04-.75-1.54.1.57.21,1.13.39,1.68.13-.05.23-.09.36-.14Z" fill="#010101"/>
  <path d="M42.92,76.48c-.25,1.54-.51,3.06-.76,4.61-.41-.09-.77-.25-1.17-.35.02-.28.13-.53.17-.8-.1-.09-.24-.09-.37-.15-.15.24-.21.51-.35.76-.4-.13-.79-.25-1.19-.38.67-1.42,1.34-2.81,2.01-4.23.56.18,1.1.35,1.67.53ZM41.77,77.35c-.29.54-.52,1.08-.76,1.63.13.05.24.11.38.11.12-.58.25-1.14.37-1.74Z" fill="#010101"/>
  <path d="M45.76,78.52c-.36-.07-.71-.14-1.08-.21.03-.17.06-.33.09-.48.02-.11,0-.22-.13-.25-.13-.03-.2.05-.24.16-.1.29-.11.54.14.75.18.16.35.33.52.49.41.38.58.83.47,1.39-.04.22-.08.43-.16.64-.09.24-.25.41-.49.49-.65.21-1.24.1-1.77-.32-.21-.17-.33-.39-.31-.67,0-.17,0-.34.03-.5.02-.14.03-.28.1-.42.36.03.71.13,1.07.19,0,.23-.07.44-.1.64-.04.23,0,.32.13.35.15.04.25-.04.3-.26.08-.31.08-.61-.2-.85-.2-.17-.37-.38-.56-.56-.35-.32-.44-.71-.38-1.16.03-.2.08-.4.15-.59.11-.31.34-.5.65-.56.54-.1,1.06,0,1.52.31.29.19.41.45.37.79-.03.21-.03.42-.12.63Z" fill="#010101"/>
  <path d="M50.18,77.27c.69-.08,1.34-.15,2-.23.04.32.07.61.1.92-.27.04-.53.07-.78.1.01.29.05.56.09.83.24.04.48-.05.74-.05.03.29.07.57.1.87-.26.03-.49.07-.74.1.04.34.08.66.12,1,.29-.03.57-.06.86-.09.07.3.08.6.12.92-.69.08-1.37.16-2.08.24-.18-1.54-.35-3.07-.53-4.61Z" fill="#010101"/>
  <path d="M63.65,71.9c.32-.25.63-.49.96-.74.76.98,1.51,1.95,2.27,2.93.2-.15.38-.29.58-.44.19.24.37.48.57.74-.51.4-1.02.79-1.54,1.19-.95-1.23-1.88-2.44-2.84-3.68Z" fill="#010101"/>
  <path d="M39.21,79.16c-.13.28-.24.55-.37.84-.59-.26-1.17-.51-1.78-.78.63-1.42,1.25-2.83,1.87-4.25.38.17.74.33,1.11.49-.5,1.13-.99,2.25-1.49,3.37.19.14.43.19.66.33Z" fill="#010101"/>
  <path d="M32.72,70.8c.31.27.61.53.92.8-1.02,1.17-2.03,2.33-3.05,3.5-.31-.27-.6-.52-.92-.79,1.01-1.17,2.02-2.32,3.05-3.51Z" fill="#010101"/>
  <path d="M45.39,51.49c-.24.05-.42.02-.56-.15-.08-.1-.2-.11-.32-.1-.21,0-.41-.01-.57-.17-.07-.07-.16-.06-.25-.05-.16.02-.32.02-.42-.14-.05-.08-.14-.06-.22-.06-.11,0-.21.01-.32,0-.18,0-.34-.06-.47-.2-.12-.13-.27-.23-.48-.24-.17,0-.33-.1-.51-.1-.04,0-.09-.05-.12-.09-.1-.12-.22-.13-.36-.09-.04.02-.01-.05,0-.01,0,0,.01.01.01,0,.13-.1.26-.09.39.02.06.06.13.08.22.08.36,0,.72.07,1,.32.18.16.39.2.62.13.14-.05.26-.02.36.09.09.11.2.16.35.13.12-.03.23.02.31.11.11.11.24.15.38.15.21,0,.4.05.53.24.09.13.25.11.42.14Z" fill="#010101"/>
  <path d="M41.66,46.92c.12-.02.24-.05.36-.08.15-.03.3-.03.41.11.09.12.21.15.35.14.16-.02.3,0,.41.14.07.08.17.08.27.08.26,0,.49.07.62.32.04.08.12.09.2.09.16,0,.29.07.4.18.1.12.23.16.38.11.22-.06.4,0,.54.18.1.13.21.24.39.23.09,0,.16.06.22.12-.08-.04-.16-.08-.25-.07-.18.02-.31-.06-.42-.19-.13-.15-.27-.21-.47-.14-.19.07-.35.02-.48-.12-.11-.11-.23-.16-.38-.16-.11,0-.22-.03-.27-.14-.1-.22-.29-.27-.5-.28-.16,0-.3-.03-.4-.16-.08-.09-.19-.09-.29-.08-.16,0-.3-.04-.39-.18-.08-.12-.2-.15-.32-.13-.12.02-.24.02-.37,0Z" fill="#010101"/>
  <path d="M45.67,50.07c-.06-.01-.11-.05-.17-.04-.19.02-.37,0-.5-.17-.05-.07-.15-.04-.23-.03-.13,0-.25,0-.33-.11-.06-.07-.13-.08-.21-.06-.19.05-.35,0-.45-.18-.08-.14-.21-.15-.34-.15-.19,0-.37-.01-.49-.19-.05-.08-.14-.06-.22-.05-.2.03-.35-.03-.47-.19-.11-.14-.24-.19-.41-.2-.29-.01-.55-.12-.75-.29.29.13.57.19.86.18.13,0,.25.03.33.13.14.16.29.24.51.2.11-.02.22,0,.28.11.07.11.17.12.28.12.25,0,.48.04.61.29.04.09.13.08.21.06.16-.03.3-.02.4.13.05.07.13.08.22.07.15-.01.28.01.37.15.05.08.13.11.23.1.11,0,.21.02.29.11Z" fill="#010101"/>
  <path d="M46.28,46.84c-.25-.02-.46-.07-.62-.24-.09-.09-.21-.13-.34-.13-.17,0-.34-.02-.5-.07-.18-.05-.27-.23-.42-.31-.15-.08-.35-.04-.48-.2-.07-.09-.17-.11-.29-.11-.17,0-.34-.03-.46-.16-.01-.01-.03-.03-.04-.03-.27,0-.5-.12-.74-.23-.02,0-.05,0-.05,0,.05-.06.14-.07.23,0,.14.1.28.12.45.1.07-.01.16.01.22.07.11.1.25.11.4.12.04,0,.1-.02.13,0,.26.15.58.21.81.4.19.15.37.27.61.28.25.02.46.09.63.29.11.13.29.17.47.24Z" fill="#010101"/>
  <path d="M54.48,49.07c-.06.19-.22.22-.38.21-.21,0-.38.02-.5.23-.07.13-.21.16-.35.11-.11-.04-.2-.02-.28.08-.07.09-.18.11-.29.09-.13-.02-.24,0-.33.11-.07.09-.16.1-.26.09-.11-.02-.21,0-.31.04.05-.03.09-.08.14-.08.2,0,.36-.05.47-.23.25-.04.5-.1.71-.26.03-.02.11,0,.16,0,.13.04.2-.01.26-.12.09-.16.24-.23.42-.23.18,0,.35,0,.47-.18.06-.08.18-.09.27-.06.17.04.29,0,.4-.13.12-.15.28-.21.47-.2.15.01.3-.04.45-.06.15-.02.27-.12.41-.16-.32.24-.39.27-.87.33-.13.02-.25.05-.33.15-.16.22-.38.27-.63.26-.03,0-.07,0-.11,0Z" fill="#010101"/>
  <path d="M51.27,48.5c.03-.05.07-.06.1-.07.23-.02.39-.14.52-.32.1-.14.26-.19.43-.13.18.06.33.03.45-.12.1-.11.23-.17.38-.17.08,0,.16,0,.2-.09.12-.25.35-.31.6-.32.14,0,.26-.02.36-.14.08-.1.21-.09.32-.08.15.01.27-.01.38-.14.11-.14.27-.15.44-.1.12.03.24.11.37.06-.12.06-.25.03-.38.02-.16-.02-.3,0-.39.16-.08.14-.23.16-.37.15-.13,0-.24.01-.33.13-.06.08-.16.1-.26.11-.25.02-.5.05-.62.32-.03.08-.12.1-.21.1-.17,0-.31.06-.43.18-.13.13-.29.16-.46.1-.15-.05-.3-.06-.41.08-.15.19-.34.27-.58.26-.03,0-.07.01-.1.02Z" fill="#010101"/>
  <path d="M56.69,50.07c-.19-.03-.36-.04-.48.14-.02.02-.06.05-.09.04-.21-.05-.38.13-.59.1-.07,0-.13.04-.19.09-.07.06-.14.1-.21.15-.22.19-.46.26-.73.18-.12-.03-.2-.01-.28.08-.1.11-.23.16-.38.13-.11-.02-.21,0-.29.08-.12.11-.26.14-.42.13-.19-.01-.37.02-.5.18-.07.08-.16.1-.26.09-.07,0-.15-.04-.22,0,.06-.04.11-.06.17-.06.12,0,.21-.04.27-.13.11-.15.26-.21.44-.21.18,0,.35-.03.48-.18.08-.08.19-.1.3-.08.13.02.24-.01.33-.12.1-.11.21-.15.37-.1.18.06.37.04.54-.11.3-.27.68-.35,1.08-.35.04,0,.09,0,.13-.02q.26-.14.55-.06Z" fill="#010101"/>
  <path d="M55.18,45.35c-.18-.03-.29,0-.38.09-.02.02-.06.06-.09.06-.36-.06-.62.29-.98.25-.26.14-.55.23-.78.39-.22.16-.43.28-.69.28-.22,0-.41.06-.58.22-.13.13-.31.16-.48.15.2-.07.4-.17.55-.35.06-.08.16-.11.26-.13.11-.02.23-.04.34-.05.17-.02.32-.08.44-.22,0,0,.01-.01.02-.02.11-.19.34-.12.49-.22.15-.1.28-.23.49-.21.14.01.28-.01.4-.12.03-.03.08-.06.12-.06.22,0,.43,0,.63-.13.06-.04.13.02.24.07Z" fill="#010101"/>
</svg>