<?xml version="1.0" encoding="UTF-8"?>
<svg id="Layer_1" data-name="Layer 1" xmlns="http://www.w3.org/2000/svg" xmlns:xlink="http://www.w3.org/1999/xlink" viewBox="0 0 195.71 38.35">
  <defs>
    <linearGradient id="linear-gradient" x1="98.04" y1="38.35" x2="98.04" y2="-.06" gradientTransform="translate(0 38.46) scale(1 -1)" gradientUnits="userSpaceOnUse">
      <stop offset=".25" stop-color="#0b83b6"/>
      <stop offset=".4" stop-color="#0e7dac"/>
      <stop offset=".65" stop-color="#076694"/>
      <stop offset=".95" stop-color="#0e426b"/>
      <stop offset="1" stop-color="#153c62"/>
    </linearGradient>
  </defs>
  <path d="M126.85,8.32l-2.71,2.71,2.71,2.71,2.71-2.71-2.71-2.71ZM101.52,8.32l-2.71,2.71,2.71,2.71,2.71-2.71-2.71-2.71ZM63.91,29.61l-2.47,2.47-2.47-2.47-2.71,2.71,2.71,2.71,2.47-2.47,2.47,2.47,2.71-2.71-2.71-2.71ZM108.43,16.71v6.93h-4.97v-6.91h-3.87v10.62c-.09,5.19-1.86,6.7-3.31,8.33l2.57,2.67c1.72-1.58,4.5-4.38,4.62-11h14.27c1.45,0,4.33-2.43,4.33-5.07v-5.57h-13.63ZM118.17,22.28c-.23.58-.65,1.06-1.2,1.35h-4.6v-3.02h5.8v1.67ZM83.11,16.71v6.92h-3.48v-4.15l-5.34-5.34-5.34,5.36v4.13H4.07V6.87l1.63-1.63,1.63,1.63v13.74h3.71V5.34L5.7,0,.36,5.34v21.99h72.3v-6.3l1.63-1.63,1.63,1.63v6.31h16.47c1.45,0,4.33-2.43,4.33-5.06v-5.57h-13.61ZM92.82,22.28c-.23.57-.65,1.05-1.2,1.35h-4.6v-3.02h5.8v1.67ZM190.37,0l-5.34,5.34v18.3h-56.24v-6.92h-3.87v10.17c0,5.55-1.82,7.09-3.32,8.77l2.57,2.67c1.72-1.58,4.5-4.38,4.61-11h59.95V6.87l1.63-1.63,1.63,1.63v20.38h3.71V5.34l-5.34-5.34Z" fill="url(#linear-gradient)"/>
</svg>