<?xml version="1.0" encoding="UTF-8"?>
<svg id="Layer_1" data-name="Layer 1" xmlns="http://www.w3.org/2000/svg" xmlns:xlink="http://www.w3.org/1999/xlink" viewBox="0 0 470.2 411.5">
  <defs>
    <linearGradient id="linear-gradient" x1="235.1" y1="24.73" x2="235.1" y2=".93" gradientTransform="translate(0 412.11) scale(1 -1)" gradientUnits="userSpaceOnUse">
      <stop offset="0" stop-color="#e5be6b"/>
      <stop offset="1" stop-color="#9c762f"/>
    </linearGradient>
    <linearGradient id="linear-gradient-2" x1="242.89" y1="413.75" x2="242.89" y2="188.14" gradientTransform="translate(0 412.11) scale(1 -1)" gradientUnits="userSpaceOnUse">
      <stop offset=".25" stop-color="#0b83b6"/>
      <stop offset=".4" stop-color="#0e7dac"/>
      <stop offset=".65" stop-color="#076694"/>
      <stop offset=".95" stop-color="#0e426b"/>
      <stop offset="1" stop-color="#153c62"/>
    </linearGradient>
    <linearGradient id="linear-gradient-3" x1="235.1" y1="125.24" x2="235.1" y2="32.78" xlink:href="#linear-gradient-2"/>
    <linearGradient id="linear-gradient-4" x1="235.07" y1="317.05" x2="235.07" y2="111.28" xlink:href="#linear-gradient"/>
  </defs>
  <g id="Layer_2" data-name="Layer 2">
    <g id="Layer_1-2" data-name="Layer 1-2">
      <path d="M466.78,391.33v8.83c0,2.25.28,4.82.46,6.91h-.12l-2.1-4.35-6.29-11.39h-3.71v20.18h3.44v-8.87c0-2.25-.29-4.66-.46-6.84h.12l2.1,4.35,6.29,11.4h3.7v-20.22h-3.42ZM437.79,403.29v2.82h9.54v-2.82h-9.54ZM444.7,391.33h-4.22l-6.64,20.26h3.66l1.59-5.49.8-2.82.72-2.47c.65-2.15,1.24-4.45,1.8-6.69h.16c.6,2.23,1.2,4.51,1.84,6.69l.71,2.47.8,2.82,1.58,5.49h3.8l-6.61-20.26ZM423.72,400.63v2.95h3.82v4.35c-.83.62-1.85.93-2.89.89-4.03,0-6.21-2.88-6.21-7.42s2.42-7.34,6.01-7.34c1.56-.02,3.04.62,4.09,1.76l1.92-2.32c-1.58-1.64-3.76-2.57-6.04-2.54-5.39,0-9.6,3.95-9.6,10.58l-.03-.04c0,6.71,4.08,10.49,9.5,10.48,2.39.07,4.71-.79,6.47-2.41v-8.92h-7.03ZM405.91,391.33v8.83c0,2.25.29,4.82.47,6.91h-.13l-2.1-4.35-6.29-11.39h-3.68v20.18s3.41,0,3.41,0v-8.87c0-2.25-.28-4.66-.46-6.84h.12l2.1,4.35,6.29,11.4h3.7v-20.22h-3.42ZM384.03,391.33v20.22h3.6v-20.22h-3.6ZM374.03,391.33v8.83c0,2.25.29,4.82.47,6.91h-.13l-2.1-4.35-6.29-11.39h-3.69v20.18s3.4,0,3.4,0v-8.87c0-2.25-.28-4.66-.46-6.84h.13l2.1,4.35,6.29,11.4h3.7v-20.22h-3.42ZM352.39,391.33v11.65c0,4.41-1.75,5.86-4.2,5.86s-4.1-1.45-4.1-5.86v-11.65h-3.6v11.34c0,6.65,3.09,9.3,7.74,9.3s7.61-2.61,7.61-9.26v-11.38h-3.46ZM329.87,399.24l6.24-7.91h-3.99l-7.22,9.21h-.1v-9.21h-3.6l.04,20.26h3.6v-5.9l2.91-3.62,5.44,9.52h3.97l-7.29-12.35ZM303.49,391.33v20.22h3.6v-20.22h-3.6ZM292.84,391.33l-3.51,9.9c-.45,1.29-.83,2.65-1.27,3.98h-.1c-.45-1.33-.86-2.68-1.3-3.98l-3.59-9.9h-4.07l-.05,20.22h3.26v-9.26c0-1.88-.28-4.57-.46-6.45h.12l1.61,4.71,3.35,9.1h2.17l3.34-9.1,1.63-4.71h.13c-.17,1.88-.46,4.57-.46,6.45v9.26h3.26v-20.22h-4.07ZM261.78,403.29v2.82h9.54v-2.82h-9.54ZM268.69,391.33h-4.21l-6.61,20.26h3.66l1.59-5.49.82-2.82.72-2.47c.64-2.15,1.24-4.45,1.79-6.69h.12c.6,2.23,1.2,4.51,1.84,6.69l.71,2.47.8,2.82,1.58,5.49h3.8l-6.61-20.26ZM245.67,408.58l9.78-15.08v-2.17h-13.37v3.03h8.88l-9.78,15.08v2.16h14.38v-3.02h-9.89ZM231.89,391.33l-3.51,9.9c-.45,1.29-.83,2.65-1.27,3.98h-.13c-.45-1.33-.85-2.68-1.29-3.98l-3.59-9.9h-4.07l-.03,20.22h3.26v-9.26c0-1.88-.28-4.57-.46-6.45h.12l1.61,4.71,3.35,9.1h2.17l3.34-9.1,1.63-4.71h.13c-.17,1.88-.46,4.57-.46,6.45v9.26h3.26v-20.22h-4.07ZM200.81,403.29v2.82h9.54v-2.82h-9.54ZM207.72,391.33h-4.21l-6.64,20.26h3.66l1.59-5.49.82-2.82.72-2.47c.64-2.15,1.24-4.45,1.79-6.69h.15c.6,2.23,1.2,4.51,1.84,6.69l.71,2.47.8,2.82,1.58,5.49h3.8l-6.61-20.26ZM184.65,408.58l9.78-15.08v-2.17h-13.34v3.03h8.89l-9.78,15.08v2.16h14.37v-3.02h-9.92ZM160.6,408.57v-17.24h-3.6l.05,20.26h11.96v-3.02h-8.41ZM139.77,403.29v2.82h9.54v-2.82h-9.54ZM146.68,391.33h-4.21l-6.6,20.22h3.64l1.58-5.45.8-2.82.73-2.51c.64-2.15,1.24-4.45,1.79-6.69h.12c.6,2.23,1.2,4.51,1.84,6.69l.72,2.51.8,2.82,1.57,5.45h3.8l-6.59-20.22ZM120.95,391.33v8.83c0,2.25.28,4.82.46,6.91h-.13l-2.09-4.35-6.31-11.39h-3.69v20.18s3.4,0,3.4,0v-8.87c0-2.25-.28-4.66-.46-6.84h.13l2.09,4.35,6.29,11.4h3.71v-20.22h-3.41ZM91.96,403.29v2.82h9.54v-2.82h-9.54ZM98.92,391.33h-4.25l-6.62,20.22h3.69l1.58-5.45.8-2.82.73-2.51c.64-2.15,1.24-4.45,1.79-6.69h.09c.59,2.23,1.19,4.51,1.83,6.69l.72,2.51.8,2.82,1.57,5.45h3.8l-6.52-20.22ZM81.53,400.44l-2.65-1.15c-1.72-.7-3.26-1.39-3.26-2.87s1.25-2.38,3.17-2.38c1.62.02,3.16.65,4.35,1.75l1.84-2.28c-1.66-1.64-3.9-2.54-6.24-2.53-3.96,0-6.81,2.46-6.81,5.72,0,2.96,2.1,4.54,4.1,5.37l2.77,1.21c1.84.8,3.14,1.4,3.14,2.98s-1.25,2.61-3.53,2.61c-1.98-.09-3.86-.9-5.27-2.3l-2.08,2.43c1.96,1.88,4.57,2.92,7.28,2.91,4.55,0,7.28-2.76,7.28-6.02,0-2.91-1.68-4.44-4.1-5.44ZM71.04,408.96v.04l.02-.02s-.01-.01-.02-.02ZM55,403.29v2.82h9.54v-2.82h-9.54ZM61.96,391.33h-4.25l-6.62,20.22h3.69l1.58-5.45.8-2.82.73-2.51c.64-2.15,1.24-4.45,1.79-6.69h.08c.6,2.23,1.2,4.51,1.84,6.69l.72,2.51.8,2.82,1.57,5.45h3.8l-6.52-20.22ZM46.59,391.33l-2.17,5.19c-.59,1.5-1.23,2.91-1.87,4.46h-.12c-.64-1.54-1.21-2.96-1.8-4.46l-2.17-5.19h-3.84l6.1,12.73-.07,7.53h3.59v-7.53l6.1-12.73h-3.74ZM20.4,403.29v2.82h9.53v-2.82h-9.53ZM27.32,391.33h-4.22l-6.61,20.26h3.67l1.59-5.49.8-2.82.72-2.47c.64-2.15,1.24-4.45,1.79-6.69h.13c.6,2.23,1.18,4.51,1.84,6.69l.71,2.47.8,2.82,1.58,5.49h3.8l-6.61-20.26ZM11.99,391.33l-2.17,5.19c-.59,1.5-1.23,2.91-1.86,4.46h-.13c-.63-1.54-1.21-2.96-1.8-4.46l-2.17-5.19H0l6.1,12.69v7.53h3.6v-7.53l6.04-12.69h-3.75Z" fill="url(#linear-gradient)"/>
      <path d="M330.02,182.91s.05.03.09.04v-.04h-.09ZM299.53,160.48c-1.55,5.88-4.5,8.83-8.85,8.83h-26.15c6.09-11.28,22.18-16.92,48.26-16.92v-39h-65.58c15.1,6.03,25.3,13.27,30.58,21.74,1.78-5.64,4.61-8.47,8.48-8.47h12.88v12.5c-7.75.09-15.45,1.34-22.83,3.69-19.4,7.42-29.11,20.06-29.11,37.9v2.17h82.81c-15.97-7.54-26.14-15.01-30.49-22.44ZM260.18,223.69s.04.02.07.03v-.04h-.07ZM242.01,185.47V0c-5.69,15.38-13.58,25.95-23.66,31.69,6.21,4.05,9.32,9.47,9.32,16.23v134c-.1,6.66.83,13.32,2.72,19.71,5.16,15.22,13.17,22.83,24.04,22.83l5.75-.76c-12.11-5.62-18.16-18.36-18.16-38.22ZM215.79,168.65v-54.51l-6.2,3.09c-13.45,4.89-22.24,8.37-26.38,10.44-18.36,8.24-27.53,26.65-27.53,55.25h69.04v-14.26h-8.92ZM201.44,168.61h-29.48c1.49-7.14,3.43-12.41,5.83-15.84,3.74-5.66,11.62-10.82,23.65-15.46v31.3Z" fill="url(#linear-gradient-2)"/>
      <path d="M304.45,306.63l-6.52,6.52,6.52,6.52,6.52-6.52-6.52-6.52ZM243.49,306.63l-6.52,6.52,6.52,6.52,6.52-6.52-6.52-6.52ZM152.95,357.88l-5.95,5.95-5.94-5.95-6.52,6.52,6.52,6.52,5.94-5.94,5.95,5.94,6.52-6.52-6.52-6.52ZM260.12,326.82v16.67h-11.96v-16.62h-9.32v25.56c-.22,12.49-4.48,16.12-7.98,20.04l6.19,6.44c4.14-3.79,10.84-10.54,11.11-26.48h34.35c3.5,0,10.42-5.86,10.42-12.2v-13.41h-32.82ZM283.55,340.24c-.54,1.39-1.58,2.55-2.89,3.26h-11.08v-7.27h13.97v4.01ZM199.18,326.84v16.66h-8.37v-9.98l-12.85-12.85-12.85,12.89v9.94H8.92v-40.35l3.92-3.92,3.92,3.92v33.08h8.92v-36.77l-12.85-12.85-12.85,12.85v52.93h174.03v-15.15l3.92-3.92,3.91,3.92v15.2h39.64c3.5,0,10.42-5.85,10.42-12.19v-13.4h-32.76ZM222.55,340.24c-.57,1.38-1.58,2.53-2.89,3.26h-11.08v-7.27h13.97v4.01ZM457.34,286.6l-12.85,12.85v44.05h-135.36v-16.66h-9.3v24.48c0,13.36-4.39,17.08-7.99,21.11l6.19,6.44c4.13-3.79,10.83-10.53,11.1-26.48h144.29v-49.23l3.92-3.92,3.91,3.92v49.05h8.94v-52.74l-12.85-12.85Z" fill="url(#linear-gradient-3)"/>
      <path d="M404.54,151.2c-2,.86-4.16,1.78-6.12,2.83-1.02.53-2.01,1.13-2.96,1.78.24-.71.47-1.42.71-2.17.49-1.51,1.09-3,1.42-4.54.76-2.85,1.59-5.69,2.17-8.58,1.05-.49,2-1.16,2.83-1.97,1.24-1.2,2.21-2.67,2.83-4.28.69-1.75,1.18-3.57,1.47-5.44.23-2,.29-4.01.18-6.01-.05-1.01-.1-2.02-.25-3.02s-.34-1.98-.53-2.95c-.36-1.84-.82-3.65-1.39-5.44-.87-2.53-1.94-4.98-3.18-7.35-1.08,2.39-2.02,4.83-2.83,7.33-.53,1.58-1.2,3.26-1.72,5.01-.27.88-.52,1.77-.75,2.66-.23.89-.53,1.79-.76,2.7-.46,1.79-.8,3.6-1.01,5.44-.46,2.52-.41,5.11.15,7.61.15.78.38,1.54.68,2.27.44,1.05,1.03,2.03,1.75,2.9-.63,2.82-1.51,5.58-2.32,8.34-.4,1.51-.98,2.96-1.49,4.44-.25.68-.5,1.38-.74,2.07-.35-1.08-.78-2.12-1.27-3.14-.94-1.94-2.1-3.76-3.45-5.44-2.05-2.65-4.42-5.04-7.03-7.13-.27,1.72-.37,3.47-.32,5.21.05,1.15,0,2.37.11,3.65.08,1.34.24,2.68.48,4,.13.68.27,1.36.4,2.04.13.68.32,1.34.52,2,.39,1.31.92,2.58,1.59,3.77,1.14,2.04,2.82,3.73,4.85,4.89l-.49,1.01-2.02,4.21c-.33.71-.71,1.39-1.09,2.07l-1.09,2.05-1.09,2.05-.67,1.22c-.2-1.1-.47-2.19-.82-3.26-.71-2.22-1.63-4.36-2.74-6.4-1.76-3.2-3.89-6.18-6.35-8.88-.24.71-.44,1.44-.61,2.17-.1.46-.21.96-.29,1.5s-.18,1.09-.3,1.7c-.24,1.28-.42,2.56-.53,3.86-.11,1.38-.14,2.85-.17,4.29-.01,1.48.09,2.97.32,4.44.22,1.48.59,2.94,1.09,4.35.85,2.34,2.31,4.41,4.24,5.98l-1.92,2.84-2.78,3.75c-.93,1.24-1.83,2.51-2.84,3.7l-.41.5c-.02-1.13-.12-2.26-.3-3.37-.43-2.48-1.1-4.91-1.99-7.26-1.36-3.69-3.16-7.2-5.36-10.46-.83,1.77-1.56,3.58-2.17,5.44-.86,2.77-1.53,5.61-1.98,8.48-.22,1.57-.32,3.16-.29,4.75,0,1.59.16,3.18.51,4.74.57,2.59,1.8,4.99,3.57,6.97l-.71.78-3.26,3.35-1.62,1.67c-.55.54-1.09,1.09-1.7,1.61l-1.58,1.57c.28-3.82-.05-7.66-.99-11.38-.55-2.38-1.25-4.73-2.1-7.02-.61-1.65-1.32-3.27-2.11-4.85-.38.52-.8,1.3-1.35,2.17s-1.09,1.99-1.71,3.26c-1.33,2.77-2.42,5.65-3.26,8.61-.43,1.62-.76,3.27-.98,4.94-.21,1.7-.23,3.42-.05,5.12.24,2.78,1.18,5.46,2.72,7.79l-2.61,2.11c-.61.48-1.21.98-1.83,1.45l-1.87,1.38-3.08,2.28c.24-1.14.41-2.3.52-3.46.12-1.41.17-2.83.15-4.25,0-.71,0-1.42-.08-2.17-.08-.75-.11-1.43-.18-2.17-.48-4.47-1.45-8.88-2.9-13.13-1.46,1.61-2.76,3.36-3.89,5.22-.75,1.22-1.59,2.5-2.35,3.95-.76,1.45-1.47,3.03-2.17,4.6-1.42,3.3-2.23,6.82-2.39,10.4-.1,2.95.5,5.89,1.77,8.55l-.84.52c-.65.42-1.32.82-2,1.2l-1.95,1.22c-1.36.75-2.67,1.57-4.05,2.27l-.65.33c.38-1.1.69-2.21.93-3.35.59-2.96.92-5.97.97-8.99,0-1.47,0-2.95-.1-4.35s-.2-2.74-.35-3.98c-.22-1.98-.54-3.94-.97-5.88-.72.6-1.41,1.24-2.04,1.92-.79.82-1.66,1.87-2.63,2.96-1.03,1.22-2,2.49-2.9,3.8-.47.72-.97,1.41-1.45,2.17-.48.76-.93,1.51-1.38,2.3-1.88,3.27-3.18,6.84-3.83,10.56-.15.97-.23,1.95-.24,2.92-.02.99.03,1.98.15,2.97.14,1.11.38,2.2.72,3.26l-3.02,1.26c-.72.29-1.42.61-2.17.89l-2.17.79-2.17.79c.5-1.03.96-2.12,1.37-3.26.54-1.49.99-3,1.35-4.54.36-1.58.65-3.16.87-4.73.42-2.88.63-5.79.64-8.7.01-2.12-.08-4.24-.28-6.35-.8.53-1.57,1.1-2.3,1.73-.91.74-1.97,1.6-3.08,2.64-.54.52-1.09,1.09-1.68,1.67s-1.17,1.17-1.76,1.82c-1.23,1.35-2.38,2.76-3.46,4.23-2.39,3.11-4.23,6.61-5.44,10.35-.97,3.11-1.24,6.39-.8,9.62l-.82.25-4.5.99c-.75.15-1.5.35-2.25.48l-2.27.38c-1.51.24-3.02.53-4.53.73-5.97.75-12.42,1.22-18.72,1.98-1.83.22-3.64.46-5.44.72-1.82-.26-3.62-.5-5.44-.72-6.29-.75-12.75-1.23-18.72-1.98-1.52-.18-3.02-.49-4.53-.73l-2.27-.38c-.76-.13-1.5-.32-2.25-.48l-4.5-.98-.89-.24c.43-3.23.16-6.52-.82-9.63-1.2-3.74-3.04-7.24-5.44-10.35-1.08-1.47-2.23-2.88-3.47-4.23-.59-.64-1.18-1.21-1.75-1.82-.57-.61-1.14-1.15-1.7-1.67-1.09-1.09-2.17-1.9-3.07-2.64-.74-.62-1.5-1.2-2.3-1.73-.21,2.11-.31,4.23-.29,6.35.02,2.91.24,5.81.64,8.7.23,1.55.51,3.14.88,4.72.35,1.54.8,3.06,1.35,4.54.4,1.11.85,2.2,1.37,3.26l-2.17-.8-2.17-.79c-.72-.28-1.42-.6-2.17-.89l-3.02-1.26c.33-1.07.57-2.16.72-3.26.13-.98.18-1.98.15-2.97-.02-.98-.1-1.96-.24-2.92-.65-3.71-1.95-7.29-3.83-10.56-.45-.79-.91-1.57-1.39-2.3s-.97-1.43-1.45-2.17c-.9-1.32-1.86-2.59-2.9-3.8-.96-1.09-1.83-2.17-2.63-2.96-.63-.67-1.31-1.3-2.02-1.88-.43,1.94-.76,3.91-.98,5.89-.14,1.23-.26,2.57-.35,3.97-.09,1.4-.13,2.89-.09,4.35.04,3.02.36,6.03.97,8.99.24,1.14.56,2.26.93,3.36l-.65-.34c-1.38-.71-2.71-1.52-4.05-2.27l-2.02-1.15c-.67-.38-1.35-.77-2-1.18-.27-.18-.55-.36-.84-.53,1.27-2.67,1.88-5.6,1.78-8.55-.17-3.58-.98-7.11-2.39-10.4-.68-1.57-1.38-3.17-2.17-4.6s-1.59-2.73-2.34-3.95c-1.13-1.86-2.43-3.6-3.89-5.22-1.45,4.26-2.43,8.66-2.9,13.13-.08.71-.14,1.41-.2,2.17s-.07,1.42-.08,2.17c-.02,1.42.04,2.84.16,4.25.11,1.16.28,2.31.51,3.46l-3.07-2.28-1.86-1.48c-.63-.46-1.22-.97-1.83-1.45l-2.61-2.11c1.54-2.33,2.47-5.01,2.72-7.79.19-1.7.19-3.42,0-5.12-.22-1.67-.55-3.31-.99-4.94-.83-2.96-1.92-5.84-3.26-8.61-.58-1.23-1.16-2.32-1.7-3.26-.53-.95-.97-1.67-1.35-2.17-.8,1.57-1.5,3.19-2.11,4.85-.85,2.3-1.55,4.65-2.11,7.03-.93,3.71-1.26,7.55-.98,11.37l-1.7-1.53c-.57-.53-1.09-1.09-1.68-1.61l-1.58-1.67-3.26-3.35-.72-.78c1.76-1.98,3-4.38,3.58-6.97.35-1.56.52-3.15.51-4.74.01-1.59-.09-3.18-.29-4.75-.22-1.5-.51-2.99-.88-4.47-.29-1.35-.66-2.69-1.09-4.01-.62-1.85-1.35-3.67-2.17-5.44-2.2,3.26-4,6.77-5.36,10.46-.88,2.36-1.55,4.79-1.99,7.26-.17,1.11-.26,2.23-.28,3.36-.13-.17-.27-.34-.41-.51-1-1.18-1.9-2.46-2.84-3.7l-2.78-3.75-1.91-2.84c1.92-1.58,3.39-3.64,4.24-5.98.5-1.41.87-2.87,1.09-4.35.23-1.47.34-2.95.33-4.44,0-1.45-.07-2.91-.18-4.29-.12-1.38-.3-2.67-.52-3.86-.12-.59-.21-1.16-.3-1.7s-.2-1.09-.3-1.5c-.16-.74-.36-1.46-.61-2.17-2.45,2.71-4.58,5.69-6.35,8.88-1.11,2.04-2.02,4.19-2.73,6.4-.35,1.07-.62,2.16-.82,3.26l-.67-1.21-1.09-2.05-1.09-2.05c-.37-.67-.76-1.36-1.09-2.07l-2.03-4.21c-.15-.34-.33-.67-.49-1.01,2.04-1.16,3.72-2.85,4.86-4.89.66-1.21,1.19-2.5,1.58-3.83.21-.66.37-1.34.52-2l.39-2.04c.24-1.32.4-2.66.49-4,.09-1.28,0-2.5.11-3.65.06-1.74-.05-3.48-.32-5.21-2.62,2.09-4.98,4.49-7.04,7.13-1.35,1.68-2.5,3.5-3.45,5.44-.49,1.02-.91,2.07-1.26,3.14-.25-.68-.49-1.38-.74-2.07-.51-1.48-1.09-2.92-1.49-4.44-.8-2.77-1.68-5.52-2.32-8.34.72-.87,1.3-1.85,1.74-2.89.3-.74.53-1.5.68-2.28.18-.8.31-1.62.39-2.43.14-1.72.07-3.46-.22-5.16-.21-1.83-.55-3.65-1.01-5.44-.22-.9-.52-1.79-.76-2.7-.24-.9-.48-1.78-.75-2.66-.52-1.74-1.17-3.43-1.72-5.01-.8-2.46-1.74-4.88-2.83-7.23-1.24,2.37-2.31,4.82-3.18,7.35-.56,1.79-1.02,3.6-1.39,5.44-.2.97-.37,1.95-.53,2.95s-.18,2.01-.24,3.02c-.11,2.01-.05,4.02.17,6.01.29,1.86.78,3.69,1.48,5.44.32.81.72,1.59,1.2,2.33.48.7,1.02,1.35,1.63,1.95.83.81,1.78,1.48,2.83,1.98.58,2.88,1.4,5.72,2.17,8.57.38,1.54.92,3.03,1.41,4.54.24.72.48,1.43.71,2.17-.96-.67-1.96-1.29-2.99-1.85-1.97-1.09-4.12-1.97-6.13-2.83-3.26-1.38-6.61-2.53-10.03-3.46.8,2.07,1.76,4.07,2.86,5.99.74,1.31,1.58,2.56,2.51,3.74.99,1.27,2.05,2.47,3.18,3.61.28.28.55.57.85.83s.61.52.91.77c.62.49,1.25.96,1.89,1.38,1.23.82,2.56,1.48,3.96,1.95,2.25.77,4.69.77,6.94,0l.47,1.09,1.98,4.35c.32.73.68,1.43,1.09,2.17l1.09,2.17,1.09,2.12c.22.43.45.86.67,1.29h0c-1.01-.45-2.09-.85-3.26-1.22-2.32-.72-4.68-1.3-7.07-1.75-3.73-.79-7.51-1.34-11.32-1.65.36.65.9,1.5,1.59,2.49.34.49.72,1.01,1.09,1.55.42.58.87,1.14,1.36,1.67,1,1.09,2.17,2.29,3.34,3.42,2.45,2.28,5.28,4.11,8.36,5.41,1.44.66,2.98,1.09,4.55,1.29,2.51.33,5.07-.12,7.32-1.3l1.89,2.95,2.75,3.9c.93,1.29,1.82,2.62,2.83,3.85l.4.53c-1.09-.25-2.25-.45-3.43-.61-2.56-.36-5.14-.57-7.73-.62-4.11-.13-8.22-.02-12.32.32,1.55,1.94,3.3,3.7,5.23,5.25,1.22,1.01,2.57,2.04,4.01,3.03,1.5.97,3.07,1.83,4.7,2.59,1.6.77,3.28,1.37,5,1.79,1.67.39,3.38.57,5.09.51,2.68-.08,5.27-.97,7.44-2.54l.75.8,3.26,3.5,1.63,1.75c.55.58,1.09,1.09,1.68,1.7l1.62,1.61c-3.93-.17-7.87,0-11.77.52-2.73.34-5.36.77-7.61,1.21s-4.12.83-5.37,1.16c.76.76,1.57,1.47,2.42,2.13,1.09.78,2.35,1.66,3.76,2.53,3.12,1.95,6.49,3.48,10.01,4.54,1.8.56,3.66.93,5.54,1.09,1.81.16,3.64.08,5.44-.24,2.8-.52,5.38-1.84,7.44-3.82l2.64,2.17c.61.51,1.21,1.09,1.84,1.53l1.89,1.47,3.1,2.41c-1.09.08-2.32.21-3.51.39-1.42.23-2.87.51-4.35.85-.73.16-1.46.35-2.17.53l-2.17.53c-4.55,1.2-9.01,2.69-13.37,4.46,2.27,1.53,4.68,2.85,7.19,3.96,1.72.76,3.48,1.41,5.28,1.93,1.9.6,3.85,1.05,5.83,1.34,3.89.66,7.88.38,11.64-.82,2.84-.97,5.34-2.73,7.22-5.07l.86.57c.66.45,1.35.86,2.03,1.27l2.05,1.23c1.37.82,2.72,1.68,4.12,2.45l.67.36c-1.14.28-2.3.59-3.46.95-2.99.92-5.92,2.01-8.78,3.26-1.45.63-2.84,1.24-4.16,1.84-1.33.6-2.59,1.22-3.75,1.79-2.33,1.15-4.27,2.17-5.54,2.96,1.06.56,2.15,1.06,3.26,1.51,1.55.65,3.15,1.2,4.77,1.65,1.91.53,3.85.97,5.8,1.3,1,.18,2.07.29,3.13.38s2.17.13,3.2.14c4.18.13,8.34-.76,12.1-2.59.89-.46,1.73-.99,2.53-1.59.81-.62,1.56-1.31,2.24-2.07.76-.84,1.43-1.75,2-2.73l3.11,1.39,2.17.97,2.24.88,2.24.88c-1.09.42-2.17.92-3.26,1.46-1.45.7-2.95,1.52-4.35,2.29-1.4.77-2.89,1.63-4.35,2.49-2.83,1.68-5.54,3.5-7.82,5.02-2.27,1.52-4.16,2.9-5.44,3.88.91.34,2.17.75,3.69,1.15s3.34.72,5.29,1.01c.98.14,2,.26,3.04.37s2.17.12,3.26.14c2.25.04,4.51-.09,6.74-.38,4.43-.54,8.67-2.15,12.33-4.71,2.68-1.97,4.74-4.65,5.97-7.74l.92.27,4.7,1.09c.78.18,1.57.4,2.36.55l2.38.46c1.59.29,3.16.64,4.76.88l2.51.35c-3.26.97-6.46,2.1-9.6,3.4-6.16,2.54-11.97,5.84-17.31,9.84-5.28,4.05-10.06,8.7-14.25,13.86l7.22,5.82c3.67-4.67,7.87-8.9,12.52-12.6,4.67-3.66,9.78-6.72,15.22-9.11,5.55-2.42,11.32-4.33,17.22-5.69,3.86-.92,7.79-1.68,11.75-2.36,3.97.67,7.91,1.43,11.78,2.37,5.9,1.35,11.66,3.25,17.21,5.67,5.44,2.39,10.55,5.45,15.22,9.12,4.65,3.69,8.85,7.92,12.52,12.59l7.23-5.82c-4.24-5.13-9.06-9.76-14.36-13.79-5.34-3.97-11.15-7.26-17.31-9.78-3.14-1.31-6.35-2.45-9.62-3.41l2.53-.36c1.6-.23,3.17-.59,4.76-.87l2.38-.46c.79-.15,1.57-.37,2.35-.55l4.7-1.09.93-.27c1.22,3.09,3.29,5.77,5.97,7.74,3.66,2.56,7.89,4.17,12.33,4.71,2.23.29,4.48.42,6.73.38,1.09,0,2.17,0,3.26-.14s2.07-.23,3.05-.37c1.96-.29,3.76-.62,5.29-1.01s2.77-.82,3.67-1.15c-1.23-.98-3.11-2.35-5.44-3.88-2.33-1.53-4.99-3.34-7.8-5.03-1.41-.85-2.86-1.68-4.35-2.48s-2.93-1.6-4.35-2.29c-1.09-.53-2.23-1.09-3.32-1.46l2.24-.88,2.24-.89c.74-.3,1.47-.64,2.17-.97l3.11-1.38c.58.97,1.25,1.89,2,2.73,1.35,1.5,2.97,2.74,4.77,3.65,3.77,1.83,7.92,2.72,12.11,2.59,1.09,0,2.17,0,3.2-.14,1.02-.14,2.12-.2,3.13-.38,1.95-.34,3.89-.77,5.79-1.3,1.63-.45,3.23-1,4.78-1.65,1.11-.45,2.2-.95,3.26-1.51-1.27-.75-3.21-1.8-5.53-2.96-1.17-.58-2.43-1.18-3.76-1.79s-2.71-1.22-4.15-1.85c-2.86-1.25-5.8-2.34-8.78-3.26-1.16-.36-2.33-.67-3.46-.95l.66-.37c1.41-.75,2.75-1.62,4.13-2.43l2.05-1.23c.68-.41,1.37-.83,2.02-1.27l.86-.57c1.88,2.34,4.39,4.1,7.23,5.07,3.76,1.19,7.75,1.47,11.64.82,1.98-.28,3.92-.73,5.83-1.34,1.8-.53,3.56-1.17,5.27-1.93,2.51-1.1,4.92-2.43,7.2-3.96-4.36-1.76-8.83-3.25-13.37-4.46-.71-.18-1.42-.37-2.17-.53s-1.46-.37-2.17-.53c-1.45-.34-2.9-.63-4.35-.85-1.21-.18-2.38-.32-3.51-.39l3.28-2.54,1.88-1.47c.64-.49,1.23-1.02,1.85-1.53l2.63-2.17c2.06,1.97,4.65,3.29,7.45,3.82,1.79.32,3.62.4,5.44.24,1.89-.16,3.75-.52,5.55-1.09,3.51-1.06,6.86-2.59,9.97-4.53,1.41-.87,2.68-1.75,3.75-2.53.88-.65,1.71-1.35,2.5-2.11-1.25-.35-3.11-.74-5.37-1.16s-4.9-.87-7.61-1.21c-3.9-.52-7.84-.7-11.77-.52l1.62-1.62c.57-.55,1.14-1.09,1.7-1.68l1.62-1.75,3.26-3.5.71-.83c2.14,1.57,4.69,2.46,7.34,2.57,1.71.05,3.42-.12,5.09-.51,1.72-.43,3.39-1.03,4.99-1.79,1.62-.75,3.19-1.61,4.7-2.59,1.45-.99,2.8-2.02,4.02-3.03,1.93-1.56,3.68-3.32,5.23-5.25-4.1-.34-8.22-.44-12.33-.32-2.58.05-5.16.26-7.72.62-1.18.16-2.35.36-3.45.61l.41-.53c1-1.24,1.89-2.55,2.82-3.85l2.76-3.9,1.9-2.95c2.24,1.18,4.8,1.64,7.32,1.3,1.58-.19,3.12-.62,4.58-1.27,1.52-.67,2.97-1.48,4.35-2.41,1.41-.94,2.73-2,3.95-3.16,1.21-1.09,2.34-2.3,3.34-3.42.49-.53.94-1.09,1.36-1.67.41-.54.79-1.09,1.09-1.55.68-.99,1.22-1.84,1.59-2.49-3.76.32-7.5.87-11.2,1.65-2.38.45-4.74,1.03-7.05,1.75-1.09.37-2.17.77-3.26,1.22h0l.68-1.29,1.09-2.12,1.09-2.17c.36-.71.74-1.41,1.09-2.17l1.97-4.35c.15-.35.32-.7.48-1.09,2.25.77,4.69.77,6.94,0,1.41-.47,2.74-1.12,3.98-1.95.64-.42,1.27-.89,1.89-1.38.3-.25.61-.5.91-.77s.57-.54.85-.83c1.1-1.14,2.13-2.34,3.09-3.61.93-1.18,1.77-2.43,2.51-3.74,1.11-1.92,2.06-3.92,2.86-5.99-3.42.97-6.77,2.18-10.02,3.6Z" fill="url(#linear-gradient-4)"/>
    </g>
  </g>
</svg>