<?xml version="1.0" encoding="UTF-8"?>
<svg id="Layer_1" data-name="Layer 1" xmlns="http://www.w3.org/2000/svg" xmlns:xlink="http://www.w3.org/1999/xlink" viewBox="0 0 530.94 227.32">
  <defs>
    <linearGradient id="linear-gradient" x1="282.36" y1="-167.82" x2="282.36" y2="263.15" gradientUnits="userSpaceOnUse">
      <stop offset=".25" stop-color="#1185b4"/>
      <stop offset=".4" stop-color="#177eab"/>
      <stop offset=".65" stop-color="#0c6a95"/>
      <stop offset=".95" stop-color="#01476f"/>
      <stop offset="1" stop-color="#0b4167"/>
    </linearGradient>
  </defs>
  <polygon points="102.75 1.17 198.97 55.62 200.87 56.69 200.87 80.32 193.09 74.78 193.09 60.73 100.76 8.41 8.43 60.73 8.43 165.65 100.76 217.92 145.3 192.69 160.66 192.44 102.75 225.21 100.76 226.38 98.72 225.21 2.5 170.76 .65 169.69 .65 56.69 2.5 55.62 98.72 1.17 100.76 0 102.75 1.17" fill="#696c6d"/>
  <path d="M374.2,31.6h3.26v8.99h0l7.15-8.99h3.79l-6.08,7.73,7.1,11.72h-3.79l-5.2-8.99-2.97,3.45v5.54h-3.45l.19-19.45Z" fill="#696c6d"/>
  <path d="M393.85,31.6h11.62v2.92h-8.22v4.86h6.95v2.92h-6.95v5.69h8.51v3.06h-11.91v-19.45Z" fill="#696c6d"/>
  <path d="M411.5,31.6h3.45v16.43h8.22v3.01h-11.67v-19.45Z" fill="#696c6d"/>
  <path d="M435.08,31.6c-5.01,0-8.51,3.5-8.51,9.72s3.45,10.12,8.51,10.12,8.56-4.09,8.56-10.12-3.55-9.72-8.56-9.72ZM435.22,48.48c-2.92,0-4.86-2.83-4.86-7.15s1.94-6.95,4.86-6.95,4.86,2.62,4.86,6.95-1.94,7.15-4.86,7.15Z" fill="#696c6d"/>
  <path d="M449.47,31.6h3.89l3.4,9.72c.44,1.22.83,2.53,1.26,3.79h0c.44-1.26.83-2.58,1.22-3.79l3.45-9.72h3.89v19.45h-3.16v-8.75c0-1.8.29-4.38.44-6.13h0l-1.56,4.47-3.21,8.65h-2.04l-3.26-8.65-1.56-4.47h0c0,1.75.44,4.33.44,6.13v8.75h-3.11l-.1-19.45Z" fill="#696c6d"/>
  <path d="M479.57,31.6h-6.08l-.09,19.45h3.4v-7h2.78c4.27,0,7.43-1.99,7.43-6.47s-3.16-5.98-7.43-5.98ZM479.57,41.33h-2.53v-6.71h2.38c2.87,0,4.38.83,4.38,3.21s-1.36,3.5-4.23,3.5Z" fill="#696c6d"/>
  <path d="M500.13,31.6c-5.01,0-8.51,3.5-8.51,9.72s3.5,10.12,8.56,10.12,8.56-3.94,8.56-10.12-3.6-9.72-8.61-9.72ZM500.28,48.48c-2.91,0-4.86-2.83-4.86-7.15s1.95-6.95,4.86-6.95,4.86,2.62,4.86,6.95-1.94,7.15-4.86,7.15Z" fill="#696c6d"/>
  <path d="M514.53,31.6h3.45v8.99h0l6.95-8.99h3.79l-5.93,7.54,6.95,11.91h-3.79l-5.2-9.09-2.77,3.45v5.64h-3.45v-19.45Z" fill="#696c6d"/>
  <path d="M263.25,69.04c1.69-.68,2.77-2.36,2.68-4.18,0-3.64-2.92-4.86-6.91-4.86h-6.18v19.3h6.72c4.22,0,7.38-1.8,7.38-5.69,0-.09,0-.17,0-.26,0-2.14-1.56-3.98-3.7-4.32ZM256.3,62.67h2.53c2.48,0,3.75.88,3.75,2.58s-1.12,2.77-3.85,2.77h-2.43v-5.35ZM259.17,76.68h-2.87v-6.13h2.87c2.91,0,4.42.73,4.42,2.92s-1.55,3.21-4.42,3.21Z" fill="#696c6d"/>
  <path d="M272.49,60h3.4v19.45h-3.4v-19.45Z" fill="#696c6d"/>
  <path d="M282.8,60h3.89l3.4,9.48c.39,1.22.78,2.53,1.22,3.79h0c.39-1.26.78-2.58,1.22-3.79l3.31-9.48h3.84v19.45h-3.16v-8.95c0-1.8.29-4.38.44-6.13h0l-1.56,4.47-3.16,8.65h-2.04l-3.21-8.65-1.51-4.47h0c0,1.75.44,4.33.44,6.13v8.85h-3.06l-.05-19.35Z" fill="#696c6d"/>
  <path d="M317.17,69.04c1.69-.69,2.75-2.37,2.67-4.18,0-3.64-2.91-4.86-6.91-4.86h-6.17v19.3h6.67c4.27,0,7.43-1.8,7.43-5.69,0-.09,0-.17,0-.25,0-2.15-1.57-3.99-3.7-4.33ZM310.22,62.67h2.48c2.53,0,3.79.88,3.79,2.58s-1.17,2.77-3.84,2.77h-2.43v-5.35ZM313.09,76.68h-2.87v-6.13h2.87c2.86,0,4.42.73,4.42,2.92s-1.6,3.21-4.42,3.21Z" fill="#696c6d"/>
  <path d="M326.41,60h3.4v19.45h-3.4v-19.45Z" fill="#696c6d"/>
  <path d="M336.72,60h3.5l6.03,10.89,1.99,4.08h0c0-1.99-.44-4.42-.44-6.56v-8.41h3.26v19.45h-3.5l-6.03-10.89-1.99-4.08h0c0,2.04.44,4.38.44,6.52v8.46h-3.26v-19.45Z" fill="#696c6d"/>
  <path d="M357.04,69.72c-.51-5.02,3.15-9.51,8.17-10.02.32-.03.65-.05.97-.05,2.19-.02,4.3.86,5.83,2.43l-1.85,2.24c-.97-1.13-2.4-1.76-3.89-1.7-3.4,0-5.74,2.67-5.74,7s2.04,7.1,5.93,7.1c1,.02,1.97-.28,2.77-.88v-4.18h-3.65v-2.77h6.71v8.51c-1.68,1.54-3.9,2.36-6.17,2.29-4.94.11-9.04-3.8-9.15-8.74,0-.41,0-.82.06-1.23Z" fill="#696c6d"/>
  <path d="M386.36,60h-4.04l-6.17,19.45h3.5l1.53-5.35h6.32l1.53,5.35h3.6l-6.28-19.45ZM381.96,71.43l.66-2.29c.59-2.03,1.17-4.22,1.7-6.37.59,2.15,1.17,4.33,1.75,6.37l.66,2.29h-4.77Z" fill="#696c6d"/>
  <path d="M396.91,60h3.5l6.03,10.89,1.99,4.08h0c0-1.99-.44-4.42-.44-6.56v-8.41h3.26v19.45h-3.5l-5.98-10.99-1.99-4.08h0c0,2.04.44,4.38.44,6.52v8.46h-3.31v-19.35Z" fill="#696c6d"/>
  <path d="M426.08,60h3.45v19.45h-3.45v-19.45Z" fill="#696c6d"/>
  <path d="M446.65,69.04c1.69-.68,2.77-2.36,2.67-4.18,0-3.64-2.92-4.86-6.91-4.86h-6.17v19.3h6.71c4.23,0,7.39-1.8,7.39-5.69,0-.09,0-.17,0-.25,0-2.15-1.57-3.99-3.7-4.33ZM439.69,62.67h2.49c2.52,0,3.79.88,3.79,2.58s-1.17,2.77-3.84,2.77h-2.44v-5.35ZM442.56,76.68l-2.87-.05v-6.13h2.87c2.97,0,4.43.78,4.43,2.97s-1.61,3.21-4.43,3.21Z" fill="#696c6d"/>
  <path d="M463.66,60h-4.03l-6.13,19.45h3.5l1.54-5.35h6.28l1.52,5.35h3.64l-6.33-19.45ZM459.31,71.43l.66-2.29c.58-2.03,1.17-4.22,1.69-6.37.54,2.15,1.12,4.33,1.75,6.37l.65,2.29h-4.76Z" fill="#696c6d"/>
  <path d="M488.99,67.59c-.5-4.7-4.72-8.1-9.42-7.6h-5.4v19.45h5.54c.62.05,1.24.03,1.86-.05,4.71-.63,8.01-4.96,7.38-9.67.1-.71.11-1.42.03-2.13ZM479.03,76.58h-1.51v-13.76h1.51c3.89,0,6.12,2.09,6.12,6.81s-2.23,6.95-6.12,6.95Z" fill="#696c6d"/>
  <path d="M502.12,60h-4.04l-6.22,19.45h3.51l1.53-5.35h6.34l1.52,5.35h3.64l-6.27-19.45ZM497.68,71.43l.66-2.29c.63-2.03,1.22-4.22,1.75-6.37.58,2.15,1.12,4.33,1.75,6.37l.65,2.29h-4.8Z" fill="#696c6d"/>
  <path d="M512.58,60h3.45v7.78h7.78v-7.78h3.45v19.45h-3.45v-8.65h-7.78v8.56h-3.45v-19.35Z" fill="#696c6d"/>
  <path d="M154.19,164.24h3.45v7.78h7.78v-7.78h3.45v19.45h-3.45v-8.7h-7.78v8.61h-3.45v-19.35Z" fill="#696c6d"/>
  <path d="M193.73,164.24h-4.04l-6.17,19.45h3.45l1.53-5.35h6.36l1.54,5.35h3.59l-6.27-19.45ZM189.27,175.67l.66-2.29c.64-2.03,1.22-4.22,1.75-6.37.58,2.15,1.12,4.33,1.75,6.37l.66,2.29h-4.82Z" fill="#696c6d"/>
  <path d="M212.73,180.63l2.38-1.7c.52,1.21,1.7,2.01,3.01,2.04,1.8,0,2.72-1.02,2.72-3.74v-12.98h3.45v13.22c.43,3.08-1.72,5.94-4.8,6.37-.33.05-.65.06-.98.05-2.4.16-4.67-1.12-5.79-3.26Z" fill="#696c6d"/>
  <path d="M241.32,164.24h3.4v19.45h-3.4v-19.45Z" fill="#696c6d"/>
  <path d="M294.5,171.84c-.5-4.7-4.73-8.1-9.43-7.6h-5.39v19.45h5.54c.61.05,1.23.03,1.86-.05,4.71-.63,8.01-4.96,7.38-9.67.09-.71.11-1.42.03-2.13ZM284.55,180.77h-1.51v-13.76h1.51c3.88,0,6.12,2.04,6.12,6.81s-2.24,6.95-6.12,6.95Z" fill="#696c6d"/>
  <path d="M317.76,164.24h-4.04l-6.28,19.45h3.6l1.53-5.35h6.32l1.53,5.35h3.59l-6.27-19.45ZM313.36,175.67l.66-2.29c.59-2.03,1.17-4.22,1.7-6.37.58,2.15,1.17,4.33,1.75,6.37l.66,2.29h-4.77Z" fill="#696c6d"/>
  <path d="M338.57,164.24h3.5l6.03,10.89,1.99,4.08h0c0-1.99-.44-4.42-.44-6.56v-8.41h3.26v19.45h-3.5l-5.98-11.09-1.99-4.08h0c0,2.04.44,4.33.44,6.52v8.46h-3.31v-19.25Z" fill="#696c6d"/>
  <path d="M387.77,175.08v-10.84h3.45v11.13c0,4.18,1.56,5.59,3.89,5.59s3.99-1.41,3.99-5.59v-11.13h3.31v10.84c0,6.37-2.82,8.85-7.29,8.85s-7.34-2.48-7.34-8.85Z" fill="#696c6d"/>
  <path d="M419.32,164.24h3.89l3.4,9.48c.44,1.22.83,2.48,1.26,3.74h0c.44-1.26.83-2.53,1.22-3.74l3.35-9.48h3.89v19.45h-3.16v-8.95c0-1.8.29-4.38.44-6.13h0l-1.56,4.47-3.21,8.65h-2.04l-3.16-8.65-1.56-4.47h0c0,1.75.44,4.33.44,6.13v8.85h-3.11l-.1-19.35Z" fill="#696c6d"/>
  <path d="M463.26,175.55c2.33-.75,3.95-2.49,3.95-5.57,0-4.33-3.06-5.74-7.09-5.74h-6.67l.14,19.35h3.46v-7.59h2.79l4.16,7.59h3.85l-4.59-8.05ZM456.91,173.29v-6.28h2.72c2.62,0,4.08.78,4.08,2.97s-1.46,3.3-4.08,3.3h-2.72Z" fill="#696c6d"/>
  <path d="M490.7,164.24h-4.04l-6.17,19.45h3.5l1.52-5.35h6.33l1.54,5.35h3.59l-6.28-19.45ZM486.26,175.67l.65-2.29c.63-2.03,1.22-4.22,1.75-6.37.58,2.15,1.12,4.33,1.75,6.37l.66,2.29h-4.81Z" fill="#696c6d"/>
  <path d="M511.32,164.24h3.4v7.78h7.83v-7.78h3.4v19.45h-3.4v-8.7h-7.83v8.61h-3.4v-19.35Z" fill="#696c6d"/>
  <path d="M79.22,142.12v-40.45l-4.67,2.33c-9.72,3.59-16.39,6.22-19.45,7.73-13.56,6.12-20.32,19.79-20.32,40.99h50.95v-10.6h-6.51ZM68.62,142.12h-21.78c.7-4.08,2.15-7.99,4.27-11.53,4.59-5.45,10.68-9.43,17.51-11.47v23ZM113.79,182.96l-4.28.64c-8.07,0-13.95-5.7-17.8-16.97-1.42-4.73-2.11-9.65-2.03-14.59V52.61c.05-4.96-2.56-9.57-6.86-12.06,8.44-5.53,14.64-13.87,17.51-23.53v137.6c0,14.78,4.49,24.23,13.47,28.35ZM145.78,124.52v10.3h-26.74v-10.3h26.74ZM523.33,142.13v-47.31c-3.03,9.54-9.11,17.8-17.31,23.53,4.32,1.13,7.15,5.28,6.61,9.72v14.06h-10.21v-17.46c0-8.07-1.9-13.13-5.74-15.26-4.82-2.46-8.73-6.37-11.19-11.19-.52,1.38-1.3,2.65-2.28,3.74-2.67,3.12-5.86,5.75-9.43,7.79l-2.62-1.47c-4.01-2.35-7.22-5.86-9.19-10.06-1.7,3.45-4.46,6.26-7.88,8.02-6.26,3.39-9.98,10.17-9.36,17.27v18.52s-10.58,0-10.58,0v-40.46l-4.56,2.34c-9.73,3.6-16.39,6.22-19.46,7.73-13.27,5.97-20.07,19.19-20.36,39.68l-.7-.3c-10.94-5.45-17.25-10.54-20.4-15.9-1.22,4.62-3.46,6.91-6.87,6.91h-20.36c4.71-8.8,17.26-13.18,37.53-13.18v-30.34h-51.05c11.8,4.83,19.74,10.49,23.82,16.97,1.36-4.42,3.6-6.61,6.62-6.61h10.11v9.72c-6.03.07-12.01,1.06-17.75,2.91-11.77,4.43-18.82,11.34-21.49,20.63h-4.87v-17.46c0-8.07-1.89-13.13-5.78-15.26-4.64-2.53-8.37-6.44-10.69-11.19-.57,1.35-1.35,2.62-2.29,3.74-2.76,3.15-6.06,5.78-9.72,7.79l-2.59-1.47c-4.01-2.34-7.22-5.85-9.18-10.06-1.71,3.44-4.47,6.25-7.88,8.02-6.29,3.36-9.96,10.16-9.33,17.27v18.52s-10.53,0-10.53,0v-40.46l-4.57,2.34c-9.73,3.6-16.39,6.22-19.45,7.73-13.28,5.97-20.07,19.19-20.37,39.68l-.69-.3c-10.94-5.45-17.25-10.54-20.41-15.9-1.22,4.62-3.46,6.91-6.86,6.91h-20.37c4.72-8.8,17.26-13.18,37.53-13.18v-30.34h-51.05c11.8,4.83,19.75,10.49,23.82,16.97,1.37-4.42,3.61-6.61,6.62-6.61h10.12v9.72c-6.03.07-12.02,1.06-17.76,2.91-11.76,4.43-18.81,11.34-21.49,20.63,0,0-1.01,5.05-1.01,10.6h126.58v-27.53c-.09-.57-.1-1.15-.03-1.72.42-3.41,3.53-5.84,6.93-5.42,4.18,0,6.33,2.28,6.33,7.14v27.53h10.79v-27.53c0-4.76,2.04-7.14,6.52-7.14s6.71,2.24,6.71,7.1v27.57h141v-27.53c0-4.76,2.53-7.14,6.75-7.14s6.33,2.28,6.33,7.14v27.53h10.69v-27.53c0-4.76,2.1-7.14,6.52-7.14s6.65,2.24,6.65,7.1v27.57h37.74v-10.6h-6.61ZM245.77,142.13h-21.78c.68-4.08,2.13-8,4.28-11.53,4.59-5.45,10.67-9.44,17.5-11.47v23ZM423.55,142.13h-21.78c.68-4.08,2.14-8,4.28-11.53,4.59-5.45,10.67-9.44,17.5-11.47v23Z" fill="url(#linear-gradient)"/>
</svg>