<?xml version="1.0" encoding="UTF-8"?>
<svg id="Layer_1" data-name="Layer 1" xmlns="http://www.w3.org/2000/svg" viewBox="0 0 358.13 305.02">
  <path d="M0,75.57L174.3,0l183.83,154.89v10.21c0,10.12-5.39,19.46-14.15,24.53l-199.63,115.39L9.53,99.06l5.11-2.38L0,75.57Z" fill="#383c3e"/>
  <polygon points="139.57 275.74 358.13 154.89 139.57 280.17 14.64 96.68 139.57 275.74" fill="#a7a9ac"/>
  <path d="M340.91,182.62l-197.25,110.48L14.64,96.68l124.94,183.49,210.72-120.79v7.22c0,6.65-3.59,12.78-9.39,16.02Z" fill="#939598"/>
  <polygon points="164.7 4.16 350.3 159.38 354.83 156.72 169.66 2.01 164.7 4.16" fill="#a7a9ac"/>
  <path d="M153,218.07l-86.13-123.53,90.43-39.21.47.4,115.02,96.19-1.28.71-118.51,65.44ZM69.9,95.4l83.7,120.04,115.66-63.87-112.31-93.92-87.05,37.75Z" fill="#a7a9ac"/>
  <path d="M146.29,246.91l-.52-.74L33.43,85.06l127.56-55.31.47.4,150.07,125.51-1.28.71-163.98,90.55ZM36.47,85.92l110.42,158.37,161.12-88.97L160.66,32.07l-124.19,53.85Z" fill="#a7a9ac"/>
  <path d="M143.24,260.01l-.52-.74L18.24,80.75,162.68,18.12l.47.4,166.01,138.83-1.28.71-184.64,101.96ZM21.28,81.61l122.57,175.78,181.79-100.39L162.34,20.44,21.28,81.61Z" fill="#a7a9ac"/>
  <g>
    <path d="M171.6,88.64h-1.33c-.11.08.65,1.13.83,1.34,9.08,11.19,22.17,21.31,30.83,32.5,2.96,3.82,5.27,8.17,1.51,12.49-1.72,1.98-3.32,2.66-5.98,2.3-1.06-.14-2.7-1.19-3.63-.93-1.26.36-5.87,8.72-5.88,10.12,1.29,2.71,3.62,5.05,3.97,8.17-1.74-1.44-2.79-3.57-4.23-5.24-.2-.24.01-.63-.76-.42-.29,1.73-.78,3.43-1,5.17-.4,3.24-.18,11.66-1.67,14-2.64,4.13-9.39,1.89-11.83-1.5-3.65,3.66-6.99,7.32-12.67,6.66-3.89-.45-6.47-4.12-9-6.66-.79,1.19-.62,2.61-1.43,3.9-1.47,2.32-4.38,2.36-6.74,1.59-4.92-1.6-6.3-7.29-7.65-11.69-1.77-.06-3.18.43-5.04.05-4.28-.88-7.04-7.43-7.31-11.36-.02-.36-.21-.91.33-.82,1.36,3.53,4.74,13.58,9.84,8.66,3.81-3.68,4.51-17.72,6.17-23l-20.76-.41c-1.3-.29-3.47-4.12-3.59-5.43-.16-1.73,1.23-4.39,1.96-6.06,3.14-7.18,7.92-14.81,12.45-21.21,1.56-2.2,6.15-8.82,7.86-10.23,1.07-.88,2.39-1.31,3.77-.85,4.26,1.43,2.19,15.82,2.31,19.52-.77-.33-.92-1.77-.99-2.5-.38-3.97.52-7.96.26-11.92-1.06-4.64-6.67,2.4-7.73,3.79-3.43,4.47-7.35,10.79-10.33,15.67s-5.79,9.66-7.53,14.97l23.82-.67c1.14-.22,1.72-2.2,2.52-3.15,1.08-1.29,2.53-2.4,3.65-3.67-4.08-4.16-10.42-6.85-12.32-12.68-.07-.55-.04-.53.5-.5.32.02,5.61,2.45,5.83,2.68.05.05.15.77-.25.67l-.75.49c2.68,2.78,5.75,5.76,9.65,6.69,3.49.83,5.84-.64,7.68,3.65-3.94.18-9.16,1.35-10.66,5.5l19.82,1.35,4.18-.35-21.67-22.83-1-2.83,8,4c.28,1.25-1.15.31-1.66.83l18.17,18.84,1.19.52c1.79-.95,3.98-4.32,2.79-6.17-.8-1.23-4.19-4.51-5.47-5.86-8.46-8.95-17.65-17.27-26.19-26.14l-.98-3.02,8,4-1.5,1.16c4.82,4.85,9.41,9.93,14.15,14.85,3.8,3.95,8.33,7.63,11.85,11.81,3.88,4.61,3.29,7.84.07,12.68l9.09,11.49,5.51-8.16c-1.75-2.6-4.58-4.13-5.74-7.27-2.02-5.46,1.99-7.63,6.37-4.37,3.68,2.74,4.33,6.83,3.69,11.14,1.91.3,3.62-.59,4.98-1.86.45-.42,3.21-4.04,3.31-4.38.12-.44.07-.68-.11-1.09-.1-.2-2.55-2.85-3-3.34-11.44-12.6-24.09-24.18-35.66-36.67-.18-.28-1.43-2.98-.35-2.65l7.51,4.66ZM189.48,125.42c-1.34.08-2.95,1.09-2.49,2.66.26.86,3.63,3.8,4.71,3.53,2.56-2.26,1.53-6.41-2.22-6.19ZM169.94,137.97c2.58,1.46,6.65,3,8.28,5.56,3.47,5.45-1.89,16.7-4.59,21.91,3.09,2.68,5.5,4.65,7.88-.06,1.77-3.51.86-6.88,1.08-10.58.2-3.25.75-6.45,1.62-9.58-1.44-1.95-8.76-12.36-10.46-12.58-.69-.09-1.52.34-2.3.36-7.3.14-14.25-1.43-21.51-1.34-.08.48.59.46.93.56,3.89,1.12,9.94,3.01,10.33,8.03.35,4.49-6.78,12.49-8.66,16.84-1.64,3.79-2.74,7.12.56,10.22,5.72,5.38,13.29.42,16.44-5.23l-1.27-7.43,2.16,6c2.37-3.93,6.42-9.56,6.81-14.21.18-2.14-2.08-2.86-3.75-3.84-3.19-1.89-9.04-3.26-8.72-7.61l6.83,1.34c.32,1.35-1.97.37-1.66,1.66ZM158.88,137.7c-2.41-1.16-4.52-2.17-7.2-2.63-1.27-.22-7.77-.96-8.52-.7-.69.24-1.26,2.43-1.46,3.2-1.39,5.4-1.46,11.2-3.11,16.55-.42,1.35-2.31,4.83-2.32,5.68-.04,3.47,4.85,13.59,9.14,10.81,2.22-1.44,2.12-8.9,2.57-11.42.65-3.63,3.74-9.05,5.82-12.18,1.95-2.94,5.44-5.57,5.08-9.31Z" fill="#fff"/>
    <path d="M160.6,87.99l-.18.66-1.15.16c4.89,5.7,11.1,10.74,15.99,16.34,2.03,2.33,4.59,5.41,5.01,8.49l-27.01-27.16-.83-3.17,8.17,4.67Z" fill="#fff"/>
    <path d="M184.27,90.32c-.35,1.07-1.63.41-2.33.83,5.49,6.46,12.48,11.99,17.84,18.5,2.14,2.59,4.31,5.34,5.16,8.67-.34.34-1.25-.72-1.5-.99-8.75-9.11-16.66-19.09-26.31-27.36-.45-1.1-1.72-2.44-1.36-3.64l8.5,4Z" fill="#fff"/>
    <polygon points="186.93 112.98 186.94 116.31 182.93 116.31 182.94 119.31 178.56 118.78 178.27 115.64 181.96 115.5 182.59 112.46 186.93 112.98" fill="#fff"/>
    <path d="M123.94,146.15c-.59,2.08-3.44-.55-4.14-1.52-1.49-2.07-1.68-4.68-1.88-7.14l.68-3.17c.4,2.23.26,5.02,1.52,6.98,1.38,2.16,3.05,2.49,2.98-.66.45-.8.84.41.84.51,0,1.15.23,4.17,0,5Z" fill="#fff"/>
    <path d="M198.94,143.31l-2,.5,2.99,5.5c-1.06.12-1.51-.82-2.52-.98-1.92-.31-4.92,1.38-4.78-1.99,1.84-1.01,3.47.55,5.3.63-.72-1.62-1.98-3.09-1.67-5l2.34.16.33,1.17Z" fill="#fff"/>
    <path d="M159.9,122.95c-.17.26-1.83.55-.13,1.62l2.17-2.09c1.69-.12-.89,5.36-1.17,5.5-1.19.11.22-1.87-.17-2.32-2.33.45-3.09-2.4-1.67-3.52.57-.45,1.25.41.98.81Z" fill="#fff"/>
    <path d="M132.54,140.56c.12-.07-.08-.9.73-.58.91,1.83-.42,3.27-2.19,2.02-.89-.63-2.62-4.46-2.81-5.69,1.27.48,2.42,5.24,4.26,4.25Z" fill="#fff"/>
    <path d="M194.22,99.92l.07-.58c1.07-.08,1.39,1.15.95,1.94-1.87,1.32-5.08-4.09-5.3-5.64,1.65,1.28,1.99,3.79,4.28,4.28Z" fill="#fff"/>
    <path d="M157.93,95.65c.07.56.29,1.08.66,1.51.55.62,2.77,2.57,2.34.49,2.99,1.22.72,3.72-1.83,1.33-.37-.35-2.82-3.6-1.18-3.33Z" fill="#fff"/>
    <path d="M173.27,172.31c.02-.65-.27-1.19.66-1,1.33,5.59-3.89,1.22-3.99-1.67,1.21.78,1.62,2.62,3.33,2.67Z" fill="#fff"/>
    <path d="M131.6,116.65c.38.36.82,3.35,2.49,3,.82-2.36,2.1.87,1.19,1.52-1.45,1.04-4.07-3.15-4.34-4.36l.66-.16Z" fill="#fff"/>
    <path d="M162.31,153.27l-.04-3.29,4.18.65c1.49,4.53-.9,3.4-4.14,2.63Z" fill="#fff"/>
    <path d="M153.25,140.33l.02,3.32h-4s-.05,2.45-.05,2.45c-.4,1.23-3.2-.01-4.25.18l-.37-3.3h4s.32-3.19.32-3.19l4.33.54Z" fill="#fff"/>
  </g>
</svg>