<?xml version="1.0" encoding="UTF-8"?>
<svg id="Layer_1" data-name="Layer 1" xmlns="http://www.w3.org/2000/svg" viewBox="0 0 209.98 153.81">
  <path d="M165.4,80.67l-44.59,11.62v36.66h-52.91c.67-.93,3.22-6.3,3.31-8.02,0,0,2.07-2.96,4.76-3.4,10.68-1.45,14.56-9.93,16.17-13.52,1.61-3.6,2.13-9.06,2.98-10.01.85-.96,4.73-1.04,5.28-1.2.55-.15,2.62-.89,3.72-2.31,0,0,.87-.32,1.4-.05.61,1.38,1.63.71,1.94.02-.06.13-1.6,1.13-1.05-.9.56-2.03-2.35-3.94-4.02-4.01-1.68-.07-4.06-1.93-6.21-2.13-2.15-.21-2.44-1.18-3.18-2.36-.73-1.17-1.32-1.47-1.79-.94-.47.53.56,2.5-.35,2.88-4.33.83-4.89,8.33-8.03,14.44-3.15,6.12-8.95,9.04-12.81,9.04s-5.82-1.26-7.57-3.55c-1.74-2.3-4.52-5.18-8.73-5.43-4.21-.24-5.36-2.49-6.2-3.53-.84-1.03-2.67-2.84-4.61-3.44-1.94-.59-6.13,2.3-8.01,4.24-1.87,1.94-6.5,3.42-9.53,4.28-3.02.86-8.97,8.91-9.52,10.19-.56,1.28.57,1.63.59,1.21.06-1.06,1.13-1.28,1.52-.62.51.85-.81.44-.81,3.14s1,4.71,1.71,6.83c.24.7.32,1.95.32,3.31,0,2.71-.32,5.84-.32,5.84-10.42,0-18.86,8.44-18.86,18.86v6h209.98v-61.52l-44.58-11.62ZM32.98,128.95c-.71-.75-.62-3.39-.56-3.95s-.38-.35-.91.03c-.53.38.17,1.21-.44,2.32-.62,1.12-2.45,1.06-3.12,2.06.41-3.5,1.94-4.11,2.82-4.79.5-.38,1.41-.82,2.15-1.35.73-.53,1.41-1.86,2.38-2.74,2.03-1.73,2.59-.62,4.74-1.47,2.14-.85,9.01-.76,9.82-.72.81.04,2.5.68,3.57.68s2.91.08,4.93-2.43c1.95-2.44,1.98-3.91,1.98-4,0,0-2.06-.09-2.52-1.21,1.16-.85,3.51-1.01,4.27-.76.09-.17.46-.5.65-.53,0,0-.01-2.44-1.81-3.12-1.79-.69-3.61.23-4.35,1.02-.74.79-1.25.52-1.07.23,1.64-2.66,4.16-2.79,5.55-2.66,1.4.13,3.75,2.21,3.81,4.13,1.97.27,2.75,1.96,3.71,2.91.95.96,3.69,3.31,2.72,4.73-.97,1.41-3.24-.48-3.24-.48,0,0-.47.08-1.42.05-.96-.03-1.72-.4-1.72-.4,0,0,.14,2.03-.3,6.41-.44,4.39-3.56,6.04-3.56,6.04h-28.08ZM206.1,55.27v-2.3l-2.91-2.25v-12.66l1.67-3.13v-5.93l-4.07-1.09v-9.83c0-1.37-1.77-1.64-1.77-1.64v-3.7l-2.49-3.13v-.73c.46-.08.81-.35.81-.66s-.35-.59-.81-.67v-1.29c.46-.06.81-.28.81-.55s-.35-.49-.81-.56v-2.35c.33-.03.64-.15.88-.36.8-.71.75-2.61-.63-2.44.74.23.89,1.47.12,1.93-.77.46-1.76.4-2.07-.27.03.65.58,1.04,1.2,1.13v2.36c-.48.06-.84.28-.84.56s.36.5.84.56v1.28c-.48.07-.84.34-.84.67s.36.6.84.66v.73l-2.49,3.13v3.7s-1.78.27-1.78,1.64v9.83l-4.07,1.09v5.93l1.68,3.13v12.66l-2.91,2.25v2.3h-.98l3.09,5.69v7l15.3,4.6h.11v-11.6l3.09-5.69h-.97ZM165.4,64.43l-44.59,13.41v9.67l44.59-12.47,44.58,12.47v-9.67l-44.58-13.41ZM144.34,55.27v-2.3l-2.91-2.25v-12.66l1.67-3.13v-5.93l-4.07-1.09v-9.83c0-1.37-1.77-1.64-1.77-1.64v-3.7l-2.5-3.13v-.73c.48-.06.84-.34.84-.66s-.36-.6-.84-.67v-1.28c.48-.06.84-.29.84-.56s-.36-.5-.84-.56v-2.36c.62-.09,1.17-.48,1.2-1.13-.3.67-1.3.73-2.07.27-.77-.46-.62-1.7.12-1.93-1.38-.17-1.43,1.73-.63,2.44.24.21.55.33.89.36v2.35c-.47.07-.82.29-.82.56s.35.49.82.55v1.29c-.47.08-.82.35-.82.67s.35.58.82.66v.73l-2.5,3.13v3.7s-1.77.27-1.77,1.64v9.83l-4.07,1.09v5.93l1.67,3.13v12.66l-2.91,2.25v2.3h-.97l3.09,5.69v11.6h.11l15.3-4.6v-7l3.09-5.69h-.97Z" fill="#606161"/>
</svg>