<svg xmlns="http://www.w3.org/2000/svg" viewBox="0 0 250.92 64.55"><defs><style>.cls-1{fill:#ae792c;}</style></defs><g id="Layer_2" data-name="Layer 2"><g id="Work"><path class="cls-1" d="M225.58,12.8a10.65,10.65,0,0,1,.8-2.14l24.06-9q.38-.13.45-.09c.06,0,0,.18,0,.4a3.69,3.69,0,0,1-.68,1.24Q250,3.4,238.6,7.66q-11.67,4.34-13,5.14Z"/><path class="cls-1" d="M102.39,26.06a10.9,10.9,0,0,1,.79-2.13q11.64-4.35,24.07-9c.25-.1.4-.13.44-.1s0,.18,0,.4a3.69,3.69,0,0,1-.68,1.24q-.15.15-11.57,4.41-11.66,4.35-13,5.14Z"/><path class="cls-1" d="M125.89,12.31a11,11,0,0,1,.79-2.14l24.07-9c.25-.09.4-.12.44-.09s.05.18,0,.4a3.88,3.88,0,0,1-.68,1.24q-.15.14-11.57,4.41-11.66,4.34-13,5.14Z"/><path class="cls-1" d="M243.4,36.84c.41,0,.87-.49,1.38-1.48a1.51,1.51,0,0,1,.14-.21c.05,0,.07,0,.07,0a.47.47,0,0,1,0,.24c-.42,2.3-1.11,3.45-2.06,3.45s-1.52-.85-1.52-2.54a14.06,14.06,0,0,1,1.8-6.54,3.55,3.55,0,0,1,.54-.87s0,0,0,0a5,5,0,0,1-.25,1,18.88,18.88,0,0,0-1.18,5c0,1.3.36,2,1.06,2Z"/><path class="cls-1" d="M229.61,32.84c.41,0,.87-.5,1.38-1.48a.63.63,0,0,1,.15-.21s.07,0,.07,0a.93.93,0,0,1,0,.24c-.43,2.29-1.11,3.44-2.07,3.44s-1.52-.84-1.52-2.53a14.06,14.06,0,0,1,1.8-6.54,3.1,3.1,0,0,1,.54-.87s0,0,0,0a5.39,5.39,0,0,1-.26,1,19.29,19.29,0,0,0-1.17,5q0,1.95,1.05,2Z"/><path class="cls-1" d="M235.46,13.46A2.9,2.9,0,0,1,237.81,15a10.3,10.3,0,0,1,1.47,4.07c0,.18.05.28.05.31s0,.05.07,0,0-.13.11-.31a39,39,0,0,1,1-4.48c.59-1.42,1.24-2.13,1.94-2.13a1.44,1.44,0,0,1,1.08.73,1.93,1.93,0,0,1,.47,1,2.66,2.66,0,0,1-.16.8c-.14.43-.31.65-.5.65s-.25-.17-.51-.5a1.1,1.1,0,0,0-.82-.51q-.95,0-1.74,4.44a10.23,10.23,0,0,1-.77,2.72c-.21.36-.38.54-.52.54s-.19-.17-.19-.5a10.33,10.33,0,0,0-.89-3c-.59-1.49-1-2.24-1.26-2.24s-.29.06-.33.16-.19.17-.43.17a1.83,1.83,0,0,1-1-.59c-.43-.39-.64-.7-.64-.94a4.31,4.31,0,0,1,.54-1.06C235.14,13.77,235.36,13.46,235.46,13.46Z"/><path class="cls-1" d="M214.55,20.58a2.91,2.91,0,0,1,2.36,1.56,10.46,10.46,0,0,1,1.46,4.07,1.64,1.64,0,0,1,0,.3s.06,0,.07,0a2.08,2.08,0,0,0,.12-.3,38.48,38.48,0,0,1,1-4.48q.88-2.13,2-2.13a1.45,1.45,0,0,1,1.08.72,2,2,0,0,1,.47,1,2.67,2.67,0,0,1-.17.8c-.14.44-.3.66-.49.66s-.25-.17-.52-.51a1.09,1.09,0,0,0-.82-.5q-.93,0-1.73,4.43a10.42,10.42,0,0,1-.78,2.72q-.3.54-.51.54c-.13,0-.19-.16-.19-.49a10.58,10.58,0,0,0-.89-3c-.6-1.5-1-2.24-1.27-2.24s-.28.05-.33.16-.19.17-.42.17a1.8,1.8,0,0,1-1-.59c-.43-.39-.65-.7-.65-.94a4.28,4.28,0,0,1,.54-1.07C214.23,20.88,214.46,20.58,214.55,20.58Z"/><path class="cls-1" d="M217.16,9.53c.4,0,.86-.5,1.38-1.48a.63.63,0,0,1,.14-.21s.07,0,.07,0a.47.47,0,0,1,0,.24c-.42,2.29-1.11,3.44-2.06,3.44s-1.53-.84-1.53-2.53A14.08,14.08,0,0,1,217,2.47a3.1,3.1,0,0,1,.54-.87,0,0,0,0,1,0,0,4.57,4.57,0,0,1-.26,1,19.29,19.29,0,0,0-1.17,5c0,1.3.35,1.95,1.06,1.95Z"/><path class="cls-1" d="M206.2,1.6q6.5,0,6.5,1.5a7.65,7.65,0,0,1-1.55,2.77,15.36,15.36,0,0,1-3.31,3.54q-1,.71-6.68,2.2c-.67.18-1,.24-1,.19a7.51,7.51,0,0,1,.7-.59,38.51,38.51,0,0,1,4-2.29,31.19,31.19,0,0,0,3.7-2.16.26.26,0,0,0,.1-.19q0-.75-5.63-.75l-2.16.09c-.69,0-1,0-1-.14a1.5,1.5,0,0,1,.26-.58l1.33-2.25a2.86,2.86,0,0,1,2.14-1.25,22,22,0,0,1,2.6-.09Z"/><path class="cls-1" d="M204.26,39.51c.4,0,.87-.49,1.38-1.48a1.51,1.51,0,0,1,.14-.21c.05,0,.07,0,.07,0a.47.47,0,0,1,0,.24c-.42,2.3-1.11,3.44-2.06,3.44s-1.53-.84-1.53-2.53a14.08,14.08,0,0,1,1.81-6.54,3.31,3.31,0,0,1,.54-.87s0,0,0,0a5.16,5.16,0,0,1-.25,1,18.88,18.88,0,0,0-1.18,5c0,1.3.35,1.95,1.06,1.95Z"/><path class="cls-1" d="M191,19.25a2.9,2.9,0,0,1,2.35,1.56,10.24,10.24,0,0,1,1.47,4.07c0,.17,0,.27,0,.3s.05.05.07,0l.12-.3a37.58,37.58,0,0,1,1-4.48c.59-1.43,1.24-2.14,1.94-2.14a1.44,1.44,0,0,1,1.08.73,1.85,1.85,0,0,1,.47,1,2.66,2.66,0,0,1-.16.8c-.14.44-.31.65-.49.65s-.26-.16-.52-.5a1.08,1.08,0,0,0-.82-.5c-.63,0-1.21,1.47-1.74,4.43a10.23,10.23,0,0,1-.77,2.72c-.2.36-.38.54-.52.54s-.19-.17-.19-.49a10.36,10.36,0,0,0-.89-3c-.59-1.49-1-2.24-1.26-2.24a.33.33,0,0,0-.33.17c-.05.11-.19.16-.42.16a1.77,1.77,0,0,1-1-.59c-.43-.39-.64-.7-.64-.93a4.11,4.11,0,0,1,.54-1.07C190.66,19.55,190.88,19.25,191,19.25Z"/><path class="cls-1" d="M182.59,8.86a12.54,12.54,0,0,1,.8-2.11l13.84-5c.25-.09.4-.12.44-.09s.05.18,0,.4A3.88,3.88,0,0,1,197,3.25q-6.15,2.21-14.36,5.61Z"/><path class="cls-1" d="M80.6,64.18a13.73,13.73,0,0,1,.79-2.11l13.84-5q.38-.14.45-.09c.06,0,0,.18-.05.39A3.77,3.77,0,0,1,95,58.58q-6.15,2.2-14.35,5.6Z"/><path class="cls-1" d="M183.8,28.39c.4,0,.87-.49,1.38-1.48a1.51,1.51,0,0,1,.14-.21c.05,0,.07,0,.07,0a.47.47,0,0,1,0,.24c-.42,2.3-1.11,3.45-2.06,3.45s-1.53-.85-1.53-2.54a14.08,14.08,0,0,1,1.81-6.54,3.55,3.55,0,0,1,.54-.87s0,0,0,0a5.16,5.16,0,0,1-.25,1,18.88,18.88,0,0,0-1.18,5c0,1.3.35,1.95,1.06,1.95Z"/><path class="cls-1" d="M156.73,35.31c.18-1.64.63-2.62,1.36-2.93a19.51,19.51,0,0,0-1.1-3.26q-.84-2.07-1.2-2.07c-.17,0-.28.06-.32.17s-.19.16-.43.16a1.8,1.8,0,0,1-1-.58c-.43-.4-.64-.71-.64-.94a4.28,4.28,0,0,1,.53-1.07c.36-.6.59-.9.68-.9a2.9,2.9,0,0,1,2.36,1.56,10.24,10.24,0,0,1,1.47,4.07c0,.17,0,.27,0,.3s.05.05.07,0l.11-.3a40.21,40.21,0,0,1,1-4.48c.6-1.43,1.25-2.14,2-2.14a1.44,1.44,0,0,1,1.08.73,2,2,0,0,1,.47,1,3,3,0,0,1-.16.8c-.15.44-.31.65-.5.65s-.25-.16-.51-.5a1.08,1.08,0,0,0-.82-.5c-.63,0-1.21,1.47-1.74,4.43a11,11,0,0,1-.8,2.74,4.19,4.19,0,0,1,2,1A3.3,3.3,0,0,1,161.92,35a3.2,3.2,0,0,1-.33,1c-.24.52-.4.8-.49.83l-2.3.63a4.59,4.59,0,0,0-2,1.11,30.12,30.12,0,0,1,1.6,9.54,13.16,13.16,0,0,1-.31,2.82c-.07.33-.14.5-.18.51s-.15-.54-.15-1.64a33,33,0,0,0-.79-6.55,44.12,44.12,0,0,1-.8-4.4A3.4,3.4,0,0,1,157.25,36a5.89,5.89,0,0,1,1.95-.85,1.67,1.67,0,0,0-1.13-.58c-.17,0-.41.2-.73.61s-.49.61-.54.61-.1-.18-.07-.52Z"/><path class="cls-1" d="M159,11.42a24.19,24.19,0,0,0,5-3.73c-1.45-.75-2.18-1.54-2.18-2.36a3.67,3.67,0,0,1,1.38-2.75c.93-.83,1.69-1.13,2.3-.91s.78.74.78,1.66a9,9,0,0,1-.52,2.79,4.18,4.18,0,0,1,1.38,1.08,4.46,4.46,0,0,1-1,2,4.1,4.1,0,0,0-1.34-1.08,14.06,14.06,0,0,1-3.09,3.07,21.73,21.73,0,0,1-3.92,2.37c-.25.12-1.63.65-4.13,1.57a3.07,3.07,0,0,1-.77.21c-.06,0-.1,0-.1-.05s.22-.28.66-.56c1.85-1.09,3.7-2.2,5.56-3.31Zm4.13-7.13c0,.36.58.82,1.73,1.39a3,3,0,0,0,.1-1.36c-.1-.5-.32-.75-.68-.75a1.63,1.63,0,0,0-.71.24c-.29.17-.44.33-.44.48Z"/><path class="cls-1" d="M211.37,62.29c.41,0,.87-.49,1.39-1.48a1,1,0,0,1,.14-.21s.07,0,.07,0a.93.93,0,0,1,0,.24c-.42,2.3-1.11,3.45-2.06,3.45s-1.53-.85-1.53-2.54a14,14,0,0,1,1.81-6.54,3,3,0,0,1,.54-.87s0,0,0,0a5.39,5.39,0,0,1-.26,1,19.16,19.16,0,0,0-1.17,5q0,1.95,1.05,1.95Z"/><path class="cls-1" d="M244.73,62.29c.41,0,.87-.49,1.39-1.48a.7.7,0,0,1,.14-.21s.07,0,.07,0a.93.93,0,0,1,0,.24q-.63,3.45-2.07,3.45c-1,0-1.52-.85-1.52-2.54a14,14,0,0,1,1.81-6.54,3.37,3.37,0,0,1,.53-.87,0,0,0,0,1,0,0,5.39,5.39,0,0,1-.26,1,19.16,19.16,0,0,0-1.17,5q0,1.95,1,1.95Z"/><path class="cls-1" d="M136.21,62.29c.4,0,.86-.49,1.38-1.48a1,1,0,0,1,.14-.21c.05,0,.07,0,.07,0a.47.47,0,0,1,0,.24c-.42,2.3-1.11,3.45-2.06,3.45s-1.53-.85-1.53-2.54A14.08,14.08,0,0,1,136,55.23a3.55,3.55,0,0,1,.54-.87s0,0,0,0a4.57,4.57,0,0,1-.26,1,19.16,19.16,0,0,0-1.17,5c0,1.3.35,1.95,1.06,1.95Z"/><path class="cls-1" d="M107.5,3.23a2.91,2.91,0,0,1,2.36,1.56,10.46,10.46,0,0,1,1.46,4.07c0,.18.05.28.05.31s.06.05.07,0a1.93,1.93,0,0,0,.12-.31,38.48,38.48,0,0,1,1-4.48q.89-2.13,2-2.13a1.44,1.44,0,0,1,1.08.73,1.9,1.9,0,0,1,.46,1,2.66,2.66,0,0,1-.16.8c-.14.43-.3.65-.49.65s-.25-.17-.52-.5a1.08,1.08,0,0,0-.82-.51q-.93,0-1.73,4.44a10.55,10.55,0,0,1-.78,2.72q-.3.54-.51.54c-.13,0-.19-.17-.19-.5a10.67,10.67,0,0,0-.89-3c-.6-1.49-1-2.24-1.27-2.24a.34.34,0,0,0-.33.16c0,.11-.19.17-.42.17a1.8,1.8,0,0,1-1-.59c-.43-.39-.65-.7-.65-.94a4.31,4.31,0,0,1,.54-1.06C107.18,3.54,107.41,3.23,107.5,3.23Z"/><path class="cls-1" d="M144.21,21.22c.41,0,.87-.5,1.39-1.48a.51.51,0,0,1,.14-.21s.07,0,.07,0a.93.93,0,0,1,0,.24c-.42,2.29-1.11,3.44-2.07,3.44s-1.52-.84-1.52-2.53a14.06,14.06,0,0,1,1.8-6.54,3.1,3.1,0,0,1,.54-.87s0,0,0,0a5.39,5.39,0,0,1-.26,1,19.29,19.29,0,0,0-1.17,5q0,1.95,1.05,1.95Z"/><path class="cls-1" d="M127.1,22.86a2.9,2.9,0,0,1,2.36,1.56,10.3,10.3,0,0,1,1.47,4.07,2.38,2.38,0,0,1,0,.3c0,.05.06.05.08,0l.11-.3a40.72,40.72,0,0,1,1-4.48q.9-2.13,1.95-2.13a1.45,1.45,0,0,1,1.08.72,2,2,0,0,1,.47,1,2.94,2.94,0,0,1-.16.8c-.15.44-.31.66-.5.66s-.25-.17-.51-.51a1.11,1.11,0,0,0-.82-.5q-.94,0-1.74,4.43a10.11,10.11,0,0,1-.77,2.72c-.21.36-.38.54-.52.54s-.19-.16-.19-.49a10.33,10.33,0,0,0-.89-3c-.59-1.5-1-2.24-1.27-2.24s-.28,0-.32.16-.19.17-.43.17a1.83,1.83,0,0,1-1-.59c-.43-.39-.64-.7-.64-.94a4.06,4.06,0,0,1,.53-1.07C126.78,23.16,127,22.86,127.1,22.86Z"/><path class="cls-1" d="M110,55.39A2.9,2.9,0,0,1,112.38,57,10.3,10.3,0,0,1,113.85,61c0,.18.05.28.05.31s0,.05.07,0l.12-.31a38.48,38.48,0,0,1,1-4.48c.59-1.42,1.24-2.13,1.94-2.13a1.44,1.44,0,0,1,1.08.73,1.85,1.85,0,0,1,.47,1,2.66,2.66,0,0,1-.16.8c-.14.43-.31.65-.49.65s-.25-.17-.52-.5a1.1,1.1,0,0,0-.82-.51q-.95,0-1.74,4.44a10.23,10.23,0,0,1-.77,2.72c-.2.36-.38.54-.52.54s-.18-.17-.18-.5a10.46,10.46,0,0,0-.9-3c-.59-1.49-1-2.24-1.26-2.24a.34.34,0,0,0-.33.16c0,.11-.19.17-.42.17a1.82,1.82,0,0,1-1-.59c-.43-.39-.64-.7-.64-.94a4.31,4.31,0,0,1,.54-1.06C109.71,55.7,109.93,55.39,110,55.39Z"/><path class="cls-1" d="M93.11,5c.07,0,.07.2,0,.49a2.6,2.6,0,0,1-.56,1.29c-.86.53-2.74,1.79-5.63,3.76-.12.07-.27.18-.44.3s-.06-.07-.08-.16l.17-1c.05-.25.52-.73,1.43-1.43-1.13-.41-1.69-.92-1.69-1.53a3.36,3.36,0,0,1,.89-2.11c1.16-1.39,2.12-2.09,2.89-2.09s1,.4,1,1.18a3.22,3.22,0,0,1-.56,1.57c-.08.14-.17.12-.26-.07-.22-.46-.5-.68-.85-.68a1.79,1.79,0,0,0-1,.4c-.39.26-.58.5-.58.7s.24.48.71.73a2.57,2.57,0,0,0,1.12.37,3.24,3.24,0,0,0,1.36-.58l1.36-.87c.38-.2.6-.29.68-.26Z"/><path class="cls-1" d="M91.73,28.39c.41,0,.87-.49,1.38-1.48a1.51,1.51,0,0,1,.14-.21s.07,0,.07,0a.47.47,0,0,1,0,.24c-.42,2.3-1.11,3.45-2.06,3.45s-1.52-.85-1.52-2.54a14.06,14.06,0,0,1,1.8-6.54,3.55,3.55,0,0,1,.54-.87s0,0,0,0a5.16,5.16,0,0,1-.25,1,18.88,18.88,0,0,0-1.18,5c0,1.3.36,1.95,1.06,1.95Z"/><path class="cls-1" d="M60.79,18.8c.4,0,.87-.49,1.38-1.48a1.51,1.51,0,0,1,.14-.21s.07,0,.07,0a.47.47,0,0,1,0,.24c-.42,2.3-1.11,3.45-2.06,3.45s-1.53-.85-1.53-2.54a14.08,14.08,0,0,1,1.81-6.54,3.55,3.55,0,0,1,.54-.87s0,0,0,0a5.16,5.16,0,0,1-.25,1,18.88,18.88,0,0,0-1.18,5c0,1.3.35,1.95,1.06,1.95Z"/><path class="cls-1" d="M6.64,9.5Q7.26,9.5,8,8a1.21,1.21,0,0,1,.14-.22c.05,0,.07,0,.07,0a.43.43,0,0,1,0,.23c-.42,2.3-1.11,3.45-2.06,3.45S4.65,10.68,4.65,9a14.13,14.13,0,0,1,1.8-6.55A3.55,3.55,0,0,1,7,1.57a0,0,0,0,1,0,0,5.39,5.39,0,0,1-.26,1,19.35,19.35,0,0,0-1.18,5c0,1.29.36,1.94,1.06,1.94Z"/><path class="cls-1" d="M21.31,3.23a2.9,2.9,0,0,1,2.35,1.56,10.3,10.3,0,0,1,1.47,4.07c0,.18.05.28.05.31s.05.05.07,0l.12-.31a38.48,38.48,0,0,1,1-4.48C27,3,27.64,2.25,28.34,2.25A1.44,1.44,0,0,1,29.42,3a1.85,1.85,0,0,1,.47,1,2.66,2.66,0,0,1-.16.8c-.14.43-.31.65-.49.65S29,5.29,28.72,5a1.1,1.1,0,0,0-.82-.51q-.95,0-1.74,4.44a10.23,10.23,0,0,1-.77,2.72c-.2.36-.38.54-.52.54s-.19-.17-.19-.5a10.33,10.33,0,0,0-.89-3c-.59-1.49-1-2.24-1.26-2.24a.34.34,0,0,0-.33.16c-.05.11-.19.17-.42.17a1.82,1.82,0,0,1-1.05-.59c-.43-.39-.64-.7-.64-.94a4.31,4.31,0,0,1,.54-1.06C21,3.54,21.21,3.23,21.31,3.23Z"/><path class="cls-1" d="M67.62,32.7a6.62,6.62,0,0,1-2.11,1.11,10.57,10.57,0,0,1-1.47.37s-.05,0-.05,0a4.33,4.33,0,0,1,1-.66,24.18,24.18,0,0,0,2.81-1.95c.65-.62,1.55-1.62,2.7-3A15.61,15.61,0,0,1,73,26.16a5.67,5.67,0,0,1,3.35-1.22,3.44,3.44,0,0,1,1.06.22,3.54,3.54,0,0,0,1.12.22A1.73,1.73,0,0,0,80,24.73c.28-.44.56-.88.85-1.32s.38-.46.54-.46.11.07.11.21a3.06,3.06,0,0,1-.28,1c-.09.24.45.36,1.64.36.13,0,.2,0,.21-.1a4.14,4.14,0,0,0-.21-.89,1,1,0,0,1,.21-.68c.32-.53.5-.76.57-.7A1.76,1.76,0,0,1,84,23.44a5.11,5.11,0,0,1-.34,1.69A2.53,2.53,0,0,1,83,26.3c-.53.36-1.36.27-2.48-.28a4,4,0,0,1-2.77,1.48,3.08,3.08,0,0,1-1-.22,3.19,3.19,0,0,0-.93-.21,7.08,7.08,0,0,0-4.71,2.21c-1.16,1.14-2.32,2.28-3.5,3.42Z"/><path class="cls-1" d="M70.32,2.58a2.91,2.91,0,0,1,2.36,1.56,10.46,10.46,0,0,1,1.46,4.07,1.69,1.69,0,0,1,0,.31s.06,0,.07,0a2.49,2.49,0,0,0,.12-.31,38.48,38.48,0,0,1,1-4.48c.6-1.42,1.24-2.13,2-2.13a1.44,1.44,0,0,1,1.08.73,1.93,1.93,0,0,1,.47,1,2.62,2.62,0,0,1-.17.79c-.14.44-.3.66-.49.66s-.25-.17-.52-.5a1.08,1.08,0,0,0-.82-.51q-.93,0-1.73,4.44A10.55,10.55,0,0,1,74.4,11q-.3.54-.51.54c-.13,0-.19-.17-.19-.5a10.67,10.67,0,0,0-.89-3c-.6-1.49-1-2.24-1.27-2.24s-.28,0-.33.16-.18.17-.42.17a1.8,1.8,0,0,1-1-.59c-.43-.39-.65-.7-.65-.94a4.13,4.13,0,0,1,.54-1.06C70,2.88,70.23,2.58,70.32,2.58Z"/><path class="cls-1" d="M41.43,1.92q1.29,0,1.29,1.62a5.2,5.2,0,0,1-1,2.72A9.51,9.51,0,0,1,39.13,9a2.67,2.67,0,0,1-.75.45,0,0,0,0,1,0,0c0-.07.18-.29.54-.68q2.63-2.86,2.62-3.83c0-.61-.28-.91-.84-.91a1.39,1.39,0,0,0-.84.26l-.36.21a.26.26,0,0,0-.11-.07c0-.06,0-.23.09-.49.28-1.32.94-2,2-2Z"/><path class="cls-1" d="M124.6,1.6c.85,0,1.29.54,1.29,1.62a5.19,5.19,0,0,1-1,2.72,9.6,9.6,0,0,1-2.6,2.72,2.79,2.79,0,0,1-.75.44s0,0,0,0a2.73,2.73,0,0,1,.54-.68q2.63-2.86,2.63-3.82c0-.61-.28-.92-.85-.92a1.46,1.46,0,0,0-.84.26,1.61,1.61,0,0,1-.35.21.35.35,0,0,0-.12-.07,4.57,4.57,0,0,0,.09-.49c.29-1.32.94-2,2-2Z"/><path class="cls-1" d="M7.73,37.41a6.46,6.46,0,0,1,.1-1.15A19.84,19.84,0,0,1,9,32.41a9.45,9.45,0,0,0,.68-3.49,9,9,0,0,0-3.05-6.36.39.39,0,0,1-.07-.51l.71-1.25q.09-.16.3,0A8.82,8.82,0,0,1,10.57,28a13.26,13.26,0,0,1-1,4.78,11.79,11.79,0,0,0-1,3.48c0,1.3.35,2,1.06,2,.4,0,.86-.5,1.38-1.48a1,1,0,0,1,.14-.21c.05,0,.07,0,.07,0a.47.47,0,0,1,0,.24c-.42,2.3-1.11,3.44-2.06,3.44s-1.46-.93-1.46-2.81Z"/><path class="cls-1" d="M44.33,53.72a2.9,2.9,0,0,1,2.36,1.56,10.24,10.24,0,0,1,1.47,4.07,2.38,2.38,0,0,1,0,.3c0,.05.06.05.07,0a2.08,2.08,0,0,0,.12-.3,40.21,40.21,0,0,1,1-4.48c.6-1.43,1.25-2.14,1.95-2.14a1.44,1.44,0,0,1,1.08.73,2,2,0,0,1,.47,1,2.73,2.73,0,0,1-.17.8c-.14.44-.3.66-.49.66s-.25-.17-.51-.51a1.11,1.11,0,0,0-.83-.5c-.62,0-1.2,1.47-1.73,4.43a10.63,10.63,0,0,1-.77,2.72c-.21.36-.38.54-.52.54s-.19-.16-.19-.49a10.7,10.7,0,0,0-.89-3c-.59-1.49-1-2.24-1.27-2.24s-.28.06-.32.17-.19.16-.43.16a1.8,1.8,0,0,1-1-.58c-.43-.39-.65-.71-.65-.94a4.11,4.11,0,0,1,.54-1.07C44,54,44.24,53.72,44.33,53.72Z"/><path class="cls-1" d="M250.29,43.74a57.71,57.71,0,0,1-6-.73q-1.45-.24-8.42-2.16a40.63,40.63,0,0,0-8-1.73,6.55,6.55,0,0,0-5.93,3.16,10,10,0,0,0-1,5.16,17.76,17.76,0,0,0,.74,4.32,15.93,15.93,0,0,1-2.57-2c-1.32-1.29-2.36-3.67-3.15-7.16s-1.33-7.12-2-10.67q-2-9.64-6.07-15c-.3-.38-.52-.29-.66.28a21.32,21.32,0,0,0-.42,2.3,6.89,6.89,0,0,0-.19,1.9A73.76,73.76,0,0,1,211,32.61a31.33,31.33,0,0,1,1.22,6.94A3.08,3.08,0,0,1,212,41s-.29.42-.84,1.15A30,30,0,0,1,203.75,49q-6.08,4.17-11.35,4.17a4.7,4.7,0,0,1-2.26-.49c1.31-1.22,2.55-2.47,3.71-3.77a10.75,10.75,0,0,0,2.39-7.35,13.89,13.89,0,0,0-2.48-8c-1.28-1.87-2.64-2.81-4.11-2.81a4.92,4.92,0,0,0-3.67,2.1,7.79,7.79,0,0,0-1.91,5.2c0,2.54,1.88,3.82,5.63,3.82h.21a20.83,20.83,0,0,0-2.37,8.85,45.77,45.77,0,0,1-4,2.69c-3.09,1.85-5.71,2.77-7.88,2.77a9.06,9.06,0,0,1-3.13-.49,28.78,28.78,0,0,0,3.5-3.37,11.9,11.9,0,0,0,2.35-4.55,38.89,38.89,0,0,0,1-10q0-2.25-1.78-26.69c0-.41.08-.5.24-.28,1.31,1.53,2,1.95,2,1.26a4.25,4.25,0,0,0-.19-1c-.16-.6-.71-2.14-1.64-4.65S176.45,2.54,176.23,2c-.12-.25-.23-.37-.33-.37s-.19.12-.28.37a14.43,14.43,0,0,0-1.31,3.9,8.38,8.38,0,0,1,.7,3.66q0,2.21,1.13,18.06t1.12,18.71a2.85,2.85,0,0,1-.56,2.11,51.64,51.64,0,0,1-6.82,5.34.86.86,0,0,0-.07-.1,6.93,6.93,0,0,1-1.24-4.19A31.08,31.08,0,0,1,170,41.71a5.16,5.16,0,0,0,.2-1.1.24.24,0,0,0-.1-.23c-.13,0-.35.36-.67,1.09a27.06,27.06,0,0,0-2.1,10.19,12.59,12.59,0,0,0,.45,3.4l-.41.25q-7.54,4.61-12.8,4.6-5.78,0-8.4-4.08a10.09,10.09,0,0,1-1.64-5.54,19.43,19.43,0,0,1,1.36-6.75,4.66,4.66,0,0,0,.37-1.41q0-.24-.09-.24c-.19,0-.5.46-.94,1.36a19.26,19.26,0,0,0-1.78,8.82,15,15,0,0,0,1.87,7.65q2.77,4.83,9,4.83,6,0,14.12-5.77l.88-.63a7.08,7.08,0,0,0,6,2.79q4.62,0,11.35-5.34c.46-.36.9-.73,1.33-1.1a6.71,6.71,0,0,0,.56,1.14,4.1,4.1,0,0,0,3.73,2q4.68,0,10.34-3.59A34.21,34.21,0,0,0,211,46.7a11.67,11.67,0,0,0,2.32-5.48q.83,6.83,2.16,9.66,1.88,4,7.46,6.29v-.75c.08.37.14.65.16.85l-.11.12q.18,1.71.51,1.71c.25,0,.52-.61.8-1.83q3.8,0,11.89-4.29a87.91,87.91,0,0,1,8.42-4.11,12.5,12.5,0,0,1,4.36-.72.71.71,0,0,0,.66-.52l1.17-3a1.35,1.35,0,0,0,.12-.46C251,43.87,250.74,43.74,250.29,43.74Zm-61-6.27c-1.84,0-2.77-.45-2.77-1.34s.7-1.14,2.1-1.14a3.25,3.25,0,0,1,2,.9,6.37,6.37,0,0,1,1.38,1.72A14.32,14.32,0,0,0,189.27,37.47Zm-.72,11.84q0-2.41,2.06-7.43c2.47.12,3.8.75,4,1.88-.28.8-1.51,2.18-3.67,4.15-.78.7-1.57,1.36-2.36,2A5.54,5.54,0,0,1,188.55,49.31Zm45.88.53c-4.05,1.82-7.05,2.74-9,2.74a9.87,9.87,0,0,1-1.22-.07c-.93-2.67-1.65-4.63-2.16-5.86a2.8,2.8,0,0,1,1.24-2,4.77,4.77,0,0,1,3.19-1.19q3.5,0,14.52,3.47Z"/><path class="cls-1" d="M232.57,59.57a9.61,9.61,0,0,0-2-1.22c-.11,0-.21.1-.3.28l-1.51,3.08c-.06.14-.06.23,0,.28q1.89,1.17,3.64,2.51c.14.11.27,0,.4-.17A9.11,9.11,0,0,0,234.35,61C234.35,60.86,233.76,60.39,232.57,59.57Z"/><path class="cls-1" d="M143.1,37.07c-.81-1.93-2-2.9-3.55-2.9a5.78,5.78,0,0,0-3.92,2,12,12,0,0,0-2.23,3c-.34.07-.72.56-1.12,1.48-.88,1.93-1.42,3.08-1.63,3.45a7.23,7.23,0,0,1-3.81,3.2,11.63,11.63,0,0,1-4.37,1v-.07A2.68,2.68,0,0,1,120,46.91a4.53,4.53,0,0,1-.66-2.49,3.46,3.46,0,0,1,.12-.77,4.14,4.14,0,0,0,.11-.73.42.42,0,0,0-.48-.48,1.25,1.25,0,0,0-.89.43,52.67,52.67,0,0,1-5.06,4.7,11,11,0,0,1-6.47,2A5.2,5.2,0,0,1,104,49c-1.16-.75-1.93-2.31-2.34-4.68q-.21-1.2-.56-14.41-.37-14-.89-18.68Q99.44,3.65,97.81.51C97.64.17,97.51,0,97.4,0s-.23.2-.4.61a10.89,10.89,0,0,0-1,3.71,50.09,50.09,0,0,1,2,9.86q.33,3.22.76,17.53.41,13.17.89,15.86.77,4.35,2.92,6a6.87,6.87,0,0,0,4.08,1.11h.17a10.37,10.37,0,0,0,6.62-2.76,47.74,47.74,0,0,0,3.27-3.59,1.13,1.13,0,0,1,.82-.48c.17,0,.25.09.25.28q.18,5.14,4.55,5.23v.07a8.36,8.36,0,0,0,5.79-2.59,16.83,16.83,0,0,0,4.07-6.2,15.23,15.23,0,0,0,9.35,3.61c.61,0,1.18-.63,1.7-1.88A11.33,11.33,0,0,0,144,41.9,12.13,12.13,0,0,0,143.1,37.07Zm-2.54,6A2.26,2.26,0,0,1,140,43,15.4,15.4,0,0,1,135,40.57a1.12,1.12,0,0,1,.56-.86,3.58,3.58,0,0,1,2.14-.56,2.73,2.73,0,0,1,1.83.84,4.47,4.47,0,0,1,1.27,2,4.07,4.07,0,0,1,.1.71C140.92,42.93,140.8,43.07,140.56,43.07Z"/><path class="cls-1" d="M92.78,43.49c-.33-.92-.65-1.37-1-1.37-.14,0-.26.18-.38.56a33.82,33.82,0,0,0-1.07,3.58q0,.23.48.69c.33.3.49.51.49.63a2.39,2.39,0,0,1-2.24.92,3.87,3.87,0,0,1-2.52-.94,2.4,2.4,0,0,1-1-1.78,13.36,13.36,0,0,0,.51-2,2.05,2.05,0,0,0,.08-.51c0-.37-.12-.56-.36-.56s-.46.17-.76.51c-.86,1.34-1.73,2.67-2.59,4a6.35,6.35,0,0,1-5.21,2.64A6.29,6.29,0,0,1,73.64,49a3.08,3.08,0,0,1-1.45-2.72,5.2,5.2,0,0,1,.31-1.7c.2-.61.07-.92-.38-.92a1.36,1.36,0,0,0-.92.48,56.38,56.38,0,0,1-5.06,4.73,11.11,11.11,0,0,1-6.45,2,4,4,0,0,1-2.5-.71,6.59,6.59,0,0,1-1.88-4Q54.76,43.6,54.45,33q-.31-11.79-1-17.38A83.87,83.87,0,0,0,50.74,1.81c-.1-.37-.22-.56-.36-.56s-.22.19-.35.56a44.86,44.86,0,0,0-.87,4.42q1.06,6.36,1.48,9.81a192,192,0,0,1,1.22,22.82c0,2.38-.23,4.48-3.31,6.31a68.42,68.42,0,0,1-13.79,5.94A56.35,56.35,0,0,1,18.2,54q-8.67,0-13.15-2.9c-2.18-1.39-3.27-2.89-3.27-4.52a9.51,9.51,0,0,1,.85-4l1.56-2.94a4.24,4.24,0,0,0,.5-1.48c0-.13-.05-.2-.14-.2-.24,0-.69.42-1.35,1.27A14.14,14.14,0,0,0,0,48.06,9.22,9.22,0,0,0,3,55q4.39,4.11,14.14,4.11,8.61,0,19.41-4,9.09-3.36,13.86-6.91c1.37-1,1.29-2.85,2-5.39.21,4.88.83,8.25,1.88,10.11a5.86,5.86,0,0,0,5.37,3h.17a10.42,10.42,0,0,0,6.62-2.77,48.24,48.24,0,0,0,3.28-3.58,1.13,1.13,0,0,1,.81-.49c.15,0,.24.1.25.28A7.67,7.67,0,0,0,71.63,53q1.31,2,4.6,2,4.42,0,7.14-4.9,1.86,3.27,4,3.27a5,5,0,0,0,4.58-2.71,10.72,10.72,0,0,0,1.24-5.37A6.23,6.23,0,0,0,92.78,43.49Z"/><path class="cls-1" d="M117,37.2q-1.91-1.46-3.94-2.72c-.06,0-.06-.15,0-.31l1.63-3.33q.15-.3.33-.3a10.33,10.33,0,0,1,2.19,1.32c1.28.88,1.93,1.4,1.93,1.55,0,.58-.57,1.78-1.71,3.61-.13.24-.28.3-.43.18Z"/><path class="cls-1" d="M40.54,34.05c0,.65-.56,1.82-1.66,3.54S37,40.15,36.47,40.15l-2.25.52a16.09,16.09,0,0,1-3.49.52c-.56,0-.84-.06-.84-.17s1.45-.94,4.35-2.29c2.22-1,3.33-1.75,3.33-2.14,0-.08-.45-.14-1.35-.17A7.62,7.62,0,0,1,33.68,36a2,2,0,0,1-1.35-2q0-2.67,2.62-6Q37.41,25,38.81,25c.8,0,1.2.42,1.2,1.27a5.55,5.55,0,0,1-.46,2.05c-.36.87-.76,1.3-1.2,1.3a.43.43,0,0,1-.47-.34.45.45,0,0,0-.49-.35c-.29,0-.81.34-1.58,1s-1.14,1.15-1.14,1.43c0,.58,1,.94,2.93,1.07S40.54,33.09,40.54,34.05Z"/></g></g></svg>