<?xml version="1.0" encoding="UTF-8"?>
<svg id="Layer_1" data-name="Layer 1" xmlns="http://www.w3.org/2000/svg" viewBox="0 0 310.76 102.09">
  <g>
    <path d="M301.13,26.54c-.24-.73-.97-2.72-2.19-5.96-1.18-3.12-1.93-5.03-2.25-5.72-.16-.36-.3-.55-.43-.55s-.24.16-.36.49c-1.14,2.68-1.7,4.36-1.7,5.05.61,1.26.91,2.86.91,4.8,0,2.15.44,9.21,1.31,21.19.87,11.98,1.31,18.82,1.31,20.52,0,2.8-.26,4.42-.79,4.86-1.82,1.5-3.86,2.79-5.8,2.79-1.7,0-3-.45-3.89-1.34-1.32-1.34-2.31-3.95-2.98-7.84-1.12-6.42-2.37-10.98-3.77-13.68-.2-.38-.35-.58-.46-.58s-.28.28-.55.85c-.63,1.38-.94,3.21-.94,5.5,0,.06.14.54.43,1.43.59,1.82,1.18,4.12,1.76,6.9.57,2.61.85,4.25.85,4.89,0,2.72-1.33,3.99-4.37,3.99-1.3,0-2.27-.53-2.92-1.58-.53-.83-.79-1.82-.79-2.98,0-.22.05-.53.14-.93.09-.4.14-.68.14-.87,0-.38-.19-.58-.58-.58-.36,0-.72.17-1.06.52-3.14,3.14-5.16,5.02-6.05,5.62-2.23,1.56-4.8,2.35-7.72,2.36-1.32-.02-2.32-.29-2.99-.84-1.05-.85-1.8-2.43-2.25-4.74-.45-2.03-.79-7.28-1.03-15.75-.24-9.4-.63-16.33-1.15-20.79-.85-6.65-1.95-12.14-3.28-16.48-.12-.45-.26-.67-.43-.67-.12,0-.26.22-.43.67-.2.61-.55,2.37-1.03,5.29.85,5.07,1.44,8.98,1.76,11.73.97,8.03,1.46,17.13,1.46,27.3,0,2.84-1.32,5.35-3.95,7.54-3.32,2.72-7.26,5.09-11.8,7.11-5.23,2.27-9.95,3.4-14.17,3.4-4.95,0-8.69-1.16-11.25-3.47-1.86-1.66-2.8-3.47-2.8-5.41,0-1.66.24-3.24.73-4.74.45-1.18.89-2.35,1.34-3.53.28-.85.43-1.44.43-1.76,0-.16-.04-.24-.12-.24-.2,0-.59.51-1.16,1.52-1.82,3.28-2.74,6.81-2.74,10.58,0,3.24.85,6,2.55,8.27,2.51,3.28,6.55,4.92,12.1,4.92,4.9,0,10.44-1.58,16.6-4.74,5.19-2.68,9.14-5.43,11.86-8.27,1.18-1.26,2.17-3.4,2.98-6.44.24,5.84.99,9.87,2.25,12.1,1.31,2.3,3.45,3.46,6.42,3.52h0s.07,0,.1,0c.04,0,.07,0,.1,0h0c2.76-.06,5.4-1.16,7.91-3.31.59-.51,1.89-1.94,3.92-4.29.32-.38.65-.58.97-.58.2,0,.3.11.3.33.14,4.18,2.02,6.26,5.62,6.26,1.3,0,2.31-.6,3.4-1.96,1.2-1.46,1.99-3.44,2.37-5.93.49,2.61,1.56,4.61,3.22,5.99,1.44,1.18,3.08,1.76,4.92,1.76,2.43,0,4.69-1.96,6.47-4.79,2.11-3.36,3.16-7.98,3.16-13.86,0-2.03-.39-8.31-1.15-18.85-.77-10.54-1.16-15.87-1.16-15.99,0-.53.1-.65.3-.36,1.7,1.95,2.55,2.47,2.55,1.58,0-.24-.06-.67-.18-1.28Z" fill="#878787"/>
    <path d="M200.28,75.26c6.91-4.48,10.37-9.16,10.37-14.05s-1.49-10.88-4.47-17.45c-2.68-5.88-6-11.27-9.97-16.17-.1-.12-2.29-3.08-6.57-8.88-.3-.43-.83-1.01-1.58-1.76-.55-.55-.82-.91-.82-1.09v-5.81c0-.59.14-.88.43-.88.14,0,.32.09.55.27l10.55,8.97c.65.55.97.96.97,1.25,0,.18-.16.27-.49.27-.47,0-1.25-.21-2.34-.64-.81-.3-1.22-.36-1.22-.18,0,.1.14.29.43.58,4.62,4.62,8.46,10.09,11.52,16.42,3.47,7.15,5.2,14.11,5.2,20.85s-1.55,12.16-4.65,16.54c-2.41,3.4-5.17,5.82-8.27,7.24-1.22.57-3.3,1.24-6.26,2.01-2.96.77-5.14,1.22-6.54,1.34-.57.06-.85.01-.85-.15,0-.14.27-.4.82-.76,2.7-1.52,7.09-4.15,13.19-7.9h0Z" fill="#878787"/>
    <path d="M187.78,33.27c-.25-.76-1.01-2.82-2.27-6.19-1.22-3.24-2-5.22-2.34-5.93-.17-.38-.32-.57-.44-.57s-.25.17-.38.51c-1.18,2.78-1.77,4.52-1.77,5.24.63,1.3.95,2.97.95,4.99,0,1.73.26,6.11.79,13.16.53,7.05.79,11.69.79,13.92,0,2.9-.27,4.59-.82,5.05-1.89,1.56-4.17,2.71-6.19,2.71-1.41,0-2.48-.29-3.22-.88-1.05-.86-1.83-2.5-2.34-4.92-.46-2.21-.84-7.35-1.14-15.43-.34-9.13-.61-14.64-.82-16.54-.74-6.84-1.77-12.55-3.09-17.14-.15-.46-.28-.69-.41-.69s-.28.22-.46.65c-.18.43-.56,2.26-1.15,5.48.78,4.82,1.34,8.89,1.67,12.21.76,7.32,1.14,14.37,1.14,21.15,0,2.95-2.31,5.19-6.46,6.93-1.22.55-4.06,1.22-8.52,2.02,1.56-2.23,2.34-5.83,2.34-10.79,0-.8-.25-2.57-.76-5.3-.46-2.95-.73-4.81-.79-5.59-.06-.78-.24-1.17-.54-1.17-.25,0-.48.27-.69.82-1.22,3.16-1.94,5.13-2.15,5.93-1.64,5.22-2.97,9.64-3.98,13.26l-5.22,1.35c-5.13,2.1-7.7,5.82-7.7,11.14,0,.74.05,1.48.16,2.24-3.93,1.81-8.46,4.87-13.57,9.18-2.59,2.23-5.18,4.46-7.76,6.69-2.1,1.56-4.35,2.34-6.72,2.34-1.45,0-2.6-.54-3.44-1.61-.78-1.01-1.17-2.34-1.17-3.98,0-2.17.69-5.12,2.08-8.85,1.39-3.73,2.08-5.92,2.08-6.55,0-.15-.04-.23-.13-.25-.19,0-.45.33-.79.98-3.2,6.25-4.8,11.32-4.8,15.21,0,2.82.82,5.21,2.46,7.16,1.56,1.87,3.38,2.81,5.46,2.81s4.17-.9,6.56-2.71c3.22-2.65,6.45-5.3,9.69-7.95,4.42-3.49,8.34-5.92,11.77-7.29,2.67,5.05,5.65,7.58,8.93,7.58,1.45,0,2.62-.66,3.5-1.99.88-1.33,1.33-3.01,1.33-5.05,0-2.46-.52-4.44-1.56-5.95-1.04-1.5-2.46-2.26-4.25-2.26s-4.07.47-6.91,1.42c-.69-1.43-1.04-2.45-1.04-3.06,0-.25.59-.75,1.78-1.5,1.19-.75,2.53-1.44,4.02-2.07,1.22-.51,2.65-.49,3.71-.66.21,0,.32.09.32.25,0,.09-.04.25-.13.51-.08.25-.13.44-.13.57s.04.22.13.28c.08.06.36.09.82.09.34-.04.53.1.57.44.46,4.04,1.96,7.43,4.48,10.16,2.27,2.44,4.67,3.66,7.2,3.66,4,0,6-2.8,6-8.4,0-1.39-.42-2.75-1.26-4.07-.84-1.33-1.89-2.26-3.16-2.81.46-.08,1.05-.27,1.77-.57,3.66-1.58,6.28-4.57,7.37-9.17,0,7.85.68,12.96,2.05,15.34,1.41,2.44,3.69,3.66,6.85,3.66,2.52,0,5.03-1.85,6.89-4.79,2.19-3.49,3.28-8.29,3.28-14.39,0-2.1-.21-5.92-.63-11.46-.42-5.53-.63-8.36-.63-8.49,0-.55.1-.67.32-.38,1.77,2.02,2.65,2.57,2.65,1.64,0-.25-.06-.69-.19-1.33ZM143.14,74.95c1.03.42,1.55.98,1.55,1.67,0,.55-.45.82-1.36.82-1.87,0-3.59-.9-5.14-2.71,2.08-.36,3.73-.28,4.96.22ZM146.31,55.63c.21-1.94,1.49-5.87,3.85-11.8,1.18,2.99,1.77,5.16,1.77,6.5,0,2.1-1.87,3.87-5.62,5.3ZM159.63,71.04c.34.46.51.82.51,1.07,0,.46-.69.69-2.08.69-1.68,0-3.3-.74-4.86-2.21-1.39-1.3-2.44-2.9-3.16-4.8,1.35.13,3.03.72,5.05,1.77,2.23,1.09,3.75,2.25,4.54,3.47Z" fill="#878787"/>
    <path d="M114.21,25.61c-.25-.76-1.01-2.82-2.27-6.19-1.22-3.24-2-5.22-2.34-5.93-.17-.38-.32-.57-.44-.57s-.25.17-.38.51c-1.18,2.78-1.77,4.52-1.77,5.24.63,1.3.95,2.97.95,4.99,0,2.23.45,9.56,1.36,22,.9,12.44,1.36,19.54,1.36,21.3,0,2.9-.27,4.59-.82,5.05-1.89,1.56-4,2.89-6.02,2.89-1.77,0-3.11-.46-4.04-1.39-1.37-1.39-2.4-4.1-3.09-8.14-1.16-6.67-2.46-11.4-3.91-14.2-.21-.4-.37-.6-.47-.6s-.29.29-.57.88c-.65,1.43-.98,3.34-.98,5.71,0,.06.15.56.44,1.48.61,1.89,1.22,4.28,1.83,7.16.59,2.71.88,4.41.88,5.08,0,2.76-1.52,4.16-4.54,4.22v-.07c-1.35,0-2.36-.55-3.03-1.64-.55-.86-.82-1.89-.82-3.09,0-.23.05-.55.14-.96.09-.41.14-.71.14-.9,0-.4-.2-.6-.6-.6-.38,0-.75.18-1.1.54-3.26,3.26-5.36,5.21-6.28,5.84-2.31,1.62-4.99,2.44-8.02,2.46-1.37-.02-2.41-.3-3.1-.88-1.09-.88-1.87-2.53-2.34-4.92-.46-2.1-.82-7.55-1.07-16.35-.25-9.76-.65-16.96-1.2-21.59-.88-6.9-2.02-12.6-3.41-17.11-.13-.46-.27-.69-.44-.69-.13,0-.27.23-.44.69-.21.63-.57,2.46-1.07,5.49.88,5.26,1.49,9.32,1.83,12.18,1.01,8.33,1.51,17.78,1.51,28.34,0,2.95-1.37,5.55-4.1,7.83-3.45,2.82-7.53,5.28-12.25,7.39-5.43,2.36-10.33,3.54-14.71,3.54-5.13,0-9.03-1.2-11.68-3.6-1.94-1.73-2.9-3.6-2.9-5.62,0-1.73.25-3.37.76-4.92.46-1.22.93-2.44,1.39-3.66.29-.88.44-1.49.44-1.83,0-.17-.04-.25-.13-.25-.21,0-.61.53-1.2,1.58-1.89,3.41-2.84,7.07-2.84,10.98,0,3.37.88,6.23,2.65,8.58,2.61,3.41,6.8,5.11,12.56,5.11,5.09,0,10.84-1.64,17.23-4.92,5.39-2.78,9.49-5.64,12.31-8.58,1.22-1.3,2.25-3.53,3.09-6.69.25,6.06,1.03,10.25,2.34,12.56,1.36,2.39,3.58,3.6,6.67,3.65h0s.07,0,.11,0c.04,0,.07,0,.11,0h0c2.87-.06,5.61-1.2,8.21-3.44.61-.53,1.97-2.01,4.07-4.45.34-.4.67-.6,1.01-.6.21,0,.32.12.32.35.14,4.26,2.03,6.41,5.65,6.49v.1c1.35,0,2.59-.7,3.72-2.11,1.24-1.51,2.06-3.57,2.46-6.15.51,2.71,1.62,4.79,3.35,6.22,1.49,1.22,3.2,1.83,5.11,1.83h0c2.52,0,4.86-2.03,6.72-4.98,2.19-3.49,3.28-8.29,3.28-14.39,0-2.1-.4-8.63-1.2-19.57-.8-10.94-1.2-16.48-1.2-16.6,0-.55.1-.67.32-.38,1.77,2.02,2.65,2.57,2.65,1.64,0-.25-.06-.69-.19-1.33Z" fill="#878787"/>
    <path d="M278.93,92.35c-1.52-1.16-3.09-2.24-4.71-3.25-.08-.06-.08-.18,0-.36l1.95-3.98c.12-.24.25-.36.4-.36.2,0,1.07.53,2.61,1.58,1.54,1.05,2.31,1.67,2.31,1.85,0,.69-.68,2.13-2.04,4.32-.16.28-.33.35-.52.21h0Z" fill="#878787"/>
    <path d="M261.46,87.61l1.55-3.19c.12-.24.25-.36.4-.36.2,0,1.07.53,2.61,1.58,1.54,1.05,2.31,1.67,2.31,1.85,0,.69-.68,2.13-2.04,4.32-.16.26-.33.33-.52.21-1.34-.99-2.85-2.04-4.53-3.13-.57,1.28-1.12,2.36-1.67,3.25-.16.28-.33.35-.52.21-1.52-1.16-3.09-2.24-4.71-3.25-.08-.06-.08-.18,0-.36l1.95-3.98c.12-.24.25-.36.4-.36.18,0,.92.44,2.22,1.31,1.3.87,2.15,1.51,2.55,1.92Z" fill="#878787"/>
    <path d="M234.46,61.2c0,.77-.66,2.18-1.99,4.23-1.33,2.05-2.29,3.07-2.87,3.07-.02,0-.92.21-2.69.62-1.77.42-3.17.62-4.18.62-.67,0-1-.07-1-.21,0-.2,1.73-1.11,5.2-2.74,2.65-1.24,3.98-2.09,3.98-2.55,0-.1-.54-.17-1.61-.21-1.34-.04-2.35-.2-3.04-.49-1.07-.47-1.61-1.26-1.61-2.37,0-2.13,1.04-4.52,3.13-7.17,1.97-2.45,3.51-3.68,4.62-3.68.95,0,1.43.51,1.43,1.52,0,.75-.18,1.57-.55,2.46-.43,1.03-.9,1.55-1.43,1.55-.3,0-.49-.14-.56-.41-.07-.27-.27-.41-.59-.41-.34,0-.97.4-1.88,1.2-.91.8-1.37,1.37-1.37,1.72,0,.69,1.17,1.11,3.51,1.28,2.34.16,3.51.82,3.51,1.98Z" fill="#878787"/>
    <path d="M91.17,93.94c-1.58-1.2-3.21-2.33-4.89-3.38-.08-.06-.08-.19,0-.38l2.02-4.13c.13-.25.26-.38.41-.38.21,0,1.12.55,2.71,1.64,1.6,1.09,2.4,1.74,2.4,1.93,0,.72-.71,2.21-2.11,4.48-.17.29-.35.37-.54.22h0Z" fill="#878787"/>
    <path d="M73.03,89.01l1.61-3.31c.13-.25.26-.38.41-.38.21,0,1.12.55,2.71,1.64,1.6,1.09,2.4,1.74,2.4,1.93,0,.72-.71,2.21-2.11,4.48-.17.27-.35.35-.54.22-1.39-1.03-2.96-2.11-4.7-3.25-.59,1.33-1.17,2.45-1.74,3.38-.17.29-.35.37-.54.22-1.58-1.2-3.21-2.33-4.89-3.38-.08-.06-.08-.19,0-.38l2.02-4.13c.13-.25.26-.38.41-.38.19,0,.96.45,2.3,1.36,1.35.91,2.23,1.57,2.65,1.99Z" fill="#878787"/>
    <path d="M44.22,61.6c0,.8-.69,2.26-2.07,4.39-1.38,2.12-2.37,3.19-2.98,3.19-.02,0-.95.22-2.79.65-1.84.43-3.29.65-4.34.65-.69,0-1.04-.07-1.04-.22,0-.21,1.8-1.16,5.4-2.84,2.76-1.28,4.13-2.17,4.13-2.65,0-.11-.56-.18-1.67-.22-1.39-.04-2.44-.21-3.16-.51-1.11-.48-1.67-1.3-1.67-2.46,0-2.21,1.08-4.69,3.25-7.45,2.04-2.55,3.64-3.82,4.8-3.82.99,0,1.48.53,1.48,1.58,0,.78-.19,1.63-.57,2.56-.44,1.07-.94,1.61-1.48,1.61-.32,0-.51-.14-.58-.43-.07-.28-.28-.43-.62-.43-.36,0-1.01.42-1.96,1.25-.95.83-1.42,1.43-1.42,1.78,0,.72,1.22,1.16,3.65,1.33,2.43.17,3.65.85,3.65,2.05Z" fill="#878787"/>
  </g>
  <g>
    <path d="M275.81,19.75c.21-.86.57-1.8,1.07-2.81,7.93-2.95,16.22-6.02,24.87-9.22.34-.13.54-.17.6-.13.08.06.06.24-.06.54-.38.93-.68,1.48-.92,1.67-7.26,2.67-15.78,5.99-25.57,9.94h0Z" fill="#b79c80"/>
    <path d="M292.07,61c0,2.36-.37,4.32-1.1,5.9-.23.51-.42.81-.57.92-.13.1-.2.04-.22-.19,0-.23.05-.55.15-.95.1-.4.25-1.14.45-2.21.06-.55.09-1.07.09-1.58,0-3.96-1.68-7.42-5.05-10.38-.21-.19-.24-.42-.09-.69l.95-1.67c.08-.15.22-.15.41,0,3.32,2.55,4.99,6.17,4.99,10.86h0Z" fill="#b79c80"/>
    <path d="M278.18,40.04c.34.84.51,1.48.51,1.93,0,.82-.18,1.67-.54,2.56-.48,1.14-1.1,1.7-1.86,1.7-1.2,0-2.05-.82-2.56-2.46-.57,2.1-1.61,3.16-3.12,3.16-.57,0-1.06-.28-1.48-.85-.48-.67-.73-1.56-.73-2.65v-2.59c0-.21-.14-.36-.43-.44-.28-.08-.43-.3-.43-.66,0-.57.24-1.13.73-1.67.44-.48.78-.73,1.01-.73.29,0,.44.57.44,1.7,0,.59-.05,1.08-.14,1.48-.09.4-.14.75-.14,1.04,0,.61.13,1.2.38,1.77.29.65.66.98,1.1.98.57,0,1.1-.26,1.59-.77.49-.52.74-1.12.74-1.81,0-.4-.12-1.08-.35-2.05-.23-.97-.35-1.57-.35-1.8,0-.21.11-.54.32-.99.21-.45.37-.68.47-.68.19,0,.44.64.74,1.93.3,1.28.46,2.23.46,2.84,0,1.77.68,2.65,2.05,2.65.59,0,.96-.29,1.1-.88-1.18-2.06-1.77-3.64-1.77-4.73,0-.63.16-1.19.47-1.67.21-.34.36-.52.44-.54.08,0,.15.21.19.63.06.59.16,1.07.28,1.45.02.04.3.77.85,2.18h0Z" fill="#b79c80"/>
    <path d="M262.08,52.39c5.83,0,8.74.67,8.74,2.02,0,.55-.69,1.79-2.08,3.72-1.56,2.17-3.04,3.76-4.45,4.77-.9.63-3.9,1.62-9,2.97-.9.23-1.36.32-1.36.25.06-.08.38-.35.95-.79.65-.51,2.46-1.54,5.43-3.09,2.84-1.52,4.5-2.48,4.99-2.9.08-.08.13-.17.13-.25,0-.67-2.53-1.01-7.57-1.01-.02,0-.99.04-2.9.13-.93.04-1.39-.02-1.39-.19,0-.13.12-.39.35-.79l1.8-3.03c.53-.88,1.48-1.44,2.87-1.67.51-.08,1.67-.13,3.5-.13h0Z" fill="#b79c80"/>
    <path d="M286.78,38.34c.55,0,1.17-.66,1.86-1.99.06-.13.13-.22.19-.28.06-.04.09-.03.09.03.02.06.02.17,0,.32-.57,3.09-1.49,4.64-2.78,4.64-1.37,0-2.05-1.14-2.05-3.41,0-2.8.81-5.73,2.43-8.81.4-.76.64-1.15.73-1.17.02,0,.03.01.03.03,0,.15-.12.58-.35,1.29-1.05,3.2-1.58,5.44-1.58,6.72,0,1.75.47,2.62,1.42,2.62h0Z" fill="#b79c80"/>
    <path d="M254.22,12.5c1.18,0,2.24.7,3.17,2.1.94,1.4,1.59,3.22,1.97,5.48.04.23.06.37.06.41.04.06.07.06.09,0,.02-.04.07-.18.16-.41.19-1.35.65-3.36,1.39-6.03.8-1.91,1.67-2.87,2.62-2.87.48,0,.97.33,1.45.98.42.57.63,1.03.63,1.39,0,.27-.07.63-.22,1.07-.19.59-.41.88-.66.88-.11,0-.34-.23-.69-.68-.36-.45-.73-.68-1.1-.68-.84,0-1.62,1.99-2.34,5.97-.32,1.73-.66,2.95-1.04,3.66-.27.48-.51.73-.69.73-.17,0-.25-.22-.25-.66,0-.69-.4-2.05-1.2-4.06-.8-2.01-1.37-3.01-1.7-3.01-.23,0-.38.07-.44.22-.06.15-.25.22-.57.22-.36,0-.83-.26-1.4-.79-.58-.53-.87-.95-.87-1.26,0-.15.24-.63.73-1.44.48-.81.79-1.22.92-1.22Z" fill="#b79c80"/>
    <path d="M289.13,20.28c.04.06,0,.25-.13.57-.42,1.05-.73,1.65-.92,1.8-.06.04-4.49,1.68-13.29,4.92-9.17,3.39-14.74,5.59-16.7,6.6-1.54.8-2.3,1.35-2.3,1.64,0,.19.25.41.76.66.51.25,1.32.57,2.43.95.19.06.28.47.28,1.23,0,.65-.03,1.04-.09,1.15-.06.12-.29.13-.69.05-2.55-.48-3.82-1.38-3.82-2.68,0-.74.35-1.68,1.06-2.84.71-1.16,1.45-1.98,2.23-2.46.69-.44,5.89-2.44,15.59-6,4.99-1.81,9.96-3.62,14.93-5.43.38-.15.6-.2.66-.16h0Z" fill="#b79c80"/>
    <path d="M252.4,7.6c.04.06,0,.25-.13.57-.42,1.05-.73,1.65-.92,1.8-.06.04-6.08,2.28-18.05,6.72-12.33,4.59-19.47,7.39-21.43,8.4-1.54.8-2.3,1.35-2.3,1.64,0,.19.25.41.76.66.51.25,1.32.57,2.43.95.19.06.28.47.28,1.23,0,.65-.03,1.04-.09,1.15-.06.12-.29.13-.69.05-2.55-.48-3.82-1.38-3.82-2.68,0-.74.35-1.68,1.06-2.84.71-1.16,1.45-1.98,2.23-2.46.69-.44,7.48-3.04,20.36-7.8,6.54-2.42,13.1-4.83,19.66-7.23.38-.15.6-.2.66-.16h0Z" fill="#b79c80"/>
    <path d="M162.14,28.35c.34.84.51,1.48.51,1.93,0,.82-.18,1.67-.54,2.56-.48,1.14-1.1,1.7-1.86,1.7-1.2,0-2.05-.82-2.56-2.46-.57,2.1-1.61,3.16-3.12,3.16-.57,0-1.06-.28-1.48-.85-.48-.67-.73-1.56-.73-2.65v-2.59c0-.21-.14-.36-.43-.44-.28-.08-.43-.3-.43-.66,0-.57.24-1.13.73-1.67.44-.48.78-.73,1.01-.73.29,0,.44.57.44,1.7,0,.59-.05,1.08-.14,1.48-.09.4-.14.75-.14,1.04,0,.61.13,1.2.38,1.77.29.65.66.98,1.1.98.57,0,1.1-.26,1.59-.77.49-.52.74-1.12.74-1.81,0-.4-.12-1.08-.35-2.05-.23-.97-.35-1.57-.35-1.8,0-.21.11-.54.32-.99.21-.45.37-.68.47-.68.19,0,.44.64.74,1.93.3,1.28.46,2.23.46,2.84,0,1.77.68,2.65,2.05,2.65.59,0,.96-.29,1.1-.88-1.18-2.06-1.77-3.64-1.77-4.73,0-.63.16-1.19.47-1.67.21-.34.36-.52.44-.54.08,0,.15.21.19.63.06.59.16,1.07.28,1.45.02.04.3.77.85,2.18h0Z" fill="#b79c80"/>
    <path d="M158.81,17.6c0,1.3-.23,2.54-.69,3.69-.21.51-.4.76-.57.76-.21,0-.24-.33-.09-.98.1-.57.16-1.3.16-2.21,0-2.95-1.65-5.88-4.96-8.81-.21-.19-.24-.42-.09-.69l.95-1.67c.08-.15.22-.15.41,0,3.26,2.42,4.89,5.72,4.89,9.91h0Z" fill="#b79c80"/>
    <path d="M193.88,50.53c0,1.98-.48,4.12-1.45,6.44,2.21,1.62,3.24,3.24,3.09,4.86-.15,1.75-.39,2.84-.73,3.28-.97,1.3-2.17,1.96-3.6,1.96s-2.08-.84-2.08-2.53c0-.38.04-.79.13-1.23.23-1.41.89-3.41,1.99-6,.93-2.21,1.39-4.06,1.39-5.56,0-2.97-1.37-5.82-4.1-8.55-.21-.21-.24-.44-.09-.69l.95-1.67c.08-.15.22-.15.41,0,2.73,2.25,4.1,5.48,4.1,9.69h0ZM194.58,62.59c0-.61-1.09-1.53-3.28-2.75-.67,1.28-1.01,2.44-1.01,3.47,0,.65.31.98.92.98.55,0,1.18-.19,1.89-.57.71-.38,1.21-.76,1.48-1.14Z" fill="#b79c80"/>
    <path d="M136.12,20.8c2.99-1.81,5.22-3.48,6.69-5.02-1.96-1.01-2.94-2.07-2.94-3.19,0-1.35.62-2.58,1.86-3.69,1.24-1.12,2.27-1.53,3.09-1.23.69.25,1.04,1,1.04,2.24,0,1.12-.23,2.37-.69,3.76.99.57,1.61,1.05,1.86,1.45,0,.53-.44,1.42-1.33,2.68-.25-.4-.85-.88-1.8-1.45-1.09,1.51-2.48,2.89-4.17,4.13-1.91,1.41-3.67,2.47-5.27,3.19-.34.17-2.19.87-5.55,2.11-.53.19-.87.28-1.04.28-.08,0-.13-.02-.13-.06,0-.13.29-.38.88-.76,2.48-1.47,4.98-2.96,7.48-4.45h0ZM141.67,11.21c0,.48.78,1.1,2.34,1.86.19-.61.23-1.22.13-1.83-.13-.67-.43-1.01-.92-1.01-.23,0-.55.11-.95.33-.4.22-.6.44-.6.65h0Z" fill="#b79c80"/>
    <path d="M140.34,46.27c.34.84.5,1.48.5,1.93,0,.82-.18,1.67-.54,2.56-.48,1.14-1.1,1.7-1.86,1.7-1.2,0-2.05-.82-2.56-2.46-.57,2.1-1.61,3.16-3.12,3.16-.57,0-1.06-.28-1.48-.85-.48-.67-.73-1.56-.73-2.65v-2.59c0-.21-.14-.36-.43-.44-.28-.08-.43-.3-.43-.66,0-.57.24-1.13.73-1.67.44-.48.78-.73,1.01-.73.29,0,.44.57.44,1.7,0,.59-.05,1.08-.14,1.48-.09.4-.14.75-.14,1.04,0,.61.13,1.2.38,1.77.29.65.66.98,1.1.98.57,0,1.1-.26,1.59-.77.49-.52.74-1.12.74-1.81,0-.4-.12-1.08-.35-2.05-.23-.97-.35-1.57-.35-1.8,0-.21.11-.54.32-.99.21-.45.37-.68.47-.68.19,0,.44.64.74,1.93.3,1.28.46,2.23.46,2.84,0,1.77.68,2.65,2.05,2.65.59,0,.96-.29,1.1-.88-1.18-2.06-1.77-3.64-1.77-4.73,0-.63.16-1.19.47-1.67.21-.34.36-.52.44-.54.08,0,.15.21.19.63.06.59.16,1.07.28,1.45.02.04.3.77.85,2.18h0Z" fill="#b79c80"/>
    <path d="M160.62,48.46c.55,0,1.17-.66,1.86-1.99.06-.13.13-.22.19-.28.06-.04.09-.03.09.03.02.06.02.17,0,.32-.57,3.09-1.49,4.64-2.78,4.64-1.37,0-2.05-1.14-2.05-3.41,0-2.8.81-5.73,2.43-8.81.4-.76.64-1.15.73-1.17.02,0,.03.01.03.03,0,.15-.12.58-.35,1.29-1.05,3.2-1.58,5.44-1.58,6.72,0,1.75.47,2.62,1.42,2.62h0Z" fill="#b79c80"/>
    <path d="M176.19,47.68c.55,0,1.17-.66,1.86-1.99.06-.13.13-.22.19-.28.06-.04.09-.03.09.03.02.06.02.17,0,.32-.57,3.09-1.49,4.64-2.78,4.64-1.37,0-2.05-1.14-2.05-3.41,0-2.8.81-5.73,2.43-8.81.4-.76.64-1.15.73-1.17.02,0,.03.01.03.03,0,.15-.12.58-.35,1.29-1.05,3.2-1.58,5.44-1.58,6.72,0,1.75.47,2.62,1.42,2.62h0Z" fill="#b79c80"/>
    <path d="M208.36,13.77c-.61,1.79-1.73,2.68-3.35,2.68-.59,0-1.03-.11-1.33-.32-.29-.21-.6-.32-.92-.32-.74,0-1.59.49-2.56,1.48-.32.32-.47.19-.47-.38,0-.97.46-1.91,1.39-2.84.8-.82,1.45-1.23,1.96-1.23.17,0,.43.12.79.35.36.23.88.35,1.58.35,1.52,0,2.15-.4,1.89-1.2-.53-1.68-.79-2.58-.79-2.68,0-.19.17-.6.51-1.23.27-.51.46-.67.57-.51.34.82.66,1.63.98,2.43.53,1.03,1.22,1.66,2.08,1.89,2.69-3.11,4.66-4.67,5.9-4.67s1.89.64,1.89,1.93c0,1.62-.69,2.94-2.08,3.95-1.47,1.05-3.47,1.58-6,1.58-.51,1.03-.84,1.55-1.01,1.55-.06-.02-.09-.11-.09-.25,0-.32.08-.82.25-1.52-.59-.23-.99-.58-1.2-1.04h0ZM215.46,11.68c1.01-.44,1.52-.79,1.52-1.04,0-.51-.43-.76-1.29-.76-.97,0-2.3.83-4.01,2.49.21.04.43.06.66.06.97,0,2.01-.25,3.12-.76h0Z" fill="#b79c80"/>
    <path d="M224.71,29.57c1.6-1.22,2.94-1.83,4.01-1.83,1.26,0,1.75.53,1.45,1.58-.34,1.18-.62,1.77-.85,1.77-.06,0-.21-.13-.44-.39-.23-.26-.56-.39-.98-.39-.48,0-1.46.48-2.94,1.45-1.56,1.03-2.73,2.03-3.53,3-.17.21-.25.39-.25.54,0,.4.81.6,2.43.6,1.12,0,2.45-.14,4.01-.41,1.56-.27,2.53-.41,2.9-.41,2.12,0,3.48.64,4.07,1.93.15.34.22.73.22,1.17,0,.74-.18,1.5-.54,2.29-.36.79-.66,1.23-.92,1.31-5.16,1.54-9.04,2.3-11.65,2.3-1.39,0-2.57-.4-3.53-1.2-.78-.65-1.27-1.4-1.48-2.24.95.57,2.53.85,4.73.85.95,0,3.17-.34,6.66-1.01,3.11-.59,5.01-.99,5.68-1.2-.27-.99-1.64-1.48-4.1-1.48-.53,0-1.58.14-3.17.41-1.59.27-2.7.41-3.33.41-2.42,0-3.63-.55-3.63-1.64,0-.48.2-1.12.6-1.89,1.16-2.23,2.68-4.06,4.58-5.49h0Z" fill="#b79c80"/>
    <path d="M168.93,75.45c2.48,1.37,4.13,3.03,4.96,4.99.06.13.09.29.09.51,0,.67-.21,1.45-.63,2.34-.42.88-.83,1.33-1.23,1.33.32,0-.84-.2-3.47-.6-.95,1.66-1.94,2.94-2.97,3.82-.88.76-2.21,1.56-3.98,2.4-.46.23-.69.46-.69.69,0,.21.16.36.47.44,1.09.32,2.71.36,4.86.13.93-.11,3.12-.57,6.6-1.39.44-.11.66-.14.66-.09,0,.06-.66.56-1.99,1.48-.59.42-1.63.89-3.12,1.42-2.04.74-3.88,1.1-5.52,1.1-1.98,0-2.97-.64-2.97-1.93s.57-2.44,1.7-3.41c.95-.65,1.89-1.32,2.84-1.99,1.35-.93,2.37-1.89,3.06-2.9-2.1-.36-3.16-1.16-3.16-2.4,0-.93.28-1.96.85-3.09-.38-1.3-.29-2.23.25-2.78.42-.42.92-.63,1.48-.63s1.18.19,1.89.57h0ZM165.52,80.41c0,.59.96,1.01,2.87,1.26.13-.63.1-1.28-.06-1.96-.19-.76-.5-1.14-.95-1.14-.27,0-.65.24-1.14.73-.48.48-.73.85-.73,1.1h0ZM172.62,82.27c.08-.08.05-.28-.09-.6-.53-1.14-1.45-1.99-2.78-2.56,0,1.2-.11,2.11-.32,2.75.21.06,1.2.21,2.97.44.1.02.18.01.22-.03h0Z" fill="#b79c80"/>
    <path d="M125.02,39.5c.23-.88.59-1.85,1.07-2.9,4.1-1.45,8.55-3.03,13.35-4.73.34-.13.54-.17.6-.13.08.06.06.24-.06.54-.38.93-.68,1.48-.92,1.67-4.04,1.41-8.72,3.26-14.05,5.56h0Z" fill="#b79c80"/>
    <path d="M119.2,63.19c0-.51.04-1.02.13-1.55.23-1.43.74-3.16,1.52-5.18.61-1.58.92-3.15.92-4.7,0-2.97-1.37-5.82-4.1-8.55-.21-.21-.24-.44-.09-.69l.95-1.67c.08-.15.22-.15.41,0,2.74,2.25,4.1,5.48,4.1,9.69,0,2.02-.44,4.16-1.33,6.42-.88,2.26-1.33,3.82-1.33,4.69,0,1.75.47,2.62,1.42,2.62.55,0,1.17-.66,1.86-1.99.06-.13.13-.22.19-.28.06-.04.09-.03.09.03.02.06.02.17,0,.32-.57,3.09-1.49,4.64-2.78,4.64s-1.96-1.26-1.96-3.79h0Z" fill="#b79c80"/>
    <path d="M117.93,12.5c1.18,0,2.24.7,3.17,2.1.94,1.4,1.59,3.22,1.97,5.48.04.23.06.37.06.41.04.06.07.06.09,0,.02-.04.07-.18.16-.41.19-1.35.65-3.36,1.39-6.03.8-1.91,1.67-2.87,2.62-2.87.48,0,.97.33,1.45.98.42.57.63,1.03.63,1.39,0,.27-.07.63-.22,1.07-.19.59-.41.88-.66.88-.11,0-.34-.23-.69-.68-.36-.45-.73-.68-1.1-.68-.84,0-1.62,1.99-2.34,5.97-.32,1.73-.66,2.95-1.04,3.66-.27.48-.5.73-.69.73-.17,0-.25-.22-.25-.66,0-.69-.4-2.05-1.2-4.06-.8-2.01-1.37-3.01-1.7-3.01-.23,0-.38.07-.44.22-.06.15-.25.22-.57.22-.36,0-.83-.26-1.4-.79-.58-.53-.87-.95-.87-1.26,0-.15.24-.63.73-1.44.48-.81.79-1.22.92-1.22Z" fill="#b79c80"/>
    <path d="M85.01,19.75c.21-.86.57-1.8,1.07-2.81,7.93-2.95,16.22-6.02,24.87-9.22.34-.13.54-.17.6-.13.08.06.06.24-.06.54-.38.93-.68,1.48-.92,1.67-7.26,2.67-15.78,5.99-25.57,9.94h0Z" fill="#b79c80"/>
    <path d="M94.39,38.48c.34.84.5,1.48.5,1.93,0,.82-.18,1.67-.54,2.56-.48,1.14-1.1,1.7-1.86,1.7-1.2,0-2.05-.82-2.56-2.46-.57,2.1-1.61,3.16-3.12,3.16-.57,0-1.06-.28-1.48-.85-.48-.67-.73-1.56-.73-2.65v-2.59c0-.21-.14-.36-.43-.44-.28-.08-.43-.3-.43-.66,0-.57.24-1.13.73-1.67.44-.48.78-.73,1.01-.73.29,0,.44.57.44,1.7,0,.59-.05,1.08-.14,1.48-.09.4-.14.75-.14,1.04,0,.61.13,1.2.38,1.77.29.65.66.98,1.1.98.57,0,1.1-.26,1.59-.77.49-.52.74-1.12.74-1.81,0-.4-.12-1.08-.35-2.05-.23-.97-.35-1.57-.35-1.8,0-.21.11-.54.32-.99.21-.45.37-.68.47-.68.19,0,.44.64.74,1.93.3,1.28.46,2.23.46,2.84,0,1.77.68,2.65,2.05,2.65.59,0,.96-.29,1.1-.88-1.18-2.06-1.77-3.64-1.77-4.73,0-.63.16-1.19.47-1.67.21-.34.36-.52.44-.54.08,0,.15.21.19.63.06.59.16,1.07.28,1.45.02.04.3.77.85,2.18h0Z" fill="#b79c80"/>
    <path d="M172.05,17.49c.55-3.26,1.57-6.29,3.06-9.09.29-.55.63-.82,1.01-.82.23,0,.35.11.35.32,0,.08-.02.17-.06.25-.42.95-.81,1.95-1.17,3,2.21,1.62,3.24,3.24,3.09,4.86-.15,1.75-.39,2.84-.73,3.28-.97,1.3-2.17,1.96-3.6,1.96s-2.08-.84-2.08-2.53c0-.38.04-.79.13-1.23h0ZM177.38,16.77c0-.61-1.09-1.53-3.28-2.75-.67,1.28-1.01,2.44-1.01,3.47,0,.65.31.98.92.98.55,0,1.18-.19,1.89-.57.71-.38,1.21-.76,1.48-1.14Z" fill="#b79c80"/>
    <path d="M101.45,21.06c.04.06,0,.25-.13.57-.42,1.05-.73,1.65-.92,1.8-.06.04-4.49,1.68-13.29,4.92-9.17,3.39-14.74,5.59-16.7,6.6-1.54.8-2.3,1.35-2.3,1.64,0,.19.25.41.76.66.5.25,1.32.57,2.43.95.19.06.28.47.28,1.23,0,.65-.03,1.04-.09,1.15-.06.12-.29.13-.69.05-2.55-.48-3.82-1.38-3.82-2.68,0-.74.35-1.68,1.06-2.84.71-1.16,1.45-1.98,2.23-2.46.69-.44,5.89-2.44,15.59-6,4.99-1.81,9.96-3.62,14.93-5.43.38-.15.6-.2.66-.16h0Z" fill="#b79c80"/>
    <path d="M75.17,53.17c5.83,0,8.74.67,8.74,2.02,0,.55-.69,1.79-2.08,3.72-1.56,2.17-3.04,3.76-4.45,4.77-.9.63-3.9,1.62-9,2.97-.9.23-1.36.32-1.36.25.06-.08.38-.35.95-.79.65-.51,2.46-1.54,5.43-3.09,2.84-1.52,4.5-2.48,4.99-2.9.08-.08.13-.17.13-.25,0-.67-2.52-1.01-7.57-1.01-.02,0-.99.04-2.9.13-.93.04-1.39-.02-1.39-.19,0-.13.12-.39.35-.79l1.8-3.03c.53-.88,1.48-1.44,2.87-1.67.51-.08,1.67-.13,3.5-.13h0Z" fill="#b79c80"/>
    <path d="M67.31,15.61c1.18,0,2.24.7,3.17,2.1.94,1.4,1.59,3.22,1.97,5.48.04.23.06.37.06.41.04.06.07.06.09,0,.02-.04.07-.18.16-.41.19-1.35.65-3.36,1.39-6.03.8-1.91,1.67-2.87,2.62-2.87.48,0,.97.33,1.45.98.42.57.63,1.03.63,1.39,0,.27-.07.63-.22,1.07-.19.59-.41.88-.66.88-.11,0-.34-.23-.69-.68-.36-.45-.73-.68-1.1-.68-.84,0-1.62,1.99-2.34,5.97-.32,1.73-.66,2.95-1.04,3.66-.27.48-.5.73-.69.73-.17,0-.25-.22-.25-.66,0-.69-.4-2.05-1.2-4.06-.8-2.01-1.37-3.01-1.7-3.01-.23,0-.38.07-.44.22-.06.15-.25.22-.57.22-.36,0-.83-.26-1.4-.79-.58-.53-.87-.95-.87-1.26,0-.15.24-.63.73-1.44.48-.81.79-1.22.92-1.22Z" fill="#b79c80"/>
    <path d="M64.62,7.6c.04.06,0,.25-.13.57-.42,1.03-.73,1.63-.92,1.8-.02.02-9.38,3.53-28.09,10.54-14.41,5.41-22.46,8.54-24.15,9.41-1.54.8-2.3,1.35-2.3,1.64,0,.19.25.41.76.66.5.25,1.32.57,2.43.95.19.06.28.47.28,1.23,0,.65-.03,1.04-.09,1.15-.06.12-.29.13-.69.05-2.55-.48-3.82-1.38-3.82-2.68,0-.74.35-1.68,1.06-2.84.71-1.16,1.45-1.98,2.23-2.46,1.03-.65,9.13-3.81,24.3-9.47,9.36-3.41,18.85-6.87,28.47-10.38.38-.15.6-.2.66-.16h0Z" fill="#b79c80"/>
    <path d="M15.13,43.65c1.18,0,2.24.7,3.17,2.1.94,1.4,1.59,3.22,1.97,5.48.04.23.06.37.06.41.04.06.07.06.09,0,.02-.04.07-.18.16-.41.19-1.35.65-3.36,1.39-6.03.8-1.91,1.67-2.87,2.62-2.87.48,0,.97.33,1.45.98.42.57.63,1.03.63,1.39,0,.27-.07.63-.22,1.07-.19.59-.41.88-.66.88-.11,0-.34-.23-.69-.68-.36-.45-.73-.68-1.1-.68-.84,0-1.62,1.99-2.34,5.97-.32,1.73-.66,2.95-1.04,3.66-.27.48-.5.73-.69.73-.17,0-.25-.22-.25-.66,0-.69-.4-2.05-1.2-4.06-.8-2.01-1.37-3.01-1.7-3.01-.23,0-.38.07-.44.22-.06.15-.25.22-.57.22-.36,0-.83-.26-1.4-.79-.58-.53-.87-.95-.87-1.26,0-.15.24-.63.73-1.44.48-.81.79-1.22.92-1.22Z" fill="#b79c80"/>
    <path d="M39.36,28.79c1.6-1.22,2.94-1.83,4.01-1.83,1.26,0,1.75.53,1.45,1.58-.34,1.18-.62,1.77-.85,1.77-.06,0-.21-.13-.44-.39-.23-.26-.56-.39-.98-.39-.48,0-1.46.48-2.94,1.45-1.56,1.03-2.74,2.03-3.53,3-.17.21-.25.39-.25.54,0,.4.81.6,2.43.6,1.12,0,2.45-.14,4.01-.41,1.56-.27,2.53-.41,2.9-.41,2.13,0,3.48.64,4.07,1.93.15.34.22.73.22,1.17,0,.74-.18,1.5-.54,2.29-.36.79-.66,1.23-.92,1.31-5.16,1.54-9.04,2.3-11.65,2.3-1.39,0-2.57-.4-3.53-1.2-.78-.65-1.27-1.4-1.48-2.24.95.57,2.52.85,4.73.85.95,0,3.17-.34,6.66-1.01,3.11-.59,5.01-.99,5.68-1.2-.27-.99-1.64-1.48-4.1-1.48-.53,0-1.58.14-3.17.41-1.59.27-2.7.41-3.33.41-2.42,0-3.63-.55-3.63-1.64,0-.48.2-1.12.6-1.89,1.16-2.23,2.68-4.06,4.58-5.49h0Z" fill="#b79c80"/>
    <path d="M13.18,17.49c.55-3.26,1.57-6.29,3.06-9.09.29-.55.63-.82,1.01-.82.23,0,.35.11.35.32,0,.08-.02.17-.06.25-.42.95-.81,1.95-1.17,3,2.21,1.62,3.24,3.24,3.09,4.86-.15,1.75-.39,2.84-.73,3.28-.97,1.3-2.17,1.96-3.6,1.96s-2.08-.84-2.08-2.53c0-.38.04-.79.13-1.23h0ZM18.51,16.77c0-.61-1.09-1.53-3.28-2.75-.67,1.28-1.01,2.44-1.01,3.47,0,.65.31.98.92.98.55,0,1.18-.19,1.89-.57.72-.38,1.21-.76,1.48-1.14Z" fill="#b79c80"/>
  </g>
</svg>