<svg xmlns="http://www.w3.org/2000/svg" viewBox="0 0 190.74 55.98"><defs><style>.cls-1{fill:#19639d;}.cls-2{fill:#ae792d;}</style></defs><g id="Layer_2" data-name="Layer 2"><g id="Work2"><path class="cls-1" d="M189.92,12.28c-.16-.47-.63-1.76-1.42-3.86s-1.25-3.25-1.46-3.7q-.15-.36-.27-.36c-.08,0-.16.11-.24.32A12.66,12.66,0,0,0,185.43,8a7.19,7.19,0,0,1,.59,3.11q0,2.08.85,13.72t.84,13.29q0,2.72-.51,3.15A6.53,6.53,0,0,1,183.44,43a3.41,3.41,0,0,1-2.52-.87c-.85-.86-1.49-2.56-1.93-5.08a33.19,33.19,0,0,0-2.44-8.86c-.13-.25-.23-.37-.29-.37s-.19.18-.36.55a8.63,8.63,0,0,0-.61,3.56,9.65,9.65,0,0,0,.28.93,45.88,45.88,0,0,1,1.14,4.47,21.24,21.24,0,0,1,.55,3.17c0,1.76-.86,2.58-2.83,2.58a2.08,2.08,0,0,1-1.89-1,3.37,3.37,0,0,1-.43-2.53,2.79,2.79,0,0,0,.09-.56.33.33,0,0,0-.37-.38,1,1,0,0,0-.69.34,41.53,41.53,0,0,1-3.92,3.64,8.58,8.58,0,0,1-5,1.53,3.08,3.08,0,0,1-1.93-.54,5.08,5.08,0,0,1-1.46-3.08,78.27,78.27,0,0,1-.67-10.19q-.24-9.13-.75-13.47a64.47,64.47,0,0,0-2.13-10.67c-.07-.29-.17-.44-.27-.44s-.17.15-.28.44-.35,1.53-.67,3.42c.55,3.28.94,5.82,1.15,7.6a148.29,148.29,0,0,1,.94,17.68,6.24,6.24,0,0,1-2.56,4.89,33.53,33.53,0,0,1-7.64,4.6,23.37,23.37,0,0,1-9.17,2.21q-4.82,0-7.29-2.25a4.65,4.65,0,0,1-1.81-3.5,10,10,0,0,1,.47-3.07l.87-2.29a4.48,4.48,0,0,0,.27-1.14c0-.1,0-.16-.07-.16s-.39.33-.75,1A13.91,13.91,0,0,0,126.69,42a8.7,8.7,0,0,0,1.66,5.36c1.63,2.12,4.24,3.19,7.84,3.19a24,24,0,0,0,10.75-3.08,28.73,28.73,0,0,0,7.67-5.35A9.82,9.82,0,0,0,156.54,38q.24,5.67,1.46,7.83a4.53,4.53,0,0,0,4.16,2.28h.13a8,8,0,0,0,5.13-2.14A35,35,0,0,0,170,43.15a.85.85,0,0,1,.63-.37c.13,0,.2.07.2.22q.14,4.05,3.64,4a2.73,2.73,0,0,0,2.2-1.27A7.85,7.85,0,0,0,178.17,42a6.32,6.32,0,0,0,2.08,3.87A4.89,4.89,0,0,0,183.44,47c1.58,0,3-1.27,4.19-3.11q2.06-3.27,2.05-9,0-2-.75-12.2t-.75-10.36c0-.34.07-.42.2-.24,1.1,1.26,1.66,1.6,1.66,1A4.84,4.84,0,0,0,189.92,12.28Z"/><path class="cls-1" d="M124.6,43.84q6.71-4.37,6.71-9.1a27.91,27.91,0,0,0-2.89-11.3A48.9,48.9,0,0,0,122,13c-.07-.08-1.48-2-4.25-5.75a11.28,11.28,0,0,0-1-1.14c-.35-.35-.53-.59-.53-.71V1.6c0-.38.09-.57.28-.57a.61.61,0,0,1,.35.18L123.61,7c.42.35.63.62.63.8s-.1.18-.31.18a5.14,5.14,0,0,1-1.52-.41c-.52-.2-.79-.24-.79-.12s.1.19.28.37a38.85,38.85,0,0,1,7.46,10.64A30.78,30.78,0,0,1,132.73,32a18,18,0,0,1-3,10.71,13.61,13.61,0,0,1-5.36,4.69,26.43,26.43,0,0,1-4.06,1.3,28.64,28.64,0,0,1-4.23.87c-.37,0-.55,0-.55-.1s.18-.26.53-.5q2.63-1.47,8.55-5.11Z"/><path class="cls-1" d="M116.5,16.64c-.16-.49-.65-1.83-1.47-4s-1.3-3.38-1.51-3.84c-.11-.25-.21-.37-.29-.37s-.16.11-.24.33a12.93,12.93,0,0,0-1.15,3.39,7.42,7.42,0,0,1,.61,3.23q0,1.68.52,8.52t.51,9q0,2.82-.54,3.27a6.81,6.81,0,0,1-4,1.76,3.22,3.22,0,0,1-2.08-.58,5.45,5.45,0,0,1-1.51-3.18,79.31,79.31,0,0,1-.74-10c-.22-5.92-.39-9.49-.53-10.71a67.61,67.61,0,0,0-2-11.1q-.15-.45-.27-.45t-.3.42a36,36,0,0,0-.74,3.54q.75,4.68,1.08,7.91a133.57,133.57,0,0,1,.74,13.7c0,1.91-1.5,3.36-4.18,4.49a30.2,30.2,0,0,1-5.52,1.31c1-1.44,1.51-3.78,1.51-7a24.93,24.93,0,0,0-.49-3.44c-.3-1.9-.47-3.11-.51-3.61s-.16-.76-.35-.76-.31.18-.45.53c-.79,2.05-1.25,3.33-1.39,3.84-1.06,3.38-1.92,6.25-2.58,8.59l-3.38.88a7.26,7.26,0,0,0-5,7.21,10.2,10.2,0,0,0,.1,1.45,41.08,41.08,0,0,0-8.79,5.95l-5,4.34a7.25,7.25,0,0,1-4.36,1.51,2.67,2.67,0,0,1-2.22-1,4.1,4.1,0,0,1-.76-2.58,17.64,17.64,0,0,1,1.35-5.73,23.05,23.05,0,0,0,1.35-4.25c0-.09,0-.15-.08-.16s-.3.21-.51.63q-3.12,6.08-3.11,9.86a7,7,0,0,0,1.59,4.64A4.51,4.51,0,0,0,63.33,56a7.31,7.31,0,0,0,4.25-1.76q3.14-2.58,6.28-5.15a31.83,31.83,0,0,1,7.62-4.72q2.59,4.9,5.79,4.9A2.63,2.63,0,0,0,89.54,48a5.76,5.76,0,0,0,.85-3.27,6.59,6.59,0,0,0-1-3.85,3.18,3.18,0,0,0-2.75-1.46,14.72,14.72,0,0,0-4.47.92,5.57,5.57,0,0,1-.68-2c0-.17.39-.49,1.16-1A18,18,0,0,1,85.24,36a10.07,10.07,0,0,1,2.4-.43c.14,0,.21.05.21.16a1.45,1.45,0,0,1-.08.33,1.19,1.19,0,0,0-.09.37.2.2,0,0,0,.09.18,1.25,1.25,0,0,0,.53.06.3.3,0,0,1,.37.29,11.27,11.27,0,0,0,2.9,6.58,6.38,6.38,0,0,0,4.66,2.37q3.88,0,3.88-5.43a4.91,4.91,0,0,0-.81-2.64,4.57,4.57,0,0,0-2-1.82,6.69,6.69,0,0,0,1.15-.37,8.13,8.13,0,0,0,4.77-5.94q0,7.62,1.33,9.93A4.72,4.72,0,0,0,108.93,42c1.64,0,3.26-1.19,4.46-3.1q2.13-3.39,2.13-9.32c0-1.36-.14-3.84-.41-7.42s-.41-5.42-.41-5.5c0-.36.07-.44.21-.25,1.14,1.31,1.71,1.67,1.71,1.07A5.21,5.21,0,0,0,116.5,16.64Zm-28.91,27c.67.27,1,.63,1,1.08s-.3.53-.88.53a4.37,4.37,0,0,1-3.34-1.75A5.91,5.91,0,0,1,87.59,43.63Zm2.06-12.51a37.86,37.86,0,0,1,2.49-7.64,13.46,13.46,0,0,1,1.15,4.21C93.29,29.05,92.07,30.2,89.65,31.12Zm8.62,10a1.37,1.37,0,0,1,.33.69q0,.45-1.35.45a4.55,4.55,0,0,1-3.15-1.43,8,8,0,0,1-2-3.11,9.66,9.66,0,0,1,3.27,1.15A7.25,7.25,0,0,1,98.27,41.1Z"/><path class="cls-1" d="M68.86,11.68c-.17-.49-.66-1.83-1.48-4s-1.29-3.38-1.51-3.84c-.11-.25-.2-.37-.28-.37s-.17.11-.25.33A13.15,13.15,0,0,0,64.2,7.18a7.56,7.56,0,0,1,.61,3.23q0,2.17.88,14.25t.88,13.8c0,1.88-.18,3-.53,3.27a6.77,6.77,0,0,1-3.91,1.87,3.53,3.53,0,0,1-2.61-.9c-.89-.9-1.56-2.65-2-5.27A34.3,34.3,0,0,0,55,28.23c-.14-.26-.24-.39-.31-.39s-.19.19-.36.57a8.91,8.91,0,0,0-.64,3.7s.1.37.29,1a47.26,47.26,0,0,1,1.18,4.64A23,23,0,0,1,55.72,41c0,1.78-1,2.69-2.94,2.73v-.05a2.16,2.16,0,0,1-2-1.06,3.71,3.71,0,0,1-.53-2,3.12,3.12,0,0,1,.09-.63,3.16,3.16,0,0,0,.1-.58.34.34,0,0,0-.39-.39,1,1,0,0,0-.72.35,42.81,42.81,0,0,1-4.07,3.78,8.88,8.88,0,0,1-5.19,1.59,3.17,3.17,0,0,1-2-.57A5.26,5.26,0,0,1,36.58,41a81.94,81.94,0,0,1-.7-10.59q-.24-9.48-.77-14A67.37,67.37,0,0,0,32.9,5.34c-.08-.3-.18-.45-.29-.45s-.17.15-.28.45a35,35,0,0,0-.7,3.56c.58,3.41,1,6,1.19,7.89a154.88,154.88,0,0,1,1,18.36,6.5,6.5,0,0,1-2.66,5.07A35.07,35.07,0,0,1,23.21,45a24.2,24.2,0,0,1-9.53,2.29q-5,0-7.56-2.33a4.87,4.87,0,0,1-1.88-3.64,10.19,10.19,0,0,1,.49-3.19l.9-2.37a4.66,4.66,0,0,0,.29-1.19c0-.1,0-.16-.09-.16s-.39.34-.77,1a14.39,14.39,0,0,0-1.84,7.12,9,9,0,0,0,1.72,5.56c1.69,2.2,4.4,3.31,8.13,3.31a24.86,24.86,0,0,0,11.16-3.19,30.24,30.24,0,0,0,8-5.56,10.4,10.4,0,0,0,2-4.33c.16,3.92.67,6.63,1.51,8.13A4.69,4.69,0,0,0,40,48.84h.14a8.36,8.36,0,0,0,5.32-2.23,38.46,38.46,0,0,0,2.63-2.88.9.9,0,0,1,.66-.39c.13,0,.2.08.2.23.1,2.76,1.32,4.15,3.66,4.2v.06a3.09,3.09,0,0,0,2.41-1.37,8.09,8.09,0,0,0,1.6-4,6.59,6.59,0,0,0,2.16,4,5.09,5.09,0,0,0,3.31,1.18h0c1.64,0,3.16-1.31,4.36-3.22q2.12-3.39,2.12-9.32,0-2.05-.78-12.68c-.51-7.08-.77-10.67-.77-10.75,0-.35.07-.44.2-.25C68.41,12.78,69,13.14,69,12.54A5.21,5.21,0,0,0,68.86,11.68Z"/><path class="cls-1" d="M175.54,54.9c-1-.75-2-1.45-3-2.11-.05,0-.05-.11,0-.23L173.75,50c.08-.16.16-.24.26-.24a7.94,7.94,0,0,1,1.69,1c1,.68,1.49,1.08,1.49,1.2a7.56,7.56,0,0,1-1.31,2.79c-.11.19-.22.23-.34.14Z"/><path class="cls-1" d="M164.22,51.83l1-2.07c.08-.16.16-.23.25-.23a8,8,0,0,1,1.7,1c1,.68,1.49,1.08,1.49,1.2a7.67,7.67,0,0,1-1.32,2.8c-.1.17-.21.21-.33.13-.87-.64-1.85-1.31-2.94-2a16.2,16.2,0,0,1-1.08,2.1c-.1.19-.21.23-.33.14-1-.75-2-1.45-3-2.11-.06,0-.06-.11,0-.23L160.88,50c.07-.16.16-.24.25-.24a6.25,6.25,0,0,1,1.44.85A12.38,12.38,0,0,1,164.22,51.83Z"/><path class="cls-1" d="M146.74,34.73a6.74,6.74,0,0,1-1.29,2.74q-1.29,2-1.86,2l-1.75.41a12.49,12.49,0,0,1-2.7.4c-.44,0-.65,0-.65-.14a16.23,16.23,0,0,1,3.36-1.77q2.58-1.2,2.58-1.65c0-.07-.34-.11-1-.14a5.81,5.81,0,0,1-2-.32,1.57,1.57,0,0,1-1-1.53,7.82,7.82,0,0,1,2-4.65c1.27-1.59,2.27-2.38,3-2.38s.92.33.92,1a4.18,4.18,0,0,1-.35,1.6c-.28.67-.58,1-.93,1a.34.34,0,0,1-.36-.26.35.35,0,0,0-.38-.27c-.23,0-.63.26-1.22.78s-.89.89-.89,1.11c0,.45.76.72,2.27.83S146.74,34,146.74,34.73Z"/><path class="cls-1" d="M53.93,55.93c-1-.78-2.08-1.51-3.17-2.19q-.07-.06,0-.24l1.31-2.68c.08-.16.17-.25.27-.25a8.55,8.55,0,0,1,1.75,1.07c1,.71,1.56,1.12,1.56,1.24a8.05,8.05,0,0,1-1.37,2.91c-.11.19-.23.23-.35.14Z"/><path class="cls-1" d="M42.18,52.74l1-2.15q.12-.24.27-.24a8.41,8.41,0,0,1,1.76,1.06c1,.71,1.55,1.13,1.55,1.25a8,8,0,0,1-1.37,2.9c-.11.18-.22.23-.35.14-.9-.66-1.91-1.37-3-2.1a18.27,18.27,0,0,1-1.13,2.19c-.11.19-.22.23-.35.14-1-.78-2.07-1.51-3.16-2.19q-.09-.06,0-.24l1.3-2.68c.09-.16.18-.25.27-.25a7.08,7.08,0,0,1,1.49.88A13.24,13.24,0,0,1,42.18,52.74Z"/><path class="cls-1" d="M23.52,35a6.94,6.94,0,0,1-1.34,2.84c-.89,1.37-1.53,2.06-1.93,2.06l-1.81.42a13.11,13.11,0,0,1-2.81.42c-.45,0-.67,0-.67-.14s1.16-.75,3.49-1.84c1.79-.83,2.68-1.41,2.68-1.72,0-.07-.36-.12-1.08-.14A6.26,6.26,0,0,1,18,36.56,1.63,1.63,0,0,1,16.92,35,8.13,8.13,0,0,1,19,30.14c1.32-1.65,2.35-2.47,3.1-2.47s1,.34,1,1a4.53,4.53,0,0,1-.36,1.66c-.29.69-.61,1-1,1a.34.34,0,0,1-.37-.28.36.36,0,0,0-.4-.27,2.83,2.83,0,0,0-1.27.8c-.61.54-.92.93-.92,1.16,0,.46.79.75,2.36.86S23.52,34.21,23.52,35Z"/><path class="cls-2" d="M173.52,7.88a8.87,8.87,0,0,1,.69-1.82l16.11-6c.22-.08.35-.11.39-.08s0,.16,0,.35a3.29,3.29,0,0,1-.59,1.08Q183,4,173.52,7.88Z"/><path class="cls-2" d="M184.05,34.6a9.14,9.14,0,0,1-.71,3.82A1.73,1.73,0,0,1,183,39c-.08.07-.13,0-.14-.12a2.79,2.79,0,0,1,.09-.61q.11-.39.3-1.44a9,9,0,0,0,.06-1A8.7,8.7,0,0,0,180,29.1a.35.35,0,0,1-.06-.45l.62-1.09c.05-.09.14-.09.26,0a8.33,8.33,0,0,1,3.23,7Z"/><path class="cls-2" d="M175.05,21a3.66,3.66,0,0,1,.33,1.25,4.22,4.22,0,0,1-.35,1.65q-.47,1.11-1.2,1.11c-.78,0-1.33-.54-1.66-1.6-.37,1.36-1,2.05-2,2.05a1.18,1.18,0,0,1-1-.56,2.79,2.79,0,0,1-.47-1.71V21.53c0-.14-.09-.23-.28-.29a.38.38,0,0,1-.27-.42,1.62,1.62,0,0,1,.47-1.09c.28-.31.5-.47.65-.47s.29.37.29,1.11a3.77,3.77,0,0,1-.1,1,3,3,0,0,0-.09.67,2.71,2.71,0,0,0,.25,1.15c.19.42.43.63.71.63a1.45,1.45,0,0,0,1-.5,1.66,1.66,0,0,0,.48-1.18,6.85,6.85,0,0,0-.23-1.33,7,7,0,0,1-.22-1.16,1.63,1.63,0,0,1,.2-.64c.14-.3.24-.44.31-.44s.28.41.48,1.24a9.39,9.39,0,0,1,.29,1.84c0,1.15.45,1.72,1.33,1.72a.68.68,0,0,0,.72-.57,7,7,0,0,1-1.15-3.07,2,2,0,0,1,.31-1.08c.14-.22.23-.34.29-.35s.09.14.12.41a4.76,4.76,0,0,0,.18.94s.2.5.55,1.41Z"/><path class="cls-2" d="M164.63,29q5.66,0,5.66,1.31a6.55,6.55,0,0,1-1.35,2.41,13.29,13.29,0,0,1-2.88,3.09,27.3,27.3,0,0,1-5.83,1.92,2.62,2.62,0,0,1-.88.17,5.26,5.26,0,0,1,.62-.52,34.5,34.5,0,0,1,3.51-2,26.49,26.49,0,0,0,3.23-1.88.21.21,0,0,0,.08-.16c0-.44-1.63-.66-4.9-.66l-1.88.08q-.9,0-.9-.12a1.42,1.42,0,0,1,.22-.51l1.17-2a2.5,2.5,0,0,1,1.86-1.09,19.6,19.6,0,0,1,2.27-.08Z"/><path class="cls-2" d="M180.62,19.92c.36,0,.76-.43,1.21-1.29a.7.7,0,0,1,.12-.18s.06,0,.06,0a.33.33,0,0,1,0,.2c-.36,2-1,3-1.79,3s-1.33-.74-1.33-2.21a12.22,12.22,0,0,1,1.57-5.7,3.19,3.19,0,0,1,.47-.76l0,0a4.16,4.16,0,0,1-.22.84,16.87,16.87,0,0,0-1,4.35c0,1.14.31,1.7.92,1.7Z"/><path class="cls-2" d="M159.54,3.18a2.55,2.55,0,0,1,2.05,1.36,9.08,9.08,0,0,1,1.28,3.55,2,2,0,0,1,0,.26q0,.08.06,0a2.4,2.4,0,0,0,.1-.26,35.18,35.18,0,0,1,.9-3.91c.52-1.24,1.09-1.86,1.7-1.86a1.28,1.28,0,0,1,.94.64,1.72,1.72,0,0,1,.41.9,2.21,2.21,0,0,1-.15.69q-.18.57-.42.57c-.07,0-.22-.14-.45-.44a1,1,0,0,0-.72-.43c-.54,0-1.05,1.28-1.51,3.86a8.91,8.91,0,0,1-.68,2.37c-.17.31-.32.47-.45.47s-.16-.14-.16-.43a9.23,9.23,0,0,0-.78-2.63c-.51-1.3-.88-1.95-1.1-1.95a.28.28,0,0,0-.29.15c0,.09-.16.14-.37.14a1.55,1.55,0,0,1-.9-.51c-.38-.34-.57-.62-.57-.82a3.6,3.6,0,0,1,.47-.93C159.26,3.44,159.45,3.18,159.54,3.18Z"/><path class="cls-2" d="M182.15,8.23s0,.16-.08.36a3.79,3.79,0,0,1-.6,1.17s-2.91,1.09-8.6,3.19q-8.91,3.29-10.82,4.27c-1,.52-1.49.87-1.49,1.06s.16.27.49.43a13,13,0,0,0,1.58.62c.12,0,.18.3.18.79a2.42,2.42,0,0,1-.06.75c0,.07-.19.09-.45,0-1.65-.31-2.48-.89-2.48-1.74a3.84,3.84,0,0,1,.69-1.84A4.73,4.73,0,0,1,162,15.73q.68-.44,10.1-3.88l9.67-3.52c.24-.1.39-.13.43-.1Z"/><path class="cls-2" d="M158.36,0s0,.16-.08.37a3.68,3.68,0,0,1-.6,1.16S153.74,3,146,5.9q-12,4.45-13.88,5.43c-1,.52-1.49.88-1.49,1.07s.16.26.49.43a16,16,0,0,0,1.57.61c.13,0,.19.31.19.8a2.38,2.38,0,0,1-.06.74q-.08.12-.45,0c-1.65-.31-2.48-.89-2.48-1.73a3.8,3.8,0,0,1,.69-1.84A4.67,4.67,0,0,1,132,9.84q.68-.42,13.18-5c4.24-1.56,8.49-3.13,12.74-4.68.24-.09.39-.13.43-.1Z"/><path class="cls-2" d="M99.9,13.45a3.72,3.72,0,0,1,.33,1.25,4.5,4.5,0,0,1-.35,1.66c-.32.73-.72,1.1-1.21,1.1-.77,0-1.33-.53-1.65-1.59-.37,1.36-1,2-2,2a1.17,1.17,0,0,1-1-.55,2.92,2.92,0,0,1-.47-1.72V14c0-.13-.09-.23-.27-.28a.39.39,0,0,1-.28-.43,1.63,1.63,0,0,1,.47-1.08c.29-.32.5-.47.65-.47s.29.36.29,1.1a4.35,4.35,0,0,1-.09,1,3,3,0,0,0-.09.68,2.85,2.85,0,0,0,.24,1.14q.28.63.72.63a1.39,1.39,0,0,0,1-.5,1.62,1.62,0,0,0,.48-1.17,6.61,6.61,0,0,0-.22-1.33A7.83,7.83,0,0,1,96.26,12a1.89,1.89,0,0,1,.2-.64c.14-.29.24-.44.31-.44s.28.42.48,1.25a8.76,8.76,0,0,1,.3,1.84c0,1.14.44,1.71,1.33,1.71a.67.67,0,0,0,.71-.57,7,7,0,0,1-1.14-3.06,2,2,0,0,1,.3-1.09,1.05,1.05,0,0,1,.29-.35s.1.14.12.41a4.55,4.55,0,0,0,.19.94s.19.5.55,1.41Z"/><path class="cls-2" d="M97.74,6.49a6.35,6.35,0,0,1-.45,2.39c-.14.33-.26.49-.37.49s-.16-.21-.06-.63A8,8,0,0,0,97,7.31q0-2.86-3.21-5.71a.35.35,0,0,1-.06-.45L94.3.07q.09-.13.27,0a7.58,7.58,0,0,1,3.17,6.42Z"/><path class="cls-2" d="M120.46,27.82a11,11,0,0,1-.94,4.17c1.43,1.05,2.1,2.09,2,3.14a5,5,0,0,1-.47,2.13,2.83,2.83,0,0,1-2.33,1.27c-.9,0-1.35-.55-1.35-1.64a4.81,4.81,0,0,1,.08-.8,18.84,18.84,0,0,1,1.29-3.88,9.71,9.71,0,0,0,.9-3.6A7.85,7.85,0,0,0,117,23.07a.35.35,0,0,1-.06-.45l.61-1.08q.09-.15.27,0a7.68,7.68,0,0,1,2.66,6.28Zm.45,7.8q0-.59-2.13-1.77a4.86,4.86,0,0,0-.65,2.24c0,.43.19.64.59.64a2.69,2.69,0,0,0,1.23-.37A2.72,2.72,0,0,0,120.91,35.62Z"/><path class="cls-2" d="M83,8.56a21.47,21.47,0,0,0,4.34-3.25c-1.27-.65-1.9-1.34-1.9-2.06A3.18,3.18,0,0,1,86.68.86c.81-.73,1.47-1,2-.8s.67.65.67,1.45a7.78,7.78,0,0,1-.45,2.43,3.89,3.89,0,0,1,1.21.94,4,4,0,0,1-.86,1.74,3.7,3.7,0,0,0-1.17-.94,12.26,12.26,0,0,1-2.7,2.68A18.72,18.72,0,0,1,82,10.42c-.22.11-1.42.57-3.6,1.37a2.41,2.41,0,0,1-.67.19c-.06,0-.08,0-.08,0s.19-.25.57-.49L83,8.56Zm3.6-6.21c0,.31.51.71,1.51,1.21a2.54,2.54,0,0,0,.09-1.19c-.09-.44-.28-.65-.6-.65a1.41,1.41,0,0,0-.61.21q-.39.21-.39.42Z"/><path class="cls-2" d="M85.78,25.05a4,4,0,0,1,.32,1.25A4.44,4.44,0,0,1,85.76,28c-.32.73-.72,1.1-1.21,1.1-.78,0-1.33-.53-1.66-1.59-.36,1.36-1,2-2,2a1.17,1.17,0,0,1-1-.55,2.92,2.92,0,0,1-.47-1.72V25.57c0-.14-.09-.24-.28-.29a.39.39,0,0,1-.27-.43,1.58,1.58,0,0,1,.47-1.08c.28-.32.5-.47.65-.47s.29.36.29,1.1a4.35,4.35,0,0,1-.09,1,2.66,2.66,0,0,0-.1.68,2.7,2.7,0,0,0,.25,1.14c.19.42.43.63.71.63a1.41,1.41,0,0,0,1-.5,1.62,1.62,0,0,0,.48-1.17,6.85,6.85,0,0,0-.23-1.33,7.26,7.26,0,0,1-.22-1.17,1.89,1.89,0,0,1,.2-.64c.14-.29.24-.44.31-.44s.28.42.48,1.25a8.58,8.58,0,0,1,.29,1.84c0,1.14.45,1.71,1.33,1.71a.68.68,0,0,0,.72-.57,7,7,0,0,1-1.15-3.06,2,2,0,0,1,.31-1.09c.14-.22.23-.33.29-.34s.09.13.12.4a4.48,4.48,0,0,0,.18.94s.2.5.56,1.41Z"/><path class="cls-2" d="M98.91,26.48c.36,0,.76-.43,1.21-1.29a.7.7,0,0,1,.12-.18s.06,0,.06,0a.33.33,0,0,1,0,.2c-.37,2-1,3-1.8,3S97.17,27.5,97.17,26a12.24,12.24,0,0,1,1.58-5.7c.26-.5.41-.75.47-.76a0,0,0,0,1,0,0,5,5,0,0,1-.23.84,16.72,16.72,0,0,0-1,4.35c0,1.13.31,1.7.92,1.7Z"/><path class="cls-2" d="M109,26c.35,0,.76-.43,1.21-1.28a.62.62,0,0,1,.12-.19s.06,0,.06,0a.71.71,0,0,1,0,.21q-.56,3-1.8,3c-.89,0-1.33-.73-1.33-2.21a12.24,12.24,0,0,1,1.58-5.7,2.59,2.59,0,0,1,.47-.76l0,0a4.54,4.54,0,0,1-.23.84,16.77,16.77,0,0,0-1,4.36c0,1.13.31,1.69.92,1.69Z"/><path class="cls-2" d="M129.83,4a2.2,2.2,0,0,1-2.17,1.73,1.48,1.48,0,0,1-.86-.2,1,1,0,0,0-.59-.2,2.56,2.56,0,0,0-1.65,1c-.21.2-.31.12-.31-.25a2.62,2.62,0,0,1,.9-1.84c.52-.53.94-.8,1.27-.8a1.15,1.15,0,0,1,.51.23,1.89,1.89,0,0,0,1,.22c1,0,1.39-.26,1.23-.77q-.51-1.63-.51-1.74a2.35,2.35,0,0,1,.32-.8c.18-.33.3-.43.37-.33.22.54.43,1.06.63,1.58A2.18,2.18,0,0,0,131.34,3c1.75-2,3-3,3.83-3a1.09,1.09,0,0,1,1.22,1.25A3,3,0,0,1,135,3.8a6.56,6.56,0,0,1-3.88,1c-.33.67-.55,1-.66,1s-.06-.07-.06-.17a4.84,4.84,0,0,1,.17-1,1.35,1.35,0,0,1-.78-.67Zm4.6-1.35c.65-.29,1-.51,1-.68,0-.32-.28-.49-.84-.49S133.08,2,132,3.11a2.86,2.86,0,0,0,.43,0,5,5,0,0,0,2-.49Z"/><path class="cls-2" d="M140.42,14.24a4.71,4.71,0,0,1,2.6-1.19c.82,0,1.13.34.94,1s-.4,1.14-.55,1.14-.14-.08-.29-.26a.79.79,0,0,0-.63-.25,4.85,4.85,0,0,0-1.9.94,10.21,10.21,0,0,0-2.29,1.94.62.62,0,0,0-.17.35c0,.26.53.39,1.58.39a15,15,0,0,0,2.59-.27,14.91,14.91,0,0,1,1.88-.26c1.38,0,2.26.41,2.64,1.24a1.81,1.81,0,0,1,.14.76,3.57,3.57,0,0,1-.34,1.48c-.24.51-.43.79-.6.85a29.42,29.42,0,0,1-7.54,1.49,3.47,3.47,0,0,1-2.29-.78,2.78,2.78,0,0,1-1-1.45,6.25,6.25,0,0,0,3.07.56,31.35,31.35,0,0,0,4.31-.66c2-.38,3.24-.64,3.68-.78-.18-.64-1.06-1-2.66-1a15.09,15.09,0,0,0-2,.27,14.8,14.8,0,0,1-2.16.27c-1.57,0-2.35-.36-2.35-1.07a2.85,2.85,0,0,1,.39-1.22,10.43,10.43,0,0,1,3-3.56Z"/><path class="cls-2" d="M104.3,44a6.89,6.89,0,0,1,3.21,3.23.73.73,0,0,1,.06.32,3.69,3.69,0,0,1-.41,1.52c-.28.57-.54.86-.8.86a14.92,14.92,0,0,0-2.25-.39A9.21,9.21,0,0,1,102.19,52a11.65,11.65,0,0,1-2.58,1.55q-.45.23-.45.45c0,.14.11.24.31.29a8.86,8.86,0,0,0,3.15.08c.6-.07,2-.37,4.27-.9.29-.07.43-.09.43-.06a10.38,10.38,0,0,1-1.29,1,8.79,8.79,0,0,1-2,.92,10.58,10.58,0,0,1-3.58.72c-1.28,0-1.92-.42-1.92-1.25a2.84,2.84,0,0,1,1.1-2.21c.62-.42,1.23-.85,1.84-1.29a7.39,7.39,0,0,0,2-1.88c-1.37-.23-2-.75-2-1.55a4.51,4.51,0,0,1,.56-2c-.25-.85-.2-1.45.16-1.8a1.32,1.32,0,0,1,1-.41,2.69,2.69,0,0,1,1.23.37Zm-2.21,3.21q0,.57,1.86.81a2.84,2.84,0,0,0,0-1.26c-.13-.49-.33-.74-.62-.74s-.42.16-.73.47-.47.55-.47.72Zm4.6,1.2s0-.18-.06-.39a3.33,3.33,0,0,0-1.8-1.65,5.78,5.78,0,0,1-.21,1.78c.14,0,.78.13,1.92.28a.15.15,0,0,0,.15,0Z"/><path class="cls-2" d="M75.85,20.67a12,12,0,0,1,.7-1.88l8.65-3.07a.71.71,0,0,1,.38-.08c.06,0,0,.16,0,.35A3.11,3.11,0,0,1,85,17.07q-3.93,1.38-9.1,3.6Z"/><path class="cls-2" d="M72.08,36a7,7,0,0,1,.08-1,17.71,17.71,0,0,1,1-3.35,8.51,8.51,0,0,0,.59-3.05,7.85,7.85,0,0,0-2.66-5.54.35.35,0,0,1-.06-.45l.61-1.08q.09-.15.27,0a7.68,7.68,0,0,1,2.66,6.28A11.55,11.55,0,0,1,73.7,32a10.35,10.35,0,0,0-.86,3c0,1.13.31,1.7.92,1.7.35,0,.76-.43,1.21-1.29a.7.7,0,0,1,.12-.18s.06,0,.06,0a.65.65,0,0,1,0,.2c-.37,2-1,3-1.8,3s-1.27-.82-1.27-2.46Z"/><path class="cls-2" d="M71.27,3.18a2.55,2.55,0,0,1,2,1.36A9.08,9.08,0,0,1,74.6,8.09a2,2,0,0,1,0,.26q0,.08.06,0a2.4,2.4,0,0,0,.1-.26,35.18,35.18,0,0,1,.9-3.91c.52-1.24,1.09-1.86,1.7-1.86a1.28,1.28,0,0,1,.94.64,1.72,1.72,0,0,1,.41.9,2.21,2.21,0,0,1-.15.69q-.18.57-.42.57c-.07,0-.22-.14-.45-.44A1,1,0,0,0,77,4.25c-.55,0-1.05,1.28-1.51,3.86a8.91,8.91,0,0,1-.68,2.37c-.17.31-.32.47-.45.47s-.16-.14-.16-.43a9.23,9.23,0,0,0-.78-2.63c-.51-1.3-.88-1.95-1.1-1.95a.28.28,0,0,0-.29.15c0,.09-.16.14-.37.14a1.55,1.55,0,0,1-.9-.51c-.38-.34-.57-.62-.57-.82A3.6,3.6,0,0,1,70.67,4C71,3.44,71.18,3.18,71.27,3.18Z"/><path class="cls-2" d="M49.94,7.88a9.5,9.5,0,0,1,.69-1.82l16.11-6C67,0,67.09,0,67.13,0s0,.16,0,.35a3.11,3.11,0,0,1-.59,1.08Q59.45,4,49.94,7.88Z"/><path class="cls-2" d="M56,20a3.9,3.9,0,0,1,.32,1.25A4.39,4.39,0,0,1,56,22.91c-.32.74-.72,1.11-1.21,1.11-.78,0-1.33-.53-1.66-1.6-.36,1.37-1,2-2,2a1.19,1.19,0,0,1-1-.55,2.92,2.92,0,0,1-.47-1.72V20.52c0-.13-.09-.23-.28-.28a.4.4,0,0,1-.27-.43,1.62,1.62,0,0,1,.47-1.09c.28-.31.5-.47.65-.47s.29.37.29,1.11a4.35,4.35,0,0,1-.09,1,2.59,2.59,0,0,0-.1.67,2.87,2.87,0,0,0,.25,1.15c.19.42.43.63.71.63a1.45,1.45,0,0,0,1-.5,1.65,1.65,0,0,0,.48-1.18,6.78,6.78,0,0,0-.23-1.32,7.26,7.26,0,0,1-.22-1.17,1.83,1.83,0,0,1,.2-.64c.14-.3.24-.44.31-.44s.28.41.48,1.24a9,9,0,0,1,.3,1.84c0,1.15.44,1.72,1.32,1.72a.68.68,0,0,0,.72-.57,7.12,7.12,0,0,1-1.15-3.07,2,2,0,0,1,.31-1.08c.14-.22.23-.33.29-.35s.09.14.12.41a4.62,4.62,0,0,0,.18.94s.2.5.56,1.41Z"/><path class="cls-2" d="M106.31,6.42a19.24,19.24,0,0,1,2-5.89c.19-.35.41-.53.65-.53s.23.07.23.2a.53.53,0,0,1,0,.17,20.08,20.08,0,0,0-.76,1.94c1.43,1,2.1,2.1,2,3.15a4.74,4.74,0,0,1-.47,2.12,2.79,2.79,0,0,1-2.33,1.27c-.9,0-1.35-.54-1.35-1.63a4.61,4.61,0,0,1,.08-.8ZM109.77,6c0-.4-.71-1-2.13-1.78A5,5,0,0,0,107,6.42c0,.42.2.63.59.63a2.66,2.66,0,0,0,1.23-.37A2.84,2.84,0,0,0,109.77,6Z"/><path class="cls-2" d="M60.59,8.73s0,.16-.08.37a3.92,3.92,0,0,1-.6,1.16s-2.91,1.09-8.6,3.19q-8.93,3.3-10.82,4.28c-1,.51-1.49.87-1.49,1.06s.16.26.49.43a13.76,13.76,0,0,0,1.57.61c.13,0,.19.31.19.8a2.38,2.38,0,0,1-.06.74c0,.08-.19.09-.45,0-1.65-.32-2.48-.9-2.48-1.74A3.8,3.8,0,0,1,39,17.83a4.88,4.88,0,0,1,1.44-1.6q.68-.42,10.1-3.88l9.67-3.52c.24-.09.39-.13.43-.1Z"/><path class="cls-2" d="M43.57,29.53c3.78,0,5.66.43,5.66,1.31a6.71,6.71,0,0,1-1.35,2.41A13.42,13.42,0,0,1,45,36.33a27.49,27.49,0,0,1-5.82,1.93c-.59.15-.88.2-.88.16a4.24,4.24,0,0,1,.61-.51,30.37,30.37,0,0,1,3.52-2A26.8,26.8,0,0,0,45.66,34a.23.23,0,0,0,.08-.16c0-.44-1.64-.65-4.91-.65L39,33.29c-.6,0-.9,0-.9-.12a1.46,1.46,0,0,1,.23-.52l1.16-2a2.49,2.49,0,0,1,1.86-1.08,17.55,17.55,0,0,1,2.27-.08Z"/><path class="cls-2" d="M38.48,5.2a2.51,2.51,0,0,1,2.05,1.36,8.93,8.93,0,0,1,1.28,3.55,1.78,1.78,0,0,1,0,.26s0,0,.06,0a2.38,2.38,0,0,0,.11-.26,32.57,32.57,0,0,1,.9-3.91C43.43,5,44,4.34,44.61,4.34a1.24,1.24,0,0,1,.94.64,1.59,1.59,0,0,1,.41.89,2.52,2.52,0,0,1-.14.7c-.12.38-.27.57-.43.57s-.22-.14-.45-.44a1,1,0,0,0-.72-.44c-.54,0-1,1.29-1.51,3.87A9.23,9.23,0,0,1,42,12.5c-.18.31-.33.47-.45.47s-.17-.15-.17-.43a9.35,9.35,0,0,0-.77-2.63Q39.87,8,39.54,8a.27.27,0,0,0-.28.14c0,.1-.17.15-.37.15A1.54,1.54,0,0,1,38,7.73c-.38-.34-.56-.61-.56-.81A3.26,3.26,0,0,1,37.89,6C38.2,5.46,38.4,5.2,38.48,5.2Z"/><path class="cls-2" d="M36.73,0s0,.16-.08.37a4.4,4.4,0,0,1-.59,1.16S30,3.83,17.87,8.37q-14,5.25-15.64,6.09c-1,.52-1.49.87-1.49,1.06s.16.27.49.43a12.7,12.7,0,0,0,1.57.62c.12,0,.18.3.18.79a2.42,2.42,0,0,1-.06.75q-.06.12-.45,0C.82,17.83,0,17.25,0,16.4a3.91,3.91,0,0,1,.68-1.84A4.65,4.65,0,0,1,2.13,13q1-.63,15.74-6.13L36.31.11c.24-.09.38-.13.42-.1Z"/><path class="cls-2" d="M4.68,23.36a2.53,2.53,0,0,1,2.06,1.36A9,9,0,0,1,8,28.26c0,.15,0,.24,0,.27s0,0,.06,0,.05-.12.1-.27a33,33,0,0,1,.9-3.9c.52-1.24,1.08-1.86,1.7-1.86a1.28,1.28,0,0,1,.94.63,1.72,1.72,0,0,1,.41.9,2.26,2.26,0,0,1-.15.7c-.12.38-.26.57-.43.57s-.21-.15-.45-.44a1,1,0,0,0-.71-.44c-.55,0-1,1.29-1.51,3.86a9.13,9.13,0,0,1-.68,2.38c-.18.31-.33.47-.45.47s-.16-.15-.16-.43a9.14,9.14,0,0,0-.78-2.63c-.52-1.3-.88-1.95-1.1-1.95a.29.29,0,0,0-.29.14c0,.1-.16.14-.37.14a1.6,1.6,0,0,1-.91-.51c-.37-.34-.56-.61-.56-.81a3.6,3.6,0,0,1,.47-.93C4.41,23.62,4.6,23.36,4.68,23.36Z"/><path class="cls-2" d="M20.38,13.73A4.65,4.65,0,0,1,23,12.55c.82,0,1.13.34.94,1s-.4,1.15-.55,1.15-.14-.09-.29-.26a.8.8,0,0,0-.63-.26,5.07,5.07,0,0,0-1.9.94,10.45,10.45,0,0,0-2.29,1.95.57.57,0,0,0-.16.34c0,.26.52.39,1.57.39a16.12,16.12,0,0,0,2.6-.26,15.28,15.28,0,0,1,1.88-.27c1.37,0,2.25.42,2.63,1.25a1.79,1.79,0,0,1,.15.75,3.63,3.63,0,0,1-.35,1.49c-.23.51-.43.79-.59.85a29.47,29.47,0,0,1-7.55,1.49,3.47,3.47,0,0,1-2.29-.78,2.82,2.82,0,0,1-1-1.45,6.3,6.3,0,0,0,3.07.55,32.38,32.38,0,0,0,4.31-.65c2-.38,3.25-.64,3.68-.78-.18-.64-1.06-1-2.66-1a15.09,15.09,0,0,0-2,.27,15.88,15.88,0,0,1-2.16.26c-1.56,0-2.35-.35-2.35-1.06a2.89,2.89,0,0,1,.39-1.23,10.43,10.43,0,0,1,3-3.56Z"/><path class="cls-2" d="M3.42,6.42A19,19,0,0,1,5.4.53C5.59.18,5.81,0,6.05,0s.23.07.23.2a.53.53,0,0,1,0,.17,20.08,20.08,0,0,0-.76,1.94c1.43,1,2.1,2.1,2,3.15A4.74,4.74,0,0,1,7,7.58,2.79,2.79,0,0,1,4.68,8.85c-.9,0-1.35-.54-1.35-1.63a3.85,3.85,0,0,1,.09-.8ZM6.87,6c0-.4-.71-1-2.12-1.78a4.89,4.89,0,0,0-.66,2.25c0,.42.2.63.59.63a2.63,2.63,0,0,0,1.23-.37A2.84,2.84,0,0,0,6.87,6Z"/></g></g></svg>