<svg xmlns="http://www.w3.org/2000/svg" xmlns:xlink="http://www.w3.org/1999/xlink" viewBox="0 0 280.74 120.07"><defs><style>.cls-1{fill:url(#linear-gradient);}.cls-2{fill:url(#linear-gradient-2);}.cls-3{fill:url(#linear-gradient-3);}.cls-4{fill:url(#linear-gradient-4);}.cls-5{fill:url(#linear-gradient-5);}.cls-6{fill:url(#linear-gradient-6);}.cls-7{fill:url(#linear-gradient-7);}.cls-8{fill:#727272;}.cls-9{fill:url(#linear-gradient-8);}.cls-10{fill:url(#linear-gradient-9);}.cls-11{fill:url(#linear-gradient-10);}</style><linearGradient id="linear-gradient" x1="31.62" y1="23.88" x2="31.62" y2="93.94" gradientUnits="userSpaceOnUse"><stop offset="0.25" stop-color="#0384b6"/><stop offset="0.4" stop-color="#0b7cad"/><stop offset="0.65" stop-color="#046694"/><stop offset="0.95" stop-color="#07416b"/><stop offset="1" stop-color="#123c63"/></linearGradient><linearGradient id="linear-gradient-2" x1="253.53" y1="24.89" x2="253.53" y2="94.6" xlink:href="#linear-gradient"/><linearGradient id="linear-gradient-3" x1="157.73" y1="24.89" x2="157.73" y2="95.35" xlink:href="#linear-gradient"/><linearGradient id="linear-gradient-4" x1="220.97" y1="24.47" x2="220.97" y2="94.42" xlink:href="#linear-gradient"/><linearGradient id="linear-gradient-5" x1="274.4" y1="24.98" x2="274.4" y2="94.35" xlink:href="#linear-gradient"/><linearGradient id="linear-gradient-6" x1="51.8" y1="23.33" x2="51.8" y2="92.19" xlink:href="#linear-gradient"/><linearGradient id="linear-gradient-7" x1="69.89" y1="23.9" x2="69.89" y2="93.3" gradientUnits="userSpaceOnUse"><stop offset="0.25" stop-color="#0384b6"/><stop offset="0.4" stop-color="#0b7cad"/><stop offset="0.65" stop-color="#046694"/><stop offset="0.95" stop-color="#07416b"/></linearGradient><linearGradient id="linear-gradient-8" x1="190.86" y1="24.07" x2="190.86" y2="94.59" xlink:href="#linear-gradient"/><linearGradient id="linear-gradient-9" x1="126.67" y1="25.11" x2="126.67" y2="94.02" xlink:href="#linear-gradient"/><linearGradient id="linear-gradient-10" x1="96.56" y1="24.07" x2="96.56" y2="94.71" xlink:href="#linear-gradient"/></defs><g id="Layer_2" data-name="Layer 2"><g id="Layer_1-2" data-name="Layer 1"><path class="cls-1" d="M41.68,75.38V53.93L39.2,55.16c-5.16,1.91-8.69,3.31-10.31,4.1Q18.1,64.13,18.11,81h27V75.38Zm-5.63,0H24.5a17.64,17.64,0,0,1,2.27-6.11,19.37,19.37,0,0,1,9.28-6.09Z"/><path class="cls-2" d="M266.14,75.38V66.12c0-4.28-1-7-3-8.09a13.51,13.51,0,0,1-5.93-5.94,6.44,6.44,0,0,1-1.21,2,19,19,0,0,1-5,4.13l-1.39-.78a12.21,12.21,0,0,1-4.87-5.34,9.47,9.47,0,0,1-4.18,4.26,9.5,9.5,0,0,0-5,9.16V81h5.58V66.4c0-2.52,1.34-3.78,3.58-3.78s3.36,1.21,3.36,3.78V81h5.67V66.4c0-2.52,1.11-3.78,3.45-3.78s3.53,1.18,3.53,3.76V81h10.84V75.38Z"/><path class="cls-3" d="M171.7,75.38V66.12c0-4.28-1-7-3.07-8.09A13.51,13.51,0,0,1,163,52.09a7.8,7.8,0,0,1-1.21,2,19.09,19.09,0,0,1-5.16,4.13l-1.37-.78a12,12,0,0,1-4.87-5.34,9.62,9.62,0,0,1-4.18,4.26,9.43,9.43,0,0,0-4.95,9.16V81h5.37V66.4a3.09,3.09,0,0,1,0-.91,3.29,3.29,0,0,1,3.67-2.87c2.22,0,3.36,1.21,3.36,3.78V81h5.72V66.4c0-2.52,1.09-3.78,3.46-3.78s3.56,1.18,3.56,3.76V81h7.94V75.38Z"/><path class="cls-4" d="M229.93,75.33V53.87l-2.42,1.24c-5.16,1.91-8.69,3.3-10.32,4.1Q206.63,64,206.39,80.28V81h29.16V75.33Zm-5.62,0H212.76A17.17,17.17,0,0,1,215,69.27a19.37,19.37,0,0,1,9.28-6.09Z"/><path class="cls-5" d="M277.23,75.38V50.29a24.09,24.09,0,0,1-9.18,12.48,4.75,4.75,0,0,1,3.51,5.16V81h9.18V75.38Z"/><path class="cls-6" d="M52.87,82V9a22.65,22.65,0,0,1-9.29,12.48,7.29,7.29,0,0,1,3.64,6.39V80.64a25.67,25.67,0,0,0,1.08,7.74c2,6,5.16,9,9.44,9L60,97Q52.87,93.77,52.87,82Z"/><rect class="cls-7" x="62.8" y="66.05" width="14.18" height="5.46"/><polygon class="cls-8" points="54.16 0.62 105.19 29.5 106.2 30.07 106.2 42.6 102.07 39.66 102.07 32.21 53.1 4.46 4.13 32.21 4.13 87.86 53.1 115.59 76.72 102.2 84.87 102.07 54.16 119.45 53.1 120.07 52.02 119.45 0.98 90.57 0 90 0 30.07 0.98 29.5 52.02 0.62 53.1 0 54.16 0.62"/><path class="cls-8" d="M198.14,16.76h1.72v4.77h0l3.8-4.77h2l-3.23,4.1,3.77,6.22h-2l-2.76-4.77-1.58,1.83v2.94H198Z"/><path class="cls-8" d="M208.56,16.76h6.16v1.55h-4.36v2.58h3.69v1.55h-3.69v3h4.51v1.63h-6.31Z"/><path class="cls-8" d="M217.92,16.76h1.83v8.72h4.36v1.6h-6.19Z"/><path class="cls-8" d="M230.43,16.76c-2.66,0-4.52,1.86-4.52,5.16s1.83,5.37,4.52,5.37S235,25.12,235,21.92,233.08,16.76,230.43,16.76Zm.07,9c-1.55,0-2.58-1.5-2.58-3.79s1-3.69,2.58-3.69,2.58,1.4,2.58,3.69S232.05,25.71,230.5,25.71Z"/><path class="cls-8" d="M238.06,16.76h2.06l1.81,5.16c.23.65.44,1.34.67,2h0c.23-.67.44-1.36.64-2l1.83-5.16h2.07V27.08h-1.68V22.44c0-1,.15-2.32.23-3.25h0l-.82,2.37-1.71,4.59h-1.08l-1.73-4.59-.82-2.37h0c0,.93.23,2.29.23,3.25v4.64h-1.65Z"/><path class="cls-8" d="M254,16.76H250.8l-.05,10.32h1.8V23.37H254c2.27,0,4-1.06,4-3.44S256.29,16.76,254,16.76Zm0,5.16h-1.34V18.36H254c1.52,0,2.32.44,2.32,1.7S255.54,21.92,254,21.92Z"/><path class="cls-8" d="M264.93,16.76c-2.66,0-4.51,1.86-4.51,5.16s1.85,5.37,4.54,5.37,4.54-2.1,4.54-5.37S267.58,16.76,264.93,16.76Zm.08,9c-1.55,0-2.58-1.5-2.58-3.79s1-3.69,2.58-3.69,2.57,1.4,2.57,3.69S266.56,25.71,265,25.71Z"/><path class="cls-8" d="M272.56,16.76h1.83v4.77h0l3.69-4.77h2l-3.14,4,3.69,6.32h-2l-2.76-4.82-1.47,1.83v3h-1.83Z"/><path class="cls-8" d="M139.28,36.62a2.28,2.28,0,0,0,1.43-2.22c0-1.93-1.55-2.58-3.67-2.58h-3.27V42.06h3.56c2.24,0,3.91-1,3.91-3a.66.66,0,0,0,0-.14A2.33,2.33,0,0,0,139.28,36.62Zm-3.68-3.38h1.34c1.31,0,2,.47,2,1.37s-.6,1.47-2,1.47H135.6Zm1.52,7.43H135.6V37.42h1.52c1.55,0,2.34.39,2.34,1.55S138.64,40.67,137.12,40.67Z"/><path class="cls-8" d="M144.19,31.82H146V42.14h-1.8Z"/><path class="cls-8" d="M149.65,31.82h2.07l1.8,5c.21.65.41,1.34.65,2h0c.2-.67.41-1.36.64-2l1.76-5h2V42.14h-1.67V37.39c0-1,.15-2.32.23-3.25h0l-.83,2.38-1.67,4.59h-1.09l-1.7-4.59-.8-2.38h0c0,.93.23,2.3.23,3.25v4.7h-1.62Z"/><path class="cls-8" d="M167.89,36.62a2.3,2.3,0,0,0,1.41-2.22c0-1.93-1.54-2.58-3.66-2.58h-3.27V42.06h3.53c2.27,0,3.95-1,3.95-3v-.14A2.33,2.33,0,0,0,167.89,36.62Zm-3.69-3.38h1.31c1.35,0,2,.47,2,1.37s-.61,1.47-2,1.47H164.2Zm1.52,7.43H164.2V37.42h1.52c1.52,0,2.35.39,2.35,1.55S167.22,40.67,165.72,40.67Z"/><path class="cls-8" d="M172.79,31.82h1.8V42.14h-1.8Z"/><path class="cls-8" d="M178.25,31.82h1.86l3.2,5.78,1.06,2.17h0c0-1.06-.24-2.35-.24-3.48V31.82h1.73V42.14H184l-3.19-5.78-1.06-2.16h0c0,1.08.23,2.32.23,3.45v4.49h-1.73Z"/><path class="cls-8" d="M189,37a4.85,4.85,0,0,1,4.34-5.31,4.36,4.36,0,0,1,.51,0,4.3,4.3,0,0,1,3.1,1.29l-1,1.19a2.61,2.61,0,0,0-2.07-.9c-1.8,0-3,1.41-3,3.71S192,40.7,194,40.7a2.45,2.45,0,0,0,1.47-.47V38h-1.94V36.54h3.56v4.52a4.65,4.65,0,0,1-3.27,1.21A4.76,4.76,0,0,1,189,37.63C189,37.42,189,37.2,189,37Z"/><path class="cls-8" d="M204.58,31.82h-2.14l-3.27,10.32H201l.81-2.84h3.35l.81,2.84h1.91Zm-2.33,6.06.35-1.21c.31-1.08.62-2.24.9-3.38.31,1.14.62,2.3.93,3.38l.35,1.21Z"/><path class="cls-8" d="M210.18,31.82H212l3.19,5.78,1.06,2.17h0c0-1.06-.23-2.35-.23-3.48V31.82h1.73V42.14h-1.86l-3.17-5.83-1.06-2.17h0c0,1.09.23,2.33.23,3.46v4.49h-1.75Z"/><path class="cls-8" d="M225.65,31.82h1.83V42.14h-1.83Z"/><path class="cls-8" d="M236.56,36.62A2.26,2.26,0,0,0,238,34.4c0-1.93-1.55-2.58-3.66-2.58H231V42.06h3.56c2.25,0,3.92-1,3.92-3a.66.66,0,0,0,0-.14A2.33,2.33,0,0,0,236.56,36.62Zm-3.69-3.38h1.32c1.34,0,2,.47,2,1.37s-.62,1.47-2,1.47h-1.29Zm1.53,7.43-1.53,0V37.39h1.53c1.57,0,2.34.42,2.34,1.58S235.89,40.67,234.4,40.67Z"/><path class="cls-8" d="M245.59,31.82h-2.14L240.2,42.14h1.85l.82-2.84h3.34l.8,2.84h1.93Zm-2.31,6.06.35-1.21c.31-1.08.62-2.24.9-3.38.28,1.14.6,2.3.93,3.38l.34,1.21Z"/><path class="cls-8" d="M259,35.85a4.55,4.55,0,0,0-5-4h-2.86V42.14h2.94a4,4,0,0,0,1,0A4.56,4.56,0,0,0,259,37,4.74,4.74,0,0,0,259,35.85Zm-5.28,4.77h-.8v-7.3h.8c2.06,0,3.25,1.11,3.25,3.61S255.8,40.62,253.74,40.62Z"/><path class="cls-8" d="M266,31.82h-2.14l-3.31,10.32h1.86l.82-2.84h3.36l.8,2.84h1.93Zm-2.36,6.06.35-1.21c.33-1.08.64-2.24.93-3.38.3,1.14.59,2.3.92,3.38l.35,1.21Z"/><path class="cls-8" d="M271.53,31.82h1.83V36h4.13V31.82h1.83V42.14h-1.83V37.55h-4.13v4.54h-1.83Z"/><path class="cls-8" d="M81.44,87.12h1.83v4.12H87.4V87.12h1.83V97.43H87.4V92.81H83.27v4.57H81.44Z"/><path class="cls-8" d="M102.41,87.12h-2.14L97,97.43h1.83l.82-2.84H103l.82,2.84h1.9Zm-2.36,6.06L100.4,92c.33-1.08.64-2.24.93-3.38.3,1.14.59,2.3.92,3.38l.35,1.22Z"/><path class="cls-8" d="M112.49,95.81l1.27-.91A1.77,1.77,0,0,0,115.35,96c1,0,1.45-.54,1.45-2V87.12h1.83v7a3,3,0,0,1-3.07,3.4A3.22,3.22,0,0,1,112.49,95.81Z"/><path class="cls-8" d="M127.66,87.12h1.8V97.43h-1.8Z"/><path class="cls-8" d="M155.86,91.14a4.53,4.53,0,0,0-5-4H148V97.43H151a4,4,0,0,0,1,0,4.55,4.55,0,0,0,3.91-5.13A4.74,4.74,0,0,0,155.86,91.14Zm-5.28,4.74h-.8v-7.3h.8c2.06,0,3.25,1.09,3.25,3.62S152.64,95.88,150.58,95.88Z"/><path class="cls-8" d="M168.2,87.12h-2.14l-3.33,10.31h1.91l.81-2.84h3.35l.81,2.84h1.91Zm-2.34,6.06.35-1.22c.31-1.08.62-2.24.9-3.38.31,1.14.62,2.3.93,3.38l.35,1.22Z"/><path class="cls-8" d="M179.23,87.12h1.86l3.2,5.77,1.06,2.17h0c0-1.06-.24-2.35-.24-3.48V87.12h1.73V97.43H185l-3.17-5.88-1.05-2.17h0c0,1.09.23,2.3.23,3.46v4.49h-1.76Z"/><path class="cls-8" d="M205.33,92.87V87.12h1.83V93c0,2.22.83,3,2.07,3s2.11-.75,2.11-3v-5.9h1.75v5.75c0,3.37-1.49,4.69-3.86,4.69S205.33,96.24,205.33,92.87Z"/><path class="cls-8" d="M222.07,87.12h2.06l1.81,5c.23.65.44,1.32.67,2h0c.23-.67.44-1.34.64-2l1.78-5h2.07V97.43h-1.68V92.69c0-1,.15-2.33.23-3.25h0l-.82,2.37-1.71,4.59H226l-1.68-4.59-.82-2.37h0c0,.92.23,2.29.23,3.25v4.69h-1.65Z"/><path class="cls-8" d="M245.37,93.11a2.84,2.84,0,0,0,2.1-3c0-2.3-1.62-3-3.76-3h-3.54l.08,10.26h1.83v-4h1.48l2.21,4h2ZM242,91.91V88.58h1.44c1.39,0,2.16.42,2.16,1.58s-.77,1.75-2.16,1.75Z"/><path class="cls-8" d="M259.93,87.12h-2.15l-3.27,10.31h1.86l.8-2.84h3.36l.82,2.84h1.9Zm-2.36,6.06.35-1.22c.33-1.08.64-2.24.93-3.38.3,1.14.59,2.3.92,3.38l.35,1.22Z"/><path class="cls-8" d="M270.86,87.12h1.81v4.12h4.15V87.12h1.8V97.43h-1.8V92.81h-4.15v4.57h-1.81Z"/><path class="cls-9" d="M174.28,75.38a32.19,32.19,0,0,0-.54,5.63h34.39L206,80.1c-5.8-2.89-9.15-5.59-10.82-8.43-.65,2.45-1.83,3.66-3.64,3.66h-10.8c2.5-4.67,9.15-7,19.9-7V52.25H173.58q9.39,3.84,12.64,9c.72-2.35,1.91-3.51,3.51-3.51h5.37V62.9a32,32,0,0,0-9.42,1.54C179.44,66.79,175.7,70.46,174.28,75.38Z"/><path class="cls-10" d="M135.63,75.33V53.87l-2.42,1.24c-5.16,1.91-8.69,3.3-10.32,4.1Q112.33,64,112.09,80.28V81h29.16V75.33Zm-5.62,0H118.46a17.17,17.17,0,0,1,2.27-6.11A19.41,19.41,0,0,1,130,63.18Z"/><path class="cls-11" d="M80,75.38A32.19,32.19,0,0,0,79.44,81h34.39l-2.1-.91c-5.81-2.89-9.15-5.59-10.83-8.43-.65,2.45-1.83,3.66-3.64,3.66H86.46q3.75-7,19.91-7V52.25H79.29q9.39,3.84,12.63,9c.73-2.35,1.91-3.51,3.51-3.51h5.37V62.9a32,32,0,0,0-9.42,1.54C85.14,66.79,81.4,70.46,80,75.38Z"/></g></g></svg>