<svg xmlns="http://www.w3.org/2000/svg" viewBox="0 0 147.17 147.17"><defs><style>.cls-1{fill:#fff;}.cls-2{fill:#eaeaea;}.cls-3{fill:#1d1d1b;}</style></defs><g id="Layer_2" data-name="Layer 2"><g id="Work"><rect class="cls-1" width="147.17" height="147.17"/><path class="cls-2" d="M25.77,25.77V43.48H43.48V25.77ZM39.93,39.94H29.31V29.31H39.93Z"/><rect class="cls-3" x="22.23" y="50.56" width="3.54" height="3.54"/><rect class="cls-3" x="22.23" y="85.98" width="3.54" height="3.54"/><rect class="cls-3" x="25.77" y="93.07" width="3.54" height="3.54"/><polygon class="cls-3" points="32.85 78.9 29.31 78.9 25.77 78.9 25.77 82.44 29.31 82.44 29.31 93.07 32.85 93.07 32.85 96.61 36.4 96.61 36.4 89.53 32.85 89.53 32.85 85.98 36.4 85.98 36.4 82.44 32.85 82.44 32.85 78.9"/><rect class="cls-3" x="36.39" y="85.98" width="3.54" height="3.54"/><polygon class="cls-3" points="54.11 64.73 54.11 71.81 50.56 71.81 50.56 68.28 39.93 68.28 39.93 64.73 54.11 64.73"/><rect class="cls-3" x="39.93" y="89.52" width="3.54" height="3.54"/><rect class="cls-3" x="43.48" y="85.99" width="3.54" height="3.53"/><path class="cls-3" d="M22.22,22.23V47H47V22.23ZM43.48,43.48H25.77V25.77H43.48Z"/><rect class="cls-3" x="29.31" y="29.31" width="10.62" height="10.62"/><polygon class="cls-3" points="50.56 50.57 50.56 54.1 43.48 54.1 43.48 57.65 47.02 57.65 47.02 61.19 39.93 61.19 39.93 57.65 29.31 57.65 29.31 64.73 32.85 64.73 32.85 61.19 39.93 61.19 39.93 64.73 36.4 64.73 36.4 68.28 39.93 68.28 39.93 71.81 36.4 71.81 36.4 75.36 32.85 75.36 32.85 71.81 29.31 71.81 29.31 75.36 25.77 75.36 25.77 78.9 22.22 78.9 22.22 57.65 25.77 57.65 25.77 54.1 29.31 54.1 29.31 50.57 36.4 50.57 36.4 54.1 39.93 54.1 39.93 50.57 50.56 50.57"/><path class="cls-3" d="M22.22,100.15v24.79H47V100.15Zm21.26,21.26H25.77V103.7H43.48Z"/><rect class="cls-3" x="29.31" y="107.23" width="10.62" height="10.63"/><polygon class="cls-3" points="50.56 71.81 50.56 78.9 47.02 78.9 47.02 75.36 43.48 75.36 43.48 78.9 47.02 78.9 47.02 82.44 36.4 82.44 36.4 78.9 39.93 78.9 39.93 71.81 50.56 71.81"/><rect class="cls-3" x="50.56" y="43.48" width="3.54" height="7.08"/><rect class="cls-3" x="50.56" y="82.44" width="3.54" height="3.54"/><rect class="cls-3" x="50.56" y="121.4" width="3.54" height="3.54"/><polygon class="cls-3" points="61.19 61.19 61.19 64.73 54.11 64.73 54.11 61.19 50.56 61.19 50.56 54.1 57.64 54.1 57.64 61.19 61.19 61.19"/><rect class="cls-3" x="54.1" y="75.36" width="3.54" height="3.54"/><polygon class="cls-3" points="75.35 22.23 75.35 29.31 71.82 29.31 71.82 32.86 68.27 32.86 68.27 36.39 61.19 36.39 61.19 47.02 64.73 47.02 64.73 54.1 57.64 54.1 57.64 43.48 54.11 43.48 54.11 39.94 57.64 39.94 57.64 32.86 61.19 32.86 61.19 29.31 68.27 29.31 68.27 25.77 71.82 25.77 71.82 22.23 75.35 22.23"/><rect class="cls-3" x="50.56" y="32.86" width="3.54" height="3.53"/><polygon class="cls-3" points="61.19 25.77 61.19 29.31 57.64 29.31 57.64 32.86 54.11 32.86 54.11 29.31 50.56 29.31 50.56 22.23 54.11 22.23 54.11 25.77 61.19 25.77"/><rect class="cls-3" x="64.73" y="43.48" width="3.54" height="3.54"/><rect class="cls-3" x="71.82" y="32.86" width="3.53" height="3.53"/><rect class="cls-3" x="57.65" y="82.44" width="3.54" height="3.54"/><rect class="cls-3" x="57.65" y="117.86" width="3.54" height="3.54"/><polygon class="cls-3" points="64.73 25.77 68.27 25.77 68.27 22.23 64.73 22.23 64.73 22.23 61.19 22.23 61.19 25.77 64.73 25.77 64.73 25.77"/><polygon class="cls-3" points="64.73 57.65 64.73 57.65 61.19 57.65 61.19 61.19 64.73 61.19 64.73 61.19 68.27 61.19 68.27 57.65 64.73 57.65"/><rect class="cls-3" x="71.81" y="39.94" width="3.54" height="7.08"/><polygon class="cls-3" points="75.36 68.27 75.36 71.81 78.9 71.81 82.44 71.81 82.44 68.27 78.9 68.27 78.9 64.73 75.36 64.73 75.36 61.19 71.81 61.19 68.27 61.19 68.27 68.27 71.81 68.27 75.36 68.27"/><path class="cls-3" d="M71.82,107.23v3.55H64.73v-3.55h3.54V103.7H61.19v3.53H54.11v3.55H50.56v7.08h3.55v-3.54h7.08v3.54h3.54v7.08h3.54v-3.53h7.08V107.23Zm0,10.63H68.27v-3.54h3.55Zm0-24.79H64.73v3.54h3.54v7.09h3.55ZM61.19,89.52v3.55h3.54V89.52Z"/><polygon class="cls-3" points="61.19 96.61 61.19 100.15 54.11 100.15 54.11 107.23 50.56 107.23 50.56 96.61 54.11 96.61 54.11 93.06 50.56 93.06 50.56 96.61 43.48 96.61 43.48 93.06 47.02 93.06 47.02 89.52 57.64 89.52 57.64 96.61 61.19 96.61"/><path class="cls-3" d="M93.06,43.48V47h3.55V43.48Z"/><polygon class="cls-3" points="89.53 43.48 89.53 47.02 93.06 47.02 93.06 50.57 89.53 50.57 89.53 54.1 85.98 54.1 85.98 57.65 82.44 57.65 82.44 64.73 78.9 64.73 78.9 57.65 71.82 57.65 71.82 54.1 75.35 54.1 75.35 50.57 82.44 50.57 82.44 47.02 85.98 47.02 85.98 43.48 82.44 43.48 82.44 47.02 78.9 47.02 78.9 39.94 75.35 39.94 75.35 36.39 78.9 36.39 78.9 29.31 82.44 29.31 82.44 32.86 89.53 32.86 89.53 36.39 82.44 36.39 82.44 39.94 89.53 39.94 89.53 36.39 93.06 36.39 93.06 43.48 89.53 43.48"/><rect class="cls-3" x="78.9" y="78.9" width="3.54" height="3.54"/><rect class="cls-3" x="78.9" y="103.69" width="3.54" height="3.54"/><rect class="cls-3" x="78.9" y="121.4" width="3.54" height="3.54"/><rect class="cls-3" x="82.44" y="64.73" width="3.54" height="3.54"/><rect class="cls-3" x="82.44" y="71.82" width="3.54" height="3.54"/><polygon class="cls-3" points="82.44 107.23 82.44 110.78 78.9 110.78 78.9 117.86 82.44 117.86 85.98 117.86 85.98 124.94 89.53 124.94 89.53 107.23 85.98 107.23 82.44 107.23"/><polygon class="cls-3" points="96.61 22.23 96.61 25.77 89.53 25.77 89.53 29.31 82.44 29.31 82.44 22.23 96.61 22.23"/><rect class="cls-3" x="89.52" y="54.11" width="3.54" height="3.54"/><rect class="cls-3" x="93.07" y="29.31" width="3.54" height="3.54"/><rect class="cls-3" x="100.15" y="68.27" width="3.54" height="7.08"/><rect class="cls-3" x="100.15" y="100.15" width="3.54" height="3.54"/><rect class="cls-3" x="103.69" y="64.73" width="3.54" height="3.54"/><rect class="cls-3" x="107.23" y="54.11" width="3.54" height="7.08"/><rect class="cls-3" x="110.78" y="50.56" width="3.54" height="3.54"/><polygon class="cls-3" points="117.86 50.56 117.86 54.1 121.4 54.1 121.4 57.65 117.86 57.65 114.32 57.65 114.32 61.19 117.86 61.19 121.4 61.19 121.4 57.65 124.94 57.65 124.94 50.56 121.4 50.56 117.86 50.56"/><path class="cls-3" d="M114.32,114.32v3.54h3.54v-3.54ZM100.15,54.1H96.61v7.09h7.08V50.57h-3.54ZM89.53,75.36H86v7.08h7.08v7.08h7.09V78.9H96.61V71.81H93.06V64.73H89.53Zm3.53-10.63h3.55V61.19H93.06ZM57.64,68.28v7.08h3.55V71.81h3.54V78.9h3.54V68.28Z"/><path class="cls-3" d="M121.4,86V75.36H125V68.28h-7.09V64.73h-7.09v3.55h3.55v7.08h3.54v7.08h-3.54V78.9h-3.55V75.36h-3.53v7.08h3.53V86h3.55v7.08h-7.08V89.52h3.53V86h-3.53V82.44h-3.55V93.07H93.06V89.52H89.53v3.55H86V89.52h3.55V86H86V82.44H82.44V86H75.35V75.36H71.82V78.9H68.27v3.54H64.73V86h7.09v3.53H82.44v10.63h7.09V96.61h3.53v3.54H89.53v3.55h3.53v7.08h3.55v3.54H93.06v10.62h3.55v-3.53h3.54V110.78h3.54v10.63h3.55v3.53h3.53v-3.53h3.55v-3.55h-7.08v-3.54h7.08v-3.54h-3.55v-3.55h3.55v-7.08h3.54v7.08h-3.54v3.55h7.08v7.08H125V103.7H121.4v-3.55H125V96.61h-7.09V86Zm-14.16,21.24H96.61V96.61h10.63Z"/><rect class="cls-3" x="117.86" y="117.86" width="3.54" height="7.08"/><path class="cls-3" d="M100.15,22.23V47H125V22.23ZM121.4,43.48H103.69V25.77H121.4Z"/><rect class="cls-3" x="107.24" y="29.31" width="10.62" height="10.62"/><rect class="cls-3" x="121.4" y="61.19" width="3.54" height="3.54"/></g></g></svg>