<svg id="Layer_1" data-name="Layer 1" xmlns="http://www.w3.org/2000/svg" viewBox="0 0 221.08 222.58"><path d="M5.29,6.4V50.89H49.94V6.4ZM43.57,44.54H11.67V12.75h31.9ZM126.48,6.4v6.35h-6.37V6.4H107.35v6.35H81.84V6.4H75.46v6.35H69.08V6.4H62.7v6.35H56.32V50.89H62.7V38.18H75.46v6.36h6.38V38.18h6.37V31.82H75.46V19.11h6.38v6.36h6.37v6.35h6.38V19.11H101V31.82h6.38V19.11h19.13v6.36h6.38v6.35h12.76V25.47H152V6.4ZM69.08,31.82H62.7V19.11h6.38Zm70.16-12.71h-6.38V12.75h6.38ZM164.76,6.4v6.35h-6.38V6.4Zm6.37,0V50.89h44.65V6.4ZM209.4,44.54H177.51V12.75H209.4ZM37.19,19.11V38.18H18.05V19.11Zm127.57,0v6.36h-6.38V19.11Zm38.27,0V38.18H183.89V19.11Zm-44.65,6.36V44.54H152V25.47ZM101,31.82v6.36H94.59V31.82Zm-6.38,6.36v6.36H88.21V38.18ZM75.46,44.54v6.35H69.08V44.54Zm12.75,0V57.25H81.84V44.54Zm12.76,0V57.25H94.59V44.54Zm38.27,0V57.25h-6.38v6.36h-6.38V70H113.73V57.25h12.75V50.89h6.38V44.54Zm12.76,0v6.35h-6.38V44.54Zm12.76,0V57.25H152V50.89h6.38V44.54Zm-31.9-6.36v6.36h-6.38v6.35h-6.37V44.54h-6.38V57.25h-6.38V38.18h6.38V25.47h6.38v6.35h6.37v6.36Zm51,25.43V70h6.38v6.35h-6.38v6.36h-6.38V70H164.76V57.25h6.37v6.36h6.38V57.25H209.4v6.36Zm-6.38,44.5v12.71H164.76V108.11H152v6.36h-6.38V101.75H152V95.39h-6.38V76.32H132.86V63.61h6.38V70h6.38V57.25H152v6.36h6.38V70h6.38v6.35h6.37v6.36H158.38v19.07h6.38V95.39h6.37v12.72Zm31.89,0v6.36h6.38v12.71H209.4v12.71h6.38v12.72H196.65v-6.36H203V127.18h-6.38v6.36h-6.38V120.82h6.38v-6.35h-6.38v-6.36H203v-6.36h6.37V82.68H203V76.32h6.37V63.61h6.38v44.5ZM203,70v6.35h-6.38V70ZM177.51,82.68V95.39h-6.38V82.68Zm12.76,0V89h-6.38V82.68ZM203,89v12.71h-6.38V89ZM49.94,95.39v6.36H43.57V95.39Zm140.33,0v6.36h-6.38V95.39ZM37.19,101.75v6.36H30.81v-6.36ZM24.43,120.82v6.36h6.38v12.71H24.43v-6.35H18.05v6.35H11.67V127.18H5.29V114.47H18.05v-6.36H30.81v6.36H43.57v6.35Zm134-6.35v25.42H152v6.36h-6.38V133.54H152v-6.36h-6.38v-6.36H152v-6.35ZM56.32,120.82v6.36H43.57v-6.36ZM94.59,63.61V57.25H88.21v6.36H75.46V57.25H37.19v6.36H24.43V57.25H18.05v6.36H11.67V70H5.29v38.14H18.05v-6.36h6.38V95.39H43.57V89h6.37V82.68H37.19V89H18.05V82.68H37.19V76.32H62.7V70H43.57V63.61H69.08V82.68H56.32V89H49.94v6.35h6.38v6.36H62.7V95.39h6.38v6.36H62.7v6.36H43.57v6.36H62.7v12.71h6.38v6.36h6.38V120.82H69.08V108.11h6.38V76.32h6.38V70H94.59v6.35H101V63.61ZM24.43,76.32H18.05V70h6.38Zm44.65,57.22v6.35H62.7v6.36H56.32v-6.36H43.57v-6.35H56.32v-6.36H62.7v6.36Zm-44.65,6.35v6.36H18.05v-6.36Zm31.89,6.36V159H49.94v-6.35H43.57V159h6.37v6.36H37.19V152.61H30.81V139.89h6.38v6.36Zm-38.27,0v6.36H5.29v-6.36Zm76.54,0v6.36H62.7v-6.36h6.38v-6.36h6.38v6.36Zm12.76,0v6.36H101v-6.36Zm38.27,0v6.36H132.86v-6.36Zm12.76,0v6.36H152v-6.36ZM101,152.61V159H94.59v-6.35Zm108.43,44.5v-6.36H190.27V165.32h6.38V159h-6.38v-6.35h-6.38V120.82h-6.38v6.36h-6.38v6.36h6.38v12.71H164.76v6.36h12.75V159H145.62v6.36H132.86V159h-6.38v-6.35H113.73V159h6.38v6.36h-6.38v6.36h19.13V178h6.38v-6.36h19.14v12.71H152v19.07h6.38V190.75h6.38v6.36h6.37v-6.36h6.38v6.36h6.38v6.35h6.38v6.36h-6.38v6.36H203V203.46h-6.38v-6.35H203v6.35h12.75v-6.35Zm-25.51-12.72H164.76V165.32h19.13ZM24.43,159v6.36H5.29V159Zm89.3,0v6.36h-6.38V159Zm102.05,6.36v19.07H203V178h6.37v-6.36H203V159h6.37v6.36ZM5.29,171.68v44.5H49.94v-44.5Zm38.28,38.14H11.67V178h31.9Zm133.94-38.14V178h-6.38v-6.36ZM94.59,178v6.35H88.21V178Zm-57.4,6.35v19.07H18.05V184.39Zm51,0v6.36H81.84v-6.36ZM107.35,178v-6.36H101v-6.36H94.59V159H56.32v25.43H69.08v6.36H62.7v6.36h6.38v6.35H81.84v-6.35H75.46V184.39h6.38V165.32h6.37v6.36h6.38V178H101v6.35h12.76V178Zm-31.89-6.36H69.08V178H62.7v-6.36h6.38v-6.36h6.38ZM62.7,197.11v6.35H56.32v-6.35Zm57.41,0v19.07h-6.38v-6.36h-6.38V197.11H101v6.35H94.59V190.75h19.14v6.36ZM94.59,209.82v6.36H62.7V203.46h6.38v6.36H81.84v-6.36h6.37v6.36ZM152,203.46v6.36h-6.38v-6.36Zm19.13,0v6.36h-6.37v6.36H152v-6.36h6.38v-6.36Zm-63.78,6.36v6.36H101v-6.36ZM145.62,178v19.07h-6.38v6.35h-6.38v12.72h-6.38V197.11h6.38v-6.36h-6.38v6.36h-6.37V184.39h19.13V178Zm31.89,31.78v6.36h-6.38v-6.36Zm38.27,0v6.36H209.4v-6.36Z"/><path d="M110.54,82.69a28.61,28.61,0,0,0-25.08,42.36l-2.35,8.22a4.39,4.39,0,0,0,3,5.44,4.33,4.33,0,0,0,2.42,0l8.22-2.35a28.6,28.6,0,1,0,13.77-53.67Zm6.63,46.2h0a24.2,24.2,0,0,1-24.2-24.2v0a9.89,9.89,0,0,1,9.9-9.86,4.09,4.09,0,0,1,3.55,2.06l3.22,5.63a4.38,4.38,0,0,1,0,4.44l-2,3.26a11,11,0,0,0,4,4l3.26-2a4.43,4.43,0,0,1,4.45-.05l5.62,3.22A4.12,4.12,0,0,1,127,119,9.92,9.92,0,0,1,117.17,128.89Z"/><path d="M112.86,118.62a2.21,2.21,0,0,1-2,.12,15.42,15.42,0,0,1-7.75-7.74,2.23,2.23,0,0,1,.12-2l2.59-4.3-3.13-5.47a5.49,5.49,0,0,0-5.32,5.47,19.8,19.8,0,0,0,19.77,19.83h0a5.5,5.5,0,0,0,5.47-5.33L117.16,116Z"/></svg>